<?xml version="1.0" encoding="UTF-8"?>
<svg id="Layer_2" data-name="Layer 2" xmlns="http://www.w3.org/2000/svg" viewBox="0 0 146.007507 128.169983">
  <defs>
    <style>
      .cls-1 {
        fill: none;
      }

      .cls-2 {
        fill: #fff;
      }

      .cls-3 {
        fill: #144473;
      }
    </style>
  </defs>
  <g id="number_signs" data-name="number signs">
    <g id="signFive">
      <path class="cls-3" d="M145.144989,67.289978l-33.289978,57.660034c-1.150024,1.98999-3.27002,3.219971-5.559998,3.219971H39.714996c-2.299988,0-4.419983-1.22998-5.570007-3.219971L.855011,67.289978c-1.140015-1.98999-1.140015-4.429993,0-6.419983L34.144989,3.209961c1.150024-1.98999,3.27002-3.209961,5.570007-3.209961h66.580017c2.289978,0,4.409973,1.219971,5.559998,3.209961l33.289978,57.660034c1.150024,1.98999,1.150024,4.429993,0,6.419983Z"/>
      <g id="_05" data-name="05">
        <rect class="cls-1" x="0" y=".473751" width="146.007507" height="127.222481"/>
        <path class="cls-2" d="M51.104997,90.948294c-6.230469,0-10.986328-2.323242-14.271484-6.970703s-4.927734-11.229492-4.927734-19.74707c0-5.693359.741211-10.499023,2.226562-14.41748,1.484375-3.916992,3.650391-6.885742,6.496094-8.905762,2.847656-2.019043,6.339844-3.029785,10.476562-3.029785,6.277344,0,11.046875,2.251465,14.307617,6.752441,3.259766,4.501953,4.891602,11.036133,4.891602,19.600586,0,5.694336-.743164,10.524414-2.226562,14.491211-1.486328,3.966797-3.638672,6.996094-6.460938,9.087891-2.823242,2.092773-6.327148,3.138672-10.511719,3.138672ZM51.104997,81.751028c2.821289,0,4.914062-1.398438,6.277344-4.197266,1.362305-2.798828,2.044922-7.239258,2.044922-13.323242,0-6.083008-.682617-10.462891-2.044922-13.139648-1.363281-2.67627-3.456055-4.015137-6.277344-4.015137-2.823242,0-4.916016,1.338867-6.27832,4.015137-1.363281,2.676758-2.043945,7.056641-2.043945,13.139648,0,6.083984.680664,10.524414,2.043945,13.323242,1.362305,2.798828,3.455078,4.197266,6.27832,4.197266Z"/>
        <path class="cls-2" d="M94.977067,90.948294c-2.481445,0-5.037109-.316406-7.665039-.949219-2.62793-.631836-5.037109-1.580078-7.226562-2.84668-1.121094-.631836-1.886719-1.410156-2.299805-2.335938-.414062-.923828-.536133-1.873047-.365234-2.84668.169922-.972656.55957-1.8125,1.167969-2.518555.608398-.705078,1.387695-1.155273,2.335938-1.350586.949219-.193359,2.007812.025391,3.175781.657227,1.702148.875977,3.442383,1.557617,5.219727,2.043945,1.775391.487305,3.587891.730469,5.4375.730469s3.431641-.316406,4.746094-.949219c1.313477-.631836,2.310547-1.507812,2.992188-2.62793.681641-1.119141,1.022461-2.433594,1.022461-3.942383,0-2.335938-.743164-4.208984-2.226562-5.621094-1.485352-1.411133-3.493164-2.117188-6.022461-2.117188-1.265625,0-2.543945.208008-3.832031.621094-1.291016.414062-2.617188,1.130859-3.978516,2.15332-.488281.389648-1.121094.754883-1.898438,1.094727-.779297.34082-1.605469.510742-2.482422.510742-1.508789,0-2.62793-.351562-3.357422-1.057617-.730469-.705078-1.095703-1.740234-1.095703-3.102539v-22.922852c0-1.605957.425781-2.821777,1.277344-3.649902.851562-.82666,2.056641-1.240723,3.614258-1.240723h23.432617c1.605469,0,2.822266.401367,3.650391,1.204102.826172.803223,1.240234,1.959961,1.240234,3.467773,0,1.459961-.414062,2.591309-1.240234,3.394531-.828125.802734-2.044922,1.20459-3.650391,1.20459h-17.447266v13.942871h-2.773438c1.21582-1.507812,2.822266-2.675781,4.818359-3.503906,1.994141-.827148,4.18457-1.241211,6.569336-1.241211,3.260742,0,6.106445.693359,8.541016,2.081055,2.432617,1.386719,4.331055,3.321289,5.694336,5.803711,1.361328,2.481445,2.043945,5.353516,2.043945,8.613281,0,3.407227-.779297,6.413086-2.335938,9.015625-1.557617,2.604492-3.795898,4.635742-6.71582,6.095703s-6.376953,2.189453-10.366211,2.189453Z"/>
      </g>
    </g>
  </g>
</svg>