<?xml version="1.0" encoding="UTF-8"?>
<svg id="Layer_2" data-name="Layer 2" xmlns="http://www.w3.org/2000/svg" viewBox="0 0 146.007507 128.169983">
  <defs>
    <style>
      .cls-1 {
        fill: none;
      }

      .cls-2 {
        fill: #fff;
      }

      .cls-3 {
        fill: #144473;
      }
    </style>
  </defs>
  <g id="number_signs" data-name="number signs">
    <g id="signThree">
      <path id="_3" data-name="3" class="cls-3" d="M145.144989,67.289978l-33.289978,57.660034c-1.150024,1.98999-3.27002,3.219971-5.559998,3.219971H39.714996c-2.299988,0-4.419983-1.22998-5.570007-3.219971L.855011,67.289978c-1.140015-1.98999-1.140015-4.429993,0-6.419983L34.144989,3.209961c1.150024-1.98999,3.27002-3.209961,5.570007-3.209961h66.580017c2.289978,0,4.409973,1.219971,5.559998,3.209961l33.289978,57.660034c1.150024,1.98999,1.150024,4.429993,0,6.419983Z"/>
      <g id="_03" data-name="03">
        <rect class="cls-1" y=".473751" width="146.007507" height="127.222481"/>
        <path class="cls-2" d="M51.104177,90.948294c-6.230469,0-10.986328-2.323242-14.271484-6.970703s-4.927734-11.229492-4.927734-19.74707c0-5.693359.741211-10.499023,2.226562-14.41748,1.484375-3.916992,3.650391-6.885742,6.49707-8.905762,2.84668-2.019043,6.338867-3.029785,10.475586-3.029785,6.27832,0,11.046875,2.251465,14.307617,6.752441,3.259766,4.501953,4.891602,11.036133,4.891602,19.600586,0,5.694336-.743164,10.524414-2.226562,14.491211-1.485352,3.966797-3.638672,6.996094-6.460938,9.087891-2.823242,2.092773-6.327148,3.138672-10.511719,3.138672ZM51.104177,81.751028c2.821289,0,4.915039-1.398438,6.27832-4.197266,1.361328-2.798828,2.043945-7.239258,2.043945-13.323242,0-6.083008-.682617-10.462891-2.043945-13.139648-1.363281-2.67627-3.457031-4.015137-6.27832-4.015137-2.823242,0-4.916016,1.338867-6.27832,4.015137-1.363281,2.676758-2.043945,7.056641-2.043945,13.139648,0,6.083984.680664,10.524414,2.043945,13.323242,1.362305,2.798828,3.455078,4.197266,6.27832,4.197266Z"/>
        <path class="cls-2" d="M93.662771,90.948294c-2.580078,0-5.196289-.304688-7.847656-.912109-2.65332-.608398-4.953125-1.47168-6.898438-2.591797-1.266602-.680664-2.129883-1.496094-2.591797-2.445312-.462891-.949219-.632812-1.884766-.510742-2.810547.121094-.923828.498047-1.739258,1.130859-2.445312.631836-.705078,1.448242-1.155273,2.446289-1.350586.996094-.193359,2.104492,0,3.321289.583984,1.897461.924805,3.697266,1.582031,5.401367,1.970703,1.703125.390625,3.40625.584961,5.110352.584961,1.946289,0,3.577148-.255859,4.890625-.766602,1.314453-.511719,2.311523-1.25293,2.993164-2.226562s1.022461-2.19043,1.022461-3.650391c0-2.043945-.706055-3.577148-2.117188-4.598633-1.412109-1.022461-3.480469-1.533203-6.205078-1.533203h-4.306641c-1.606445,0-2.835938-.401367-3.686523-1.204102-.852539-.803711-1.277344-1.910156-1.277344-3.322266,0-1.459961.424805-2.59082,1.277344-3.394531.850586-.802734,2.080078-1.204102,3.686523-1.204102h3.211914c1.65332,0,3.053711-.255859,4.197266-.766602,1.142578-.510742,2.043945-1.228516,2.701172-2.15332.657227-.923828.985352-2.068359.985352-3.431641,0-1.945312-.669922-3.430664-2.007812-4.452637-1.338867-1.021973-3.273438-1.533203-5.802734-1.533203-1.558594,0-3.091797.182617-4.599609.547363-1.508789.365234-3.138672,1.010742-4.890625,1.93457-1.071289.536133-2.069336.706055-2.993164.51123-.924805-.193848-1.691406-.631836-2.299805-1.313965-.608398-.681152-.998047-1.47168-1.167969-2.372559-.170898-.899902-.048828-1.8125.365234-2.737793.413086-.923828,1.179688-1.678711,2.299805-2.262695,2.091797-1.21582,4.367188-2.141113,6.825195-2.773926,2.457031-.631836,4.951172-.949219,7.482422-.949219,3.698242,0,6.862305.560059,9.490234,1.679199,2.62793,1.120117,4.646484,2.713379,6.058594,4.78125,1.411133,2.069336,2.117188,4.5625,2.117188,7.482422,0,1.996094-.389648,3.821289-1.167969,5.475586-.779297,1.655273-1.861328,3.054688-3.248047,4.197266-1.387695,1.144531-3.079102,1.959961-5.074219,2.445312v-.948242c3.455078.583984,6.15625,2.019531,8.103516,4.306641,1.945312,2.288086,2.919922,5.15918,2.919922,8.614258,0,3.06543-.779297,5.730469-2.335938,7.993164-1.558594,2.262695-3.785156,4.00293-6.679688,5.21875-2.896484,1.216797-6.339844,1.825195-10.329102,1.825195Z"/>
      </g>
    </g>
  </g>
</svg>