<?xml version="1.0" encoding="UTF-8"?>
<svg id="Layer_2" data-name="Layer 2" xmlns="http://www.w3.org/2000/svg" viewBox="0 0 146.007507 128.169983">
  <defs>
    <style>
      .cls-1 {
        fill: none;
      }

      .cls-2 {
        fill: #fff;
      }

      .cls-3 {
        fill: #144473;
      }
    </style>
  </defs>
  <g id="number_signs" data-name="number signs">
    <g id="signTwo">
      <path id="_2" data-name="2" class="cls-3" d="M145.144989,67.289978l-33.289978,57.660034c-1.150024,1.98999-3.27002,3.219971-5.559998,3.219971H39.714996c-2.299988,0-4.419983-1.22998-5.570007-3.219971L.855011,67.289978c-1.140015-1.98999-1.140015-4.429993,0-6.419983L34.144989,3.209961c1.150024-1.98999,3.27002-3.209961,5.570007-3.209961h66.580017c2.289978,0,4.409973,1.219971,5.559998,3.209961l33.289978,57.660034c1.150024,1.98999,1.150024,4.429993,0,6.419983Z"/>
      <g id="_02" data-name="02">
        <rect class="cls-1" x="0" y=".473751" width="146.007507" height="127.222481"/>
        <path class="cls-2" d="M51.103763,90.948401c-6.229492,0-10.986328-2.323242-14.271484-6.971191-3.285156-4.646973-4.926758-11.229492-4.926758-19.746582,0-5.693848.741211-10.499512,2.226562-14.41748,1.483398-3.916992,3.649414-6.885742,6.496094-8.905762,2.847656-2.019043,6.338867-3.029785,10.475586-3.029785,6.27832,0,11.046875,2.251465,14.308594,6.752441,3.259766,4.501953,4.890625,11.035645,4.890625,19.600586,0,5.693848-.742188,10.524414-2.226562,14.490723-1.485352,3.966797-3.638672,6.996582-6.459961,9.088379-2.823242,2.092773-6.327148,3.138672-10.512695,3.138672ZM51.103763,81.750647c2.822266,0,4.915039-1.398438,6.27832-4.197266,1.362305-2.79834,2.043945-7.23877,2.043945-13.322754,0-6.083008-.681641-10.462891-2.043945-13.140137-1.363281-2.675781-3.456055-4.014648-6.27832-4.014648s-4.916016,1.338867-6.277344,4.014648c-1.363281,2.677246-2.043945,7.057129-2.043945,13.140137,0,6.083984.680664,10.524414,2.043945,13.322754,1.361328,2.798828,3.455078,4.197266,6.277344,4.197266Z"/>
        <path class="cls-2" d="M83.077396,90.145667c-1.800781,0-3.12793-.425781-3.978516-1.277344-.851562-.850586-1.277344-2.104492-1.277344-3.759766,0-1.069824.266602-2.067871.802734-2.992676.535156-.924316,1.264648-1.873047,2.19043-2.847168l13.723633-14.454102c2.043945-2.189941,3.515625-4.135742,4.416992-5.839844.899414-1.703125,1.349609-3.40625,1.349609-5.109863,0-2.141113-.693359-3.770996-2.080078-4.891113-1.386719-1.119141-3.394531-1.679199-6.022461-1.679199-1.412109,0-2.859375.20752-4.34375.620605-1.484375.414062-3.029297,1.083496-4.634766,2.007324-1.071289.583984-2.056641.791504-2.957031.620605-.901367-.169922-1.667969-.583984-2.299805-1.240723-.632812-.657227-1.046875-1.447754-1.240234-2.372559-.195312-.924316-.098633-1.849121.291992-2.774414.388672-.923828,1.118164-1.702637,2.189453-2.335938,2.141602-1.313965,4.477539-2.299316,7.007812-2.956543,2.530273-.656738,5.037109-.985352,7.519531-.985352,3.84375,0,7.081055.572754,9.708984,1.715332,2.62793,1.144043,4.623047,2.810547,5.985352,5.000977,1.362305,2.189941,2.044922,4.866699,2.044922,8.029785,0,2.043945-.317383,4.040039-.949219,5.98584-.632812,1.947266-1.619141,3.905762-2.957031,5.876465-1.338867,1.971191-3.102539,4.07666-5.291992,6.314453l-12.775391,12.994141v-2.919922h19.783203c1.556641,0,2.737305.390137,3.540039,1.167969.803711.779297,1.205078,1.92334,1.205078,3.431152,0,1.508789-.401367,2.664062-1.205078,3.467773-.802734.802734-1.983398,1.204102-3.540039,1.204102h-26.207031Z"/>
      </g>
    </g>
  </g>
</svg>