<?xml version="1.0" encoding="UTF-8"?>
<svg id="Layer_2" data-name="Layer 2" xmlns="http://www.w3.org/2000/svg" viewBox="0 0 146.007507 128.169983">
  <defs>
    <style>
      .cls-1 {
        fill: none;
      }

      .cls-2 {
        fill: #fff;
      }

      .cls-3 {
        fill: #144473;
      }
    </style>
  </defs>
  <g id="number_signs" data-name="number signs">
    <g id="signOne">
      <path id="_1" data-name="1" class="cls-3" d="M145.144989,67.289978l-33.289978,57.660034c-1.150024,1.98999-3.27002,3.219971-5.559998,3.219971H39.714996c-2.299988,0-4.419983-1.22998-5.570007-3.219971L.855011,67.289978c-1.140015-1.98999-1.140015-4.429993,0-6.419983L34.144989,3.209961c1.150024-1.98999,3.27002-3.209961,5.570007-3.209961h66.580017c2.289978,0,4.409973,1.219971,5.559998,3.209961l33.289978,57.660034c1.150024,1.98999,1.150024,4.429993,0,6.419983Z"/>
      <g>
        <rect class="cls-1" y=".473751" width="146.007507" height="127.222481"/>
        <path class="cls-2" d="M51.104587,90.948401c-6.230469,0-10.986328-2.323242-14.271484-6.971191-3.285156-4.646973-4.927734-11.229492-4.927734-19.746582,0-5.693848.741211-10.499512,2.226562-14.41748,1.484375-3.916992,3.650391-6.885742,6.49707-8.905762,2.84668-2.019043,6.338867-3.029785,10.475586-3.029785,6.27832,0,11.046875,2.251465,14.307617,6.752441,3.259766,4.501953,4.891602,11.035645,4.891602,19.600586,0,5.693848-.743164,10.524414-2.226562,14.490723-1.485352,3.966797-3.638672,6.996582-6.460938,9.088379-2.823242,2.092773-6.327148,3.138672-10.511719,3.138672ZM51.104587,81.750647c2.821289,0,4.915039-1.398438,6.27832-4.197266,1.361328-2.79834,2.043945-7.23877,2.043945-13.322754,0-6.083008-.682617-10.462891-2.043945-13.140137-1.363281-2.675781-3.457031-4.014648-6.27832-4.014648-2.823242,0-4.916016,1.338867-6.27832,4.014648-1.363281,2.677246-2.043945,7.057129-2.043945,13.140137,0,6.083984.680664,10.524414,2.043945,13.322754,1.362305,2.798828,3.455078,4.197266,6.27832,4.197266Z"/>
        <path class="cls-2" d="M84.464939,90.145667c-1.558594,0-2.75-.413086-3.577148-1.241211-.828125-.827148-1.241211-1.970703-1.241211-3.430664,0-1.507812.413086-2.651855,1.241211-3.431152.827148-.777832,2.018555-1.167969,3.577148-1.167969h7.373047v-32.922852h5.329102l-10.658203,6.49707c-1.120117.681641-2.15332.94873-3.102539.802734s-1.764648-.559082-2.445312-1.240723c-.682617-.681152-1.131836-1.496582-1.350586-2.445801-.21875-.94873-.134766-1.897949.254883-2.847168.389648-.94873,1.119141-1.763184,2.19043-2.445312l10.147461-6.131836c1.021484-.631836,2.054688-1.143066,3.101562-1.533203,1.046875-.388672,2.081055-.583984,3.102539-.583984,1.459961,0,2.616211.377441,3.467773,1.131348.850586.755371,1.277344,1.910645,1.277344,3.467773v38.251953h6.643555c1.507812,0,2.675781.390137,3.503906,1.167969.827148.779297,1.241211,1.92334,1.241211,3.431152,0,1.508789-.414062,2.664062-1.241211,3.467773-.828125.802734-1.996094,1.204102-3.503906,1.204102h-25.331055Z"/>
      </g>
    </g>
  </g>
</svg>