<?xml version="1.0" encoding="UTF-8"?>
<svg id="Layer_2" data-name="Layer 2" xmlns="http://www.w3.org/2000/svg" viewBox="0 0 146.007507 128.169983">
  <defs>
    <style>
      .cls-1 {
        fill: none;
      }

      .cls-2 {
        fill: #fff;
      }

      .cls-3 {
        fill: #144473;
      }
    </style>
  </defs>
  <g id="number_signs" data-name="number signs">
    <g id="signFour">
      <path id="_4" data-name="4" class="cls-3" d="M145.144989,67.289978l-33.289978,57.660034c-1.150024,1.98999-3.27002,3.219971-5.559998,3.219971H39.714996c-2.299988,0-4.419983-1.22998-5.570007-3.219971L.855011,67.289978c-1.140015-1.98999-1.140015-4.429993,0-6.419983L34.144989,3.209961c1.150024-1.98999,3.27002-3.209961,5.570007-3.209961h66.580017c2.289978,0,4.409973,1.219971,5.559998,3.209961l33.289978,57.660034c1.150024,1.98999,1.150024,4.429993,0,6.419983Z"/>
      <g id="_04" data-name="04">
        <rect class="cls-1" x="0" y=".473751" width="146.007507" height="127.222481"/>
        <path class="cls-2" d="M51.104127,90.948294c-6.229492,0-10.986328-2.323242-14.271484-6.970703s-4.926758-11.229492-4.926758-19.74707c0-5.693359.741211-10.499023,2.226562-14.41748,1.483398-3.916992,3.649414-6.885742,6.496094-8.905762,2.847656-2.019043,6.338867-3.029785,10.475586-3.029785,6.27832,0,11.046875,2.251465,14.308594,6.752441,3.259766,4.501953,4.890625,11.036133,4.890625,19.600586,0,5.694336-.742188,10.524414-2.226562,14.491211-1.485352,3.966797-3.638672,6.996094-6.459961,9.087891-2.823242,2.092773-6.327148,3.138672-10.512695,3.138672ZM51.104127,81.751028c2.822266,0,4.915039-1.398438,6.27832-4.197266,1.362305-2.798828,2.043945-7.239258,2.043945-13.323242,0-6.083008-.681641-10.462891-2.043945-13.139648-1.363281-2.67627-3.456055-4.015137-6.27832-4.015137s-4.916016,1.338867-6.277344,4.015137c-1.363281,2.676758-2.043945,7.056641-2.043945,13.139648,0,6.083984.680664,10.524414,2.043945,13.323242,1.361328,2.798828,3.455078,4.197266,6.277344,4.197266Z"/>
        <path class="cls-2" d="M102.934205,90.802786c-1.751953,0-3.12793-.487305-4.125-1.459961-.998047-.973633-1.496094-2.383789-1.496094-4.234375v-4.161133h-16.352539c-1.800781,0-3.237305-.401367-4.306641-1.204102-1.071289-.802734-1.606445-2.03125-1.606445-3.686523,0-.972656.219727-1.970703.657227-2.993164.438477-1.021484,1.21582-2.287109,2.335938-3.795898l18.907227-27.520996c.827148-1.21582,1.751953-2.141113,2.773438-2.773926,1.022461-.631836,2.19043-.949219,3.504883-.949219,1.556641,0,2.810547.474609,3.758789,1.42334.949219.949219,1.423828,2.372559,1.423828,4.270508v28.324707h2.701172c1.605469,0,2.821289.376953,3.649414,1.130859.827148.755859,1.241211,1.862305,1.241211,3.322266,0,1.412109-.401367,2.506836-1.204102,3.28418-.803711.779297-2.033203,1.167969-3.686523,1.167969h-2.701172v4.161133c0,1.850586-.474609,3.260742-1.423828,4.234375-.948242.972656-2.298828,1.459961-4.050781,1.459961ZM97.313111,72.042044v-20.075195h2.116211l-15.548828,22.848633v-2.773438h13.432617Z"/>
      </g>
    </g>
  </g>
</svg>