<?xml version="1.0" encoding="UTF-8"?>
<svg id="Layer_2" data-name="Layer 2" xmlns="http://www.w3.org/2000/svg" viewBox="0 0 293.60589 303.993851">
  <defs>
    <style>
      .cls-1 {
        fill: #0e3052;
      }

      .cls-1, .cls-2, .cls-3, .cls-4, .cls-5, .cls-6, .cls-7, .cls-8, .cls-9, .cls-10, .cls-11, .cls-12, .cls-13, .cls-14, .cls-15, .cls-16, .cls-17, .cls-18, .cls-19, .cls-20, .cls-21, .cls-22, .cls-23, .cls-24, .cls-25, .cls-26, .cls-27, .cls-28 {
        stroke: #231f20;
        stroke-miterlimit: 10;
      }

      .cls-1, .cls-13, .cls-16, .cls-19, .cls-21 {
        stroke-width: .410283px;
      }

      .cls-2 {
        fill: #45c6ef;
      }

      .cls-2, .cls-22 {
        stroke-width: .32342px;
      }

      .cls-3 {
        fill: #144372;
        stroke-width: .230173px;
      }

      .cls-4 {
        stroke-width: .279813px;
      }

      .cls-4, .cls-5, .cls-6, .cls-24, .cls-26 {
        fill: #f26b3b;
      }

      .cls-5 {
        stroke-width: .178168px;
      }

      .cls-6 {
        stroke-width: .147937px;
      }

      .cls-7 {
        stroke-width: .494092px;
      }

      .cls-8 {
        stroke-width: .443524px;
      }

      .cls-8, .cls-10, .cls-11, .cls-12, .cls-13, .cls-14, .cls-15, .cls-25 {
        fill: #113961;
      }

      .cls-9 {
        stroke-width: .183194px;
      }

      .cls-10 {
        stroke-width: .356071px;
      }

      .cls-11 {
        stroke-width: .381881px;
      }

      .cls-12 {
        stroke-width: .228342px;
      }

      .cls-14 {
        stroke-width: .292515px;
      }

      .cls-15 {
        stroke-width: .128031px;
      }

      .cls-17 {
        fill: #c6c6c6;
        stroke-width: .440115px;
      }

      .cls-18 {
        fill: none;
      }

      .cls-18, .cls-20 {
        stroke-width: .409811px;
      }

      .cls-19, .cls-20 {
        fill: #054f88;
      }

      .cls-21 {
        fill: #1c3664;
      }

      .cls-22 {
        fill: #3396b4;
      }

      .cls-23 {
        fill: #0b243d;
        stroke-width: .409747px;
      }

      .cls-24 {
        stroke-width: .120587px;
      }

      .cls-25 {
        stroke-width: .113391px;
      }

      .cls-26 {
        stroke-width: .065274px;
      }

      .cls-27 {
        stroke-width: .247189px;
      }

      .cls-27, .cls-28 {
        fill: #154373;
      }

      .cls-28 {
        stroke-width: .537672px;
      }
    </style>
  </defs>
  <g id="cab">
    <rect id="wheel" class="cls-7" x="223.266777" y="254.044518" width="43.77249" height="49.702287" rx="14.359912" ry="14.359912"/>
    <rect id="wheel-2" data-name="wheel" class="cls-7" x="27.297922" y="254.044518" width="43.77249" height="49.702287" rx="14.359912" ry="14.359912"/>
    <path class="cls-23" d="M39.486785.205142h214.844974c6.851472,0,12.413999,5.562526,12.413999,12.413999v30.813469H27.072786V12.61914C27.072786,5.767668,32.635312.205142,39.486785.205142Z"/>
    <path class="cls-20" d="M266.952791,271.815127c0,5.659973-4.589966,10.26001-10.26001,10.26001H37.552767c-5.659973,0-10.25-4.600037-10.25-10.26001l-.22998-234.040039v-.039978c0-7.880005,2.429993-15.190002,6.589966-21.22998C40.422762,6.665103,51.762788.205142,64.612764.205142h164.639954c12.870117,0,24.22998,6.47998,31,16.359985,4.130127,6.029968,6.540039,13.320007,6.540039,21.179993v.029968h-.060059l.220093,234.040039Z"/>
    <path class="cls-2" d="M258.382845,62.615115v59.640015c0,.149963,0,.309998-.01001.459961-.23999,6.559998-5.630127,11.809998-12.26001,11.809998H47.702791c-6.630005,0-12.02002-5.259949-12.26001-11.819946-.01001-.150024-.01001-.300049-.01001-.450012v-59.640015c0-6.780029,5.48999-12.27002,12.27002-12.27002h198.410034c6.780029,0,12.27002,5.48999,12.27002,12.27002Z"/>
    <rect class="cls-22" x="35.433134" y="50.625729" width="222.947703" height="29.939537" rx="12.267739" ry="12.267739"/>
    <g id="seates">
      <path class="cls-28" d="M118.264056,116.972133v19.707647c0,4.926776-3.993941,8.920718-8.920718,8.920718h-29.729285c-4.926776,0-8.920718-3.993941-8.920718-8.920718v-19.707651c0-3.409944,1.943899-6.521573,5.008416-8.017051l4.84779-2.36571c3.064517-1.495477,5.008416-4.607107,5.008416-8.017051v-1.893214c0-4.926776,3.993941-8.920718,8.920718-8.920718h.000018c4.926776,0,8.920718,3.993941,8.920718,8.920718v1.89321c0,3.409946,1.943901,6.521577,5.008421,8.017053l4.847804,2.365713c3.06452,1.495476,5.008421,4.607107,5.008421,8.017053Z"/>
      <path class="cls-28" d="M223.266777,116.972133v19.707647c0,4.926776-3.993941,8.920718-8.920718,8.920718h-29.729285c-4.926776,0-8.920718-3.993941-8.920718-8.920718v-19.707651c0-3.409944,1.943899-6.521573,5.008416-8.017051l4.84779-2.36571c3.064517-1.495477,5.008416-4.607107,5.008416-8.017051v-1.893214c0-4.926776,3.993941-8.920718,8.920718-8.920718h.000018c4.926776,0,8.920718,3.993941,8.920718,8.920718v1.89321c0,3.409946,1.943901,6.521577,5.008421,8.017053l4.847804,2.365713c3.06452,1.495476,5.008421,4.607107,5.008421,8.017053Z"/>
    </g>
    <path class="cls-13" d="M266.952791,122.732462v11.400329c0,.25909-.050065.515738-.147441.755832l-5.310549,13.093841c-1.878652,4.632059-6.378101,7.662618-11.376631,7.662618H42.472749c-4.23999,0-8.049988-2.609985-9.569946-6.569946l-5.465825-14.201339c-.088715-.230501-.134212-.475372-.134212-.722357v-11.387909c0-1.312294,1.236531-2.273003,2.508109-1.948646l2.901926.74023c.572703.149147,1.131198.348129,1.669085.592693.623827.28364,1.0578.879532,1.138428,1.560054.720968,6.085145,5.893948,10.817224,12.182477,10.817224h198.410034c6.284719,0,11.455419-4.717581,12.181201-10.79663.082314-.689449.525523-1.291913,1.161185-1.571284.555754-.244251,1.134495-.438268,1.72756-.582037l3.28478-.797012c1.265842-.307141,2.485239.651766,2.485239,1.954337Z"/>
    <path class="cls-21" d="M257.273735,12.764198c1.777037,1.990904,1.676628,5.025614-.267454,6.853756l-3.589277,3.375221c-.082171.077271-.151208.167611-.203863.267363-2.019189,3.825239-3.741389,7.818954-5.120336,11.934593-1.360107,4.059998-5.199951,7-9.72998,7H55.622774c-4.599976,0-8.5-3.030029-9.789978-7.210022-1.210022-3.890015-2.880005-7.619995-4.730042-11.25-.25-.5-.599976-.950012-1.019958-1.330017l-3.092916-2.842362c-1.982591-1.821983-2.104311-4.893108-.305188-6.896467C43.55206,5.019319,53.51978.205142,64.612764.205142h164.639954c11.136022,0,21.141351,4.85142,28.021018,12.559057Z"/>
    <path id="stering_wheek" data-name="stering wheek" class="cls-16" d="M199.483458,109.017931c-14.085029,0-25.503193,11.418189-25.503193,25.503193h3.384836c0-5.690626,2.14988-10.880694,5.682412-14.798918l3.114061,3.483325c.923137,1.02979,1.661642,2.211407,2.182685,3.491489l1.998077,4.919317c-.295392.914924-.451302,1.8914-.451302,2.904787h19.18074c0-1.013387-.15591-1.989864-.451302-2.904787l1.998077-4.919317c.521043-1.280082,1.259572-2.461699,2.18271-3.491489l3.114061-3.483325c3.532482,3.918225,5.682412,9.108292,5.682412,14.798918h3.384836c0-14.085004-11.418189-25.503193-25.499111-25.503193ZM210.515979,121.072054c-.988797.865692-2.112969,1.563178-3.323309,2.063712l-5.046478,2.096566s-1.70266-.303631-2.666841-.303631c-.960049,0-2.662734.303631-2.662734.303631l-5.046478-2.096566c-1.21034-.500533-2.334512-1.19802-3.323309-2.063712l-3.589978-3.138677c3.901797-3.442282,9.022149-5.526503,14.626606-5.526503s10.724809,2.084221,14.622499,5.526503l-3.589978,3.138677Z"/>
    <g id="r_light" data-name="r light">
      <path class="cls-17" d="M266.953839,255.822357l-5.715169,2.230389c-7.29315,2.846209-15.544519-.443943-18.878265-7.52752l-8.332813-17.705646c-2.390118-5.078548-.299921-11.263659,4.818001-13.56826.170843-.076931.344287-.149799.520236-.218465l27.588011-10.76644v47.555942Z"/>
      <path class="cls-16" d="M266.953839,256.042773l-5.327786,2.07921c-6.798808,2.653288-14.490886-.413852-17.598666-7.017293l-7.768002-16.505529c-2.228112-4.734316-.279592-10.50019,4.491429-12.648582.159263-.071716.320951-.139646.484974-.203657l25.718051-10.036673v44.332524Z"/>
      <path class="cls-10" d="M266.953839,231.353947l-16.526292,6.449516c-5.510426,2.150487-11.45905-1.913583-11.45905-7.828766v.850234c0-3.667351,2.249097-6.959378,5.665503-8.292658l22.319839-8.710494v17.532167Z"/>
      <path class="cls-12" d="M266.953839,245.529112l-10.598028,4.135964c-3.533742,1.379071-7.348493-1.227148-7.348493-5.020454v.545241c0-2.351809,1.442307-4.46293,3.63319-5.31794l14.313331-5.585891v11.243079Z"/>
      <path class="cls-15" d="M266.953839,254.402748l-5.9423,2.31903c-1.981364.773243-4.12029-.68806-4.12029-2.814962v.305716c0-1.318656.8087-2.502359,2.037125-2.981762l8.025466-3.132002v6.30398Z"/>
      <rect class="cls-4" x="241.615956" y="222.513165" width="18.537384" height="12.465083" rx="5.877772" ry="5.877772" transform="translate(-65.80158 106.362955) rotate(-21.228274)"/>
      <rect class="cls-6" x="250.83175" y="240.871237" width="9.80071" height="6.590286" rx="3.107577" ry="3.107577" transform="translate(-71.056246 109.164511) rotate(-21.228274)"/>
      <rect class="cls-26" x="258.41739" y="252.430376" width="4.324342" height="2.907815" rx="1.371148" ry="1.371148" transform="translate(-74.246026 111.579106) rotate(-21.228274)"/>
    </g>
    <g id="l_light" data-name="l light">
      <path class="cls-17" d="M28.288409,255.822357l5.715169,2.230389c7.29315,2.846209,15.544519-.443943,18.878265-7.52752l8.332813-17.705646c2.390118-5.078548.299921-11.263659-4.818001-13.56826-.170843-.076931-.344287-.149799-.520236-.218465l-27.588011-10.76644v47.555942Z"/>
      <path class="cls-16" d="M28.288409,256.042773l5.327786,2.07921c6.798808,2.653288,14.490886-.413852,17.598666-7.017293l7.768002-16.505529c2.228112-4.734316.279592-10.50019-4.491429-12.648582-.159263-.071716-.320951-.139646-.484974-.203657l-25.718051-10.036673v44.332524Z"/>
      <path class="cls-10" d="M28.288409,231.353947l16.526292,6.449516c5.510426,2.150487,11.45905-1.913583,11.45905-7.828766v.850234c0-3.667351-2.249097-6.959378-5.665503-8.292658l-22.319839-8.710494v17.532167Z"/>
      <path class="cls-12" d="M28.288409,245.529112l10.598028,4.135964c3.533742,1.379071,7.348493-1.227148,7.348493-5.020454v.545241c0-2.351809-1.442307-4.46293-3.63319-5.31794l-14.313331-5.585891v11.243079Z"/>
      <path class="cls-15" d="M28.288409,254.402748l5.9423,2.31903c1.981364.773243,4.12029-.68806,4.12029-2.814962v.305716c0-1.318656-.8087-2.502359-2.037125-2.981762l-8.025466-3.132002v6.30398Z"/>
      <rect class="cls-4" x="35.088908" y="222.513165" width="18.537384" height="12.465083" rx="5.877772" ry="5.877772" transform="translate(2.880026 458.03113) rotate(-158.771726)"/>
      <rect class="cls-6" x="34.609788" y="240.871237" width="9.80071" height="6.590286" rx="3.107577" ry="3.107577" transform="translate(-12.069553 486.070923) rotate(-158.771726)"/>
      <rect class="cls-26" x="32.500515" y="252.430376" width="4.324342" height="2.907815" rx="1.371148" ry="1.371148" transform="translate(-24.954247 503.092135) rotate(-158.771726)"/>
    </g>
    <g id="r_mirror" data-name="r mirror">
      <rect class="cls-19" x="275.691229" y="73.226539" width="17.70952" height="46.947889" rx="6.679852" ry="6.679852"/>
      <path class="cls-1" d="M286.714401,73.226539c0-5.414221-9.776385-9.842902-19.968644-9.842902l.002545,2.631098c8.52164,0,15.616285,2.839888,15.616285,7.211804h4.349815Z"/>
      <path class="cls-1" d="M286.922483,120.174428c0,5.414221-9.776385,9.842902-19.968644,9.842902l.002545-2.631098c8.52164,0,15.616285-2.839888,15.616285-7.211804h4.349815Z"/>
    </g>
    <g id="l_mirror" data-name="l mirror">
      <rect class="cls-19" x=".205142" y="75.159826" width="17.70952" height="46.947889" rx="6.679852" ry="6.679852" transform="translate(18.119803 197.26754) rotate(-180)"/>
      <path class="cls-1" d="M6.891489,75.159826c0-5.414221,9.776385-9.842902,19.968644-9.842902l-.002545,2.631098c-8.52164,0-15.616285,2.839888-15.616285,7.211804h-4.349815Z"/>
      <path class="cls-1" d="M6.683407,122.107715c0,5.414221,9.776385,9.842902,19.968644,9.842902l-.002545-2.631098c-8.52164,0-15.616285-2.839888-15.616285-7.211804h-4.349815Z"/>
    </g>
    <line class="cls-18" x1="27.072786" y1="37.775088" x2="27.042757" y2="37.775088"/>
    <g id="r_intake" data-name="r intake">
      <path class="cls-14" d="M266.953839,166.17348v34.757226c0,.030633-.03068.061266-.06903.061266l-18.491817,7.40122c-2.826881,1.131439-5.88449-1.134275-5.560029-4.161838,1.930629-18.014834,11.412817-38.119141,24.051846-38.119141.03835,0,.06903.030633.06903.061266Z"/>
      <path class="cls-9" d="M266.952791,173.082838v21.76743c0,.019185-.019214.038369-.043231.038369l-11.580882,4.635167c-1.770393.708587-3.685283-.710363-3.482083-2.606437,1.209096-11.282161,7.147512-23.872899,15.062965-23.872899.024017,0,.043231.019185.043231.038369Z"/>
    </g>
    <g id="l_intake" data-name="l intake">
      <path class="cls-14" d="M27.422091,166.17348v34.757226c0,.030633.03068.061266.06903.061266l18.491817,7.40122c2.826881,1.131439,5.88449-1.134275,5.560029-4.161838-1.930629-18.014834-11.412817-38.119141-24.051846-38.119141-.03835,0-.06903.030633-.06903.061266Z"/>
      <path class="cls-9" d="M27.277162,172.481861v21.76743c0,.019185.019214.038369.043231.038369l11.580882,4.635167c1.770393.708587,3.685283-.710363,3.482083-2.606437-1.209096-11.282161-7.147512-23.872899-15.062965-23.872899-.024017,0-.043231.019185-.043231.038369Z"/>
    </g>
    <g id="lamps">
      <rect class="cls-27" x="233.68104" y="267.025744" width="26.372246" height="11.869918" rx="5.934953" ry="5.934953"/>
      <rect class="cls-5" x="237.362951" y="268.682939" width="19.008424" height="8.555526" rx="4.277759" ry="4.277759"/>
      <rect class="cls-27" x="32.058321" y="267.025744" width="26.372246" height="11.869918" rx="5.934953" ry="5.934953"/>
      <rect class="cls-5" x="35.740231" y="268.682939" width="19.008424" height="8.555526" rx="4.277759" ry="4.277759"/>
      <rect class="cls-24" x="57.828059" y="43.57762" width="12.865277" height="5.790549" rx="2.895272" ry="2.895272"/>
      <rect class="cls-24" x="140.474347" y="43.57762" width="12.865277" height="5.790549" rx="2.895272" ry="2.895272"/>
      <rect class="cls-24" x="223.120636" y="43.375869" width="12.865277" height="5.790549" rx="2.895272" ry="2.895272"/>
    </g>
    <rect class="cls-11" x="117.662939" y="263.714705" width="58.6997" height="15.180957" rx="6.121187" ry="6.121187"/>
    <g id="lower_gril" data-name="lower gril">
      <path class="cls-11" d="M224.212801,256.445132c-.579956,2.25-2.599976,3.959961-5.059937,3.959961H74.662752c-2.459961,0-4.47998-1.709961-5.059998-3.959961-.169983-.650024-.219971-1.340027-.119995-2.059998l.610046-4.390015.639954-4.609985.900024-6.450012.640015-4.600037.820007-5.869995c.029968-.199951.069946-.389954.119995-.579956.579956-2.300049,2.649963-3.960022,5.049988-3.960022h137.279968c2.410034,0,4.47998,1.659973,5.060059,3.960022.050049.190002.089966.380005.119873.579956l.820068,5.869995.640015,4.600037.900024,6.450012.639893,4.609985.610107,4.390015c.099976.719971.050049,1.409973-.119995,2.059998Z"/>
      <g id="upper_gril" data-name="upper gril">
        <path class="cls-8" d="M238.042757,172.555117c-.01001.169983-.030029.339966-.050049.51001l-.829956,5.940002-.699951,4.959961-.910034,6.450012-.699951,4.960022-.900024,6.440002-.170044,1.200012c-.429932,3.009949-3,5.25-6.040039,5.25H67.502779c-3.039978,0-5.619995-2.240051-6.039978-5.25l-.170044-1.200012-.899963-6.440002-.700012-4.960022-.910034-6.450012-.699951-4.959961-.830017-5.940002c-.02002-.170044-.039978-.340027-.049988-.51001-.200012-3.460022,2.549988-6.440002,6.089966-6.440002h168.660034c3.529907,0,6.279907,2.97998,6.089966,6.440002Z"/>
        <polygon class="cls-3" points="236.462801 183.96509 235.552767 190.415103 59.692781 190.415103 58.782747 183.96509 236.462801 183.96509"/>
        <path class="cls-3" d="M238.042757,172.555117c-.01001.169983-.030029.339966-.050049.51001l-.829956,5.940002H58.082796l-.830017-5.940002c-.02002-.170044-.039978-.340027-.049988-.51001h180.839966Z"/>
        <polygon class="cls-3" points="234.852815 195.375125 233.952791 201.815127 61.292757 201.815127 60.392793 195.375125 234.852815 195.375125"/>
      </g>
      <path class="cls-3" d="M221.542757,234.335085H72.272798l.820007-5.869995c.029968-.199951.069946-.389954.119995-.579956h147.390015c.050049.190002.089966.380005.119873.579956l.820068,5.869995Z"/>
      <path class="cls-3" d="M224.212801,256.445132H69.602754c-.169983-.650024-.219971-1.340027-.119995-2.059998l.610046-4.390015h153.629883l.610107,4.390015c.099976.719971.050049,1.409973-.119995,2.059998Z"/>
      <polygon class="cls-3" points="223.082796 245.385134 70.732759 245.385134 71.632784 238.935122 222.182771 238.935122 223.082796 245.385134"/>
    </g>
    <rect id="logo" class="cls-25" x="140.479867" y="213.088546" width="13.065843" height="6.01316" rx="1.817558" ry="1.817558"/>
  </g>
</svg>