<?xml version="1.0" encoding="UTF-8"?>
<svg id="Layer_2" data-name="Layer 2" xmlns="http://www.w3.org/2000/svg" viewBox="0 0 515.259646 393.42269">
  <defs>
    <style>
      .cls-1, .cls-2, .cls-3, .cls-4, .cls-5, .cls-6, .cls-7, .cls-8, .cls-9, .cls-10, .cls-11, .cls-12, .cls-13, .cls-14, .cls-15, .cls-16, .cls-17, .cls-18, .cls-19, .cls-20, .cls-21, .cls-22, .cls-23, .cls-24, .cls-25, .cls-26, .cls-27, .cls-28, .cls-29, .cls-30, .cls-31, .cls-32, .cls-33, .cls-34, .cls-35, .cls-36, .cls-37, .cls-38, .cls-39, .cls-40, .cls-41, .cls-42, .cls-43, .cls-44, .cls-45, .cls-46, .cls-47, .cls-48, .cls-49, .cls-50, .cls-51, .cls-52, .cls-53, .cls-54, .cls-55, .cls-56 {
        stroke: #231f20;
        stroke-miterlimit: 10;
      }

      .cls-1, .cls-3 {
        fill: #45c6ef;
      }

      .cls-1, .cls-45 {
        stroke-width: .374858px;
      }

      .cls-2 {
        stroke-width: .207385px;
      }

      .cls-2, .cls-6 {
        fill: #144372;
      }

      .cls-3, .cls-44 {
        stroke-width: .291399px;
      }

      .cls-4, .cls-5 {
        fill: #0e3052;
      }

      .cls-4, .cls-14, .cls-15, .cls-39, .cls-43 {
        stroke-width: .475537px;
      }

      .cls-5, .cls-21, .cls-27, .cls-41, .cls-42 {
        stroke-width: .369663px;
      }

      .cls-6 {
        stroke-width: .266781px;
      }

      .cls-7 {
        stroke-width: .171466px;
      }

      .cls-7, .cls-8, .cls-9, .cls-11, .cls-12, .cls-13, .cls-37, .cls-51, .cls-53, .cls-56 {
        fill: #f26b3b;
      }

      .cls-8 {
        stroke-width: .206504px;
      }

      .cls-9 {
        stroke-width: .160528px;
      }

      .cls-10 {
        stroke-width: .396541px;
      }

      .cls-10, .cls-35 {
        fill: #c6c6c6;
      }

      .cls-11 {
        stroke-width: .13329px;
      }

      .cls-12 {
        stroke-width: .324316px;
      }

      .cls-13 {
        stroke-width: .252109px;
      }

      .cls-15, .cls-16, .cls-17, .cls-18, .cls-19, .cls-20, .cls-21, .cls-22, .cls-24, .cls-25, .cls-26, .cls-30, .cls-31, .cls-32, .cls-48, .cls-49 {
        fill: #113961;
      }

      .cls-16 {
        stroke-width: .514065px;
      }

      .cls-17 {
        stroke-width: .442618px;
      }

      .cls-18 {
        stroke-width: .344072px;
      }

      .cls-19 {
        stroke-width: .320818px;
      }

      .cls-20 {
        stroke-width: .339039px;
      }

      .cls-22 {
        stroke-width: .263554px;
      }

      .cls-23 {
        stroke-width: .21233px;
      }

      .cls-24 {
        stroke-width: .412703px;
      }

      .cls-25 {
        stroke-width: .399612px;
      }

      .cls-26 {
        stroke-width: .264659px;
      }

      .cls-28 {
        stroke-width: .445174px;
      }

      .cls-29 {
        stroke-width: .572676px;
      }

      .cls-30 {
        stroke-width: .131426px;
      }

      .cls-31 {
        stroke-width: .205735px;
      }

      .cls-32 {
        stroke-width: .148394px;
      }

      .cls-33, .cls-36 {
        fill: none;
      }

      .cls-33, .cls-40 {
        stroke-width: .369237px;
      }

      .cls-34 {
        stroke-width: .165056px;
      }

      .cls-35 {
        stroke-width: .510114px;
      }

      .cls-36, .cls-38 {
        stroke-width: .47499px;
      }

      .cls-37 {
        stroke-width: .139766px;
      }

      .cls-38, .cls-39, .cls-40, .cls-41 {
        fill: #054f88;
      }

      .cls-42, .cls-43 {
        fill: #1c3664;
      }

      .cls-44, .cls-45 {
        fill: #3396b4;
      }

      .cls-46 {
        stroke-width: .369179px;
      }

      .cls-46, .cls-47 {
        fill: #0b243d;
      }

      .cls-47 {
        stroke-width: .474916px;
      }

      .cls-48 {
        stroke-width: .115355px;
      }

      .cls-49 {
        stroke-width: .102165px;
      }

      .cls-50 {
        stroke-width: .222716px;
      }

      .cls-50, .cls-52, .cls-54, .cls-55 {
        fill: #154373;
      }

      .cls-51 {
        stroke-width: .058811px;
      }

      .cls-52 {
        stroke-width: .286504px;
      }

      .cls-53 {
        stroke-width: .108648px;
      }

      .cls-54 {
        stroke-width: .623186px;
      }

      .cls-55 {
        stroke-width: .484439px;
      }

      .cls-56 {
        stroke-width: .075655px;
      }
    </style>
  </defs>
  <g id="cabsWiggle">
    <g id="back">
      <path id="wheel" class="cls-28" d="M50.182276,305.791852c3.705355-.646463,9.233384-.745043,12.974917-.118056,7.885234,1.321448,11.639544,4.508206,12.277728,12.737751.422075,5.443279-.369866,12.729616-1.800756,18.016459-2.163395,7.993241-6.001499,11.345288-14.084849,12.511114-3.835615.553195-9.195053.281766-12.903471-.501608-7.815319-1.650972-11.647153-5.184722-12.142779-13.299943-.327802-5.367525.315695-12.0821,1.632644-17.287495,1.991072-7.869968,6.237707-10.695858,14.046566-12.058221Z"/>
      <path id="wheel-2" data-name="wheel" class="cls-28" d="M226.485939,298.974534c4.042776-.608036,8.932763-.409537,12.997887.795481,8.567061,2.53953,11.350217,8.070047,11.418266,17.014917.045031,5.916414-.522951,14.517595-1.676861,20.151429-1.744623,8.517819-5.358768,11.171482-13.585442,11.969691-3.903616.378766-9.127339-.208692-12.924096-1.33499-8.001472-2.373667-11.462148-6.17253-11.384864-14.883393.051108-5.761605.775-14.058433,1.788649-19.70203,1.532533-8.532367,4.84644-12.72976,13.366461-14.011105Z"/>
      <path class="cls-46" d="M23.022399,76.94311c64.445955-9.013494,128.92091-22.32832,193.069786-32.856544,8.18839-1.343891,10.202959,2.226563,12.794507,9.396041,2.911836,8.055403,2.699267,18.756956,4.721971,27.406709-72.555099,8.602473-144.081667,24.759747-216.25374,36.137289-.805866-8.732063-4.097473-18.636603-3.747467-27.126714.311531-7.556236,1.188604-11.806268,9.414943-12.95678Z"/>
      <path class="cls-40" d="M36.072064,319.910917c-.597652,7.19953,1.481472,8.669948,8.273092,8.991911,65.62183,3.111149,129.5969-3.4412,196.137197,1.193772,6.874456.478878,9.379818-8.439195,10.247799-14.756436,8.97253-65.304269-6.401369-162.982138-15.061363-220.336761-8.659994-57.354624-3.093539-20.995674-3.094687-20.991846-.887218,3.006779-2.10152-12.574473-8.911325-16.433201-11.0852-6.281398-15.659685-12.194988-30.632852-9.418054-47.960689,8.894911-98.663331,18.815578-146.918515,25.667829-15.08864,2.142627-17.61233,8.49796-26.170586,18.351152-5.222479,6.012744-2.451239,12.668985-3.588687,19.633838-.004307.026511.180171.047184.130738.058095s.06245.00268-.0368.09078c13.07065,72.316668,25.804724,133.513834,19.625989,207.94892Z"/>
      <path class="cls-3" d="M28.519801,134.225138c1.661117,17.466422,6.69328,36.040001,9.436382,53.717126.027612.177779.012011.504958.102265.620143,3.941133,5.031445,5.220996,10.41012,13.023585,9.386087,58.376408-7.661611,117.31362-14.238605,175.633369-23.044459,7.79522-1.176976,8.163363-7.55614,10.071073-13.82189.043691-.143467-.050678-.483663-.07695-.677329-2.613943-19.253013-4.101828-40.387178-8.092586-58.915965-1.814729-8.425604-4.56233-12.051091-12.764981-11.248096-60.010344,5.874685-119.369726,21.449811-178.894828,30.726599-8.136373,1.267994-9.19266,5.315364-8.437328,13.257784Z"/>
      <path class="cls-44" d="M41.993024,147.959742c59.357612-8.067271,118.976843-18.815721,178.183139-28.426101,8.086987-1.312642,8.014297-6.823013,9.452652-13.524715.286838-1.336378-.110448-4.000664-.754518-5.211329-3.229828-6.071366-4.775377-11.359022-12.960513-10.506882-59.924589,6.238904-119.473474,21.802545-178.918611,30.740381-8.119624,1.22081-9.218772,5.49782-8.566212,12.83912.115519,1.299592.258421,3.291039.463768,4.614812.968874,6.245889,4.992635,10.576653,13.100295,9.474713Z"/>
      <g id="seates">
        <path class="cls-55" d="M162.012659,167.245201c.489166,5.818791.853146,13.354497,2.108459,18.887503,1.255265,5.533005,3.276916,8.135129,8.9509,7.805413,8.559596-.497445,17.665305-1.900963,26.061383-3.859446,5.565546-1.298238,7.116981-4.470114,7.19953-10.2645.082596-5.794337-1.097777-13.436184-1.888568-19.301011-.547309-4.059094-2.292076-5.572342-5.394994-7.721476-1.227079-.849892-3.17135-1.013888-4.418623-1.738928-3.153883-1.833345-4.532899-3.912756-5.593015-7.324238-.147152-.473518-.103652-1.432996-.259944-1.843155-1.626806-4.269988-3.983963-8.216433-9.114705-7.256907-.066757-.42887-.063598-.404895,0,0-5.130742.959574-6.337962,5.442082-6.894938,10.064373-.053501.44404.233864,1.345614.204816,1.847462-.209602,3.615485-1.053129,6.106012-3.627784,8.76891-1.018195,1.053129-2.888196,1.856171-3.855235,3.001515-2.445018,2.895901-3.815803,4.907359-3.477282,8.934486Z"/>
        <path class="cls-55" d="M68.19974,179.39334c.787633,5.48874,1.436537,12.529538,2.804786,17.804034,1.368201,5.274497,3.403874,7.763732,8.906826,7.609019,8.301422-.233433,17.253184-1.171616,25.453586-2.693573,5.435813-1.008911,6.952028-3.963098,6.973993-9.522902.021917-5.559804-1.328865-12.692433-2.261975-18.298034-.645841-3.879736-2.51455-5.333932-5.583396-7.337015-1.213632-.792179-3.220735-1.039873-4.467626-1.709306-3.152974-1.692701-4.636934-3.692387-5.816877-6.979305-.163805-.456243-.20874-1.314317-.342493-1.71414-1.391841-4.161646-4.447336-7.556188-9.067378-7.079464-2.327871.240228-.197112-.621866,0,0-4.62009.476772-7.294569,4.702686-6.825166,9.135666.045079.425855.200079,1.257945.19783,1.730027-.016462,3.40105-.754279,5.63905-3.227004,8.082441-.977902.966273-2.780285,1.636472-3.694205,2.702522-2.31093,2.695487-3.596008,4.471167-3.050901,8.27003Z"/>
      </g>
      <path class="cls-21" d="M30.144932,189.567344c.455285,3.430528,1.338962,7.106501,1.884501,10.570193.049577.314929.097336.561857.266453.805914,2.305858,3.327163,4.124989,8.397038,6.592259,11.330026,3.491255,4.150209,5.005747,6.746302,10.880097,6.028776,61.007052-7.451722,122.549881-14.95192,183.683364-22.146426,4.993209-.587602,6.359018-3.478191,8.220549-8.171546,1.669539-4.209261,2.354812-10.796161,3.594286-15.519615.080443-.30665.075801-.6122.039671-.938183-.416428-3.757229-.731309-7.872744-1.31872-11.529144-.270759-1.685379-1.000776-1.858564-2.436787-1.690787-.819456.095804-1.706148.812326-2.400178,1.095193-.693982.282819-.969671.533192-1.56115.926124-.591479.392979-.533192,1.145679-.781699,1.799655-2.222304,5.847695-2.690175,11.672276-10.083276,12.787424-58.315059,8.796044-117.309313,15.348919-175.644662,23.06226-7.391234.97728-8.676647-3.948551-12.752443-8.482311-.462272-.514242-.543002-1.200951-1.256318-1.370929-.713363-.169978-1.028197-.316699-1.829947-.373455-.80175-.056707-2.034428-.44672-2.913367-.309761-1.354706.211133-2.390655.558695-2.182632,2.126592Z"/>
      <path class="cls-42" d="M21.929583,89.968122c-2.064489,2.029947-.459392,3.886623.95822,5.890781.654359.924996,2.241337,1.636438,3.121722,2.446892.080707.074354.10866.156801.173978.239532,2.506187,3.173769,2.808166,6.966273,5.823298,9.973076,3.015132,3.006709,3.87994,5.555249,9.340224,4.667335,55.066227-8.954714,110.898296-21.25534,165.994876-30.131183,5.547531-.893749,5.852758-3.64135,7.920917-7.442607s1.415824-7.193005,3.134522-10.907108c.235767-.509557.292803-.776572.735912-1.406036.443204-.62937,1.847357-1.999547,2.138937-2.807931.747771-2.072489,2.213761-5.058398-.652712-6.015206-10.941461-3.651797-14.901214-8.587652-27.970882-6.167113-48.494169,8.981256-101.025832,18.582564-149.603955,26.577552-13.142987,2.163031-13.122751,7.223311-21.115057,15.082015Z"/>
      <path id="stering_wheek" data-name="stering wheek" class="cls-27" d="M162.689696,183.640918c1.014402.195011,1.952628-.160741,2.942604-.22911-.234808-5.248539.457265-9.750626,2.520791-14.593229,1.07735.961094,2.232914,1.860022,3.268262,2.854116,1.035397.994141,1.753685,1.831694,2.563733,3.09898s1.682771,2.905019,2.479725,4.257656c-.055785.960733-.043726,1.880675.063738,2.828773,5.610898-.806276,11.228133-1.568626,16.844637-2.335218-.191523-.938727-.474458-1.816579-.834646-2.712854.332015-1.511959.614441-3.318585.95631-4.761384s.734066-2.438006,1.396283-3.694764c.662216-1.256806,1.498682-2.468365,2.202421-3.716895,3.668901,4.007714,5.951917,8.146593,7.317339,13.41303,1.008349-.215175,2.033482-.143798,2.996696-.615984-5.733003-12.842601-10.785745-21.952951-26.573351-19.590731-15.787606,2.36222-17.339505,11.716817-18.144542,25.797612ZM169.409534,166.890282c3.637515-3.294169,6.967172-6.111701,12.000428-6.852127,5.033257-.740378,9.266665,1.054476,13.774992,3.121737-.874597,1.122297-1.759044,2.367056-2.660543,3.408612s-1.559649,1.65417-2.725838,2.464082c-1.166142.809863-2.712628,1.701658-3.955322,2.522472-.814123.009362-1.603209-.048885-2.403765.060753s-1.540773.381692-2.324832.601393c-1.465689-.421036-3.244215-.849942-4.62733-1.297305-1.383163-.44741-2.229664-.855605-3.430957-1.586062-1.201342-.730504-2.431769-1.646097-3.646833-2.443556Z"/>
      <g id="r_light" data-name="r light">
        <path class="cls-10" d="M36.946092,307.193944c1.534978.273697,3.303464,1.51719,4.806395,1.593332,7.671456.388709,12.560487-.450639,17.50246-6.859637,3.088215-4.004929,5.820993-9.9567,7.516725-14.725589,1.945523-5.471484-.190402-8.098895-4.037494-11.639067-.128472-.118213-.321085-.090918-.529699-.150872-8.179743-2.350703-16.414262-4.6951-24.671041-6.841754.43238,12.883408.095201,25.736415-.587346,38.623588Z"/>
        <path class="cls-27" d="M36.928398,307.371169c1.43013.254308,3.077862,1.413848,4.47764,1.484813,7.144863.361697,11.692715-.434639,16.324473-6.371256,2.894284-3.70968,5.48706-9.244693,7.080486-13.670615,1.828204-5.07788-.150448-7.503972-3.707986-10.800001-.11873-.10993-.297791-.084142-.491957-.140331-7.61202-2.202937-15.266064-4.43938-22.945614-6.469798.293226,11.998694-.071154,23.969529-.737042,35.967188Z"/>
        <path class="cls-27" d="M36.735369,307.051928c1.43013.254308,3.077862,1.413848,4.47764,1.484813,7.144863.361697,11.692715-.434639,16.324473-6.371256,2.894284-3.70968,5.48706-9.244693,7.080486-13.670615,1.828204-5.07788-.150448-7.503972-3.707986-10.800001-.11873-.10993-.297791-.084142-.491957-.140331-7.61202-2.202937-15.266064-4.43938-22.945614-6.469798.293226,11.998694-.071154,23.969529-.737042,35.967188Z"/>
        <path class="cls-19" d="M37.968737,287.564218c4.655241.971303,9.70898,3.373583,14.272738,4.011706,6.086595.851019,9.728708-1.412218,10.599152-6.704341.247203-1.502942-1.674415-4.808701-5.567249-6.009465-6.215208-1.917099-13.123504-3.847752-19.487325-5.75751.093083,4.827807.140754,9.609685.182684,14.45961Z"/>
        <path class="cls-31" d="M37.544545,298.918388c2.950332.730359,6.15996,2.335362,9.067656,2.805107,3.878199.626453,6.598082-.58695,7.04698-4.042012.118176-.909572-1.043492-2.963038-3.401112-3.889164-3.850622-1.512672-8.333109-2.625058-12.356909-3.942623-.132707,3.027603-.268285,6.026124-.356615,9.068692Z"/>
        <path class="cls-48" d="M37.023458,306.007298c1.642979.449322,3.420265,1.382695,5.045927,1.675497,2.168254.390403,3.114308-.41243,4.025447-2.171031.280502-.704452-.530922-1.678885-1.834275-2.220067-2.128819-.883773-4.631711-1.575261-6.862037-2.358327-.147578,1.69178-.271532,3.371136-.375062,5.073927Z"/>
        <path class="cls-13" d="M47.60468,288.456084c1.467495.728948,3.634903,1.356906,5.294682,1.60312,2.807621.416514,4.471463-.429104,6.196295-2.232237.515853-.539271.930736-1.606872.911111-2.352883-.062386-2.371535-.700797-3.898661-3.221207-5.126966-1.499119-.730548-3.650762-1.3794-5.316847-1.591732-2.755087-.351077-4.343451.514906-5.987764,2.252018-.575308.607777-1.034802,1.813184-.998881,2.649296.094255,2.193904.728361,3.609978,3.122611,4.799384Z"/>
        <path class="cls-11" d="M45.068846,299.464934c.77596.389839,1.91757.76923,2.792683.915773,1.675309.280473,2.747187-.262962,3.711327-1.472201.055078-.069079.106137-.202633.131295-.283861.457615-1.477499-.070589-2.478234-1.547025-3.264123-.77116-.410451-1.911264-.784478-2.790848-.90589-1.684203-.232379-3.076373.067649-3.712786,1.55192-.604125,1.408969-.070495,2.712118,1.415354,3.458383Z"/>
        <path class="cls-51" d="M41.575686,306.339066c.531487.273414.6937.332709,1.287117.462216s1.270422.010565,1.625944-.619958c.01788-.03171.056377-.09073.063201-.12546.124754-.636241-.071577-1.150504-.602452-1.426177-.530922-.275767-.689888-.333932-1.283729-.458639s-1.138435-.195244-1.624438.629558c-.018424.031268-.056659.090448-.06353.125083-.125742.633888.066448,1.140057.597888,1.413377Z"/>
      </g>
      <g id="l_light" data-name="l light">
        <path class="cls-10" d="M251.497543,302.183545c-1.696338.359481-3.498434,1.956043-5.190273,2.045052-8.636067.454376-12.634817-1.645182-16.402096-9.92081-2.354143-5.171323-5.075614-12.781921-6.915419-18.356416-2.110851-6.395722-.383026-10.049538,3.536813-14.943546.130881-.163422.303396-.167059.506968-.278368,7.975965-4.361246,16.035915-8.643628,24.150083-12.777758,1.270244,18.100826,1.384854,36.094698.313924,54.231846Z"/>
        <path class="cls-27" d="M251.480794,302.436407c-1.58211.330864-3.261124,1.820663-4.839741,1.902542-8.057796.417816-11.792965-1.516837-15.278047-9.279563-2.1778-4.850795-4.679237-12.04286-6.36098-17.279217-1.929484-6.007815-.315886-9.422552,3.401289-13.977129.124134-.152081.28301-.149736.474379-.25291,7.500533-4.045456,15.065335-8.05057,22.59951-12.064968.895401,17.025206.98709,33.903308.003589,50.951245Z"/>
        <path class="cls-19" d="M252.366193,273.688965c-4.912671,1.890291-9.708912,5.638907-14.726096,6.906327-6.691366,1.690404-8.667842-2.503256-10.602494-8.008315.036896.250182.069341.575065-.003398.847738,1.001494-3.914479,1.433044-6.862253,5.189268-9.169211,6.13506-3.767901,13.05402-6.974328,19.392844-10.561148.376039,6.669975.670677,13.273001.749876,19.984609Z"/>
        <path class="cls-31" d="M252.149414,290.185381c-3.195085,1.129408-6.34246,3.382243-9.613395,4.082638-4.362538.934211-5.552338-1.951975-6.512726-5.591053.008279.168495.019046.386184-.04058.564393.786198-2.488565,1.106056-4.450781,3.602373-5.840038,4.077039-2.26901,8.639704-4.15619,12.803695-6.380887.008087,4.399003-.058574,8.749817-.239367,13.164946Z"/>
        <path class="cls-48" d="M251.626079,300.518121c-1.819898.583535-3.590409,1.819419-5.446437,2.180049-2.47531.480935-3.090189-1.209851-3.555811-3.277012.001101.09657.00445.222522-.029383.323208.454711-1.40481.691877-2.532113,2.124586-3.266388,2.340026-1.19918,4.923438-2.159519,7.304762-3.332427-.096283,2.464686-.230705,4.900994-.397717,7.372571Z"/>
        <path class="cls-13" d="M242.680443,275.806898c-1.606946,1.150129-3.696215,2.214552-5.536116,2.738364-3.522744,1.002882-5.147922-.686756-6.930924-3.492308-.097383-.153277-.214004-.510031-.234534-.701878-.375943-3.511929-.060727-6.098738,2.941458-8.304963,1.567993-1.152283,3.597396-2.266091,5.425429-2.878864,3.500061-1.173243,5.23071.539365,7.072764,3.351521.100638.153612.224436.524818.245875.719632.39274,3.566243.092694,6.366483-2.983952,8.568497Z"/>
        <path class="cls-11" d="M244.536231,291.058673c-.888558.572193-1.979204,1.046429-2.965864,1.299482-1.889191.484572-2.71683-.473183-3.581221-2.014664-.047232-.084271-.100446-.281287-.104657-.383408-.076519-1.870479.127675-3.316061,1.775919-4.41781.860946-.575447,1.944989-1.092752,2.928585-1.381696,1.883304-.553243,2.74784.42485,3.614911,1.983607.047424.085228.105997.28947.112792.394176.124947,1.915606-.079247,3.424738-1.780466,4.520313Z"/>
        <path class="cls-51" d="M246.97766,300.842908c-.39475.248172-.88339.458827-1.324989.560421-.845346.194432-1.19382-.256882-1.550334-.954118-.019477-.038092-.04125-.128728-.042303-.174907-.019525-.842905.089822-1.489416.844484-1.961977.394128-.246784.886309-.460119,1.328243-.568365.846446-.207305,1.201046.241425,1.554402.945887.019285.038523.04058.129781.041585.176056.018041.847403-.095469,1.501954-.851088,1.977003Z"/>
      </g>
      <g id="r_mirror" data-name="r mirror">
        <path class="cls-41" d="M12.188051,189.127566c1.096628.191465,2.75028-.019572,3.754932-.480744,3.408324-1.564499,5.42854-2.718601,4.826485-6.986291-1.370307-9.713745-3.323574-20.352704-5.308808-29.95538-.872192-4.218879-3.0799-4.800069-6.805833-5.444666-1.098207-.189981-2.687591.039719-3.680088.525918-3.366978,1.649345-5.255259,2.879439-4.69101,7.116646,1.284217,9.6445,3.056547,20.202681,5.003211,29.751233.855251,4.195096,3.181016,4.823901,6.901111,5.473283Z"/>
        <path class="cls-5" d="M4.892477,146.682943c2.827995-7.568247,8.382009-9.695273,15.812483-11.524072.144137.800028.288609,1.600007.432603,2.400035-5.834631,1.272971-10.272826,2.56561-12.42823,8.57936-1.272301.181272-2.54465.362783-3.816856.544677Z"/>
        <path class="cls-5" d="M11.952751,189.268689c5.279713,6.554837,11.368211,7.068023,19.368965,7.001123-.154043-.821227-.307942-1.642263-.462176-2.463442-6.199998.303061-10.9135.090448-15.006427-5.038811-1.300105.167251-2.600257.334071-3.900362.50113Z"/>
      </g>
      <g id="l_mirror" data-name="l mirror">
        <path class="cls-41" d="M262.129372,155.561439c-1.019631.542907-2.611263.865157-3.752731.666275-3.872175-.674841-5.967044-1.257084-6.664902-5.765864-1.588474-10.262825-3.095022-21.931416-4.19567-32.257983-.483567-4.536919,1.372652-5.68322,4.913532-7.412481,1.043797-.509744,2.625811-.664409,3.757182-.415854,3.838534.843288,6.018535,1.538945,6.761424,5.982022,1.690882,10.112897,3.217146,21.46278,4.196723,31.671146.430353,4.484901-1.556316,5.690733-5.015557,7.532739Z"/>
        <path class="cls-5" d="M256.23143,110.243167c-4.955404-6.835311-11.172151-7.987977-19.259378-8.021953.124469.875877.250278,1.751466.375034,2.627342,6.349447-.18778,11.111855.381111,14.993888,5.825203,1.29685-.143467,2.593605-.287126,3.890456-.430593Z"/>
        <path class="cls-5" d="M262.394293,155.638245c-3.036449,7.96472-8.925729,10.987099-16.730041,13.469587-.09724-.896693-.195963-1.793147-.295356-2.689601,6.207033-1.691552,10.765007-3.781539,13.135995-10.085812,1.296372-.231519,2.592935-.463086,3.889403-.694174Z"/>
      </g>
      <path class="cls-33" d="M232.736423,75.52581c.008853-.001005.017802-.002297.026607-.003637"/>
      <g id="r_intake" data-name="r intake">
        <path class="cls-22" d="M35.160806,230.401172c.713183,10.610352,1.389142,21.212987,2.103689,31.826634.002494.037271.178213.08386.214072.091483,4.660041.987115,11.584243,2.950332,15.491948,4.378392,3.907705,1.427966,5.926923-.559723,5.430495-3.341582-2.953814-16.552993-7.912964-25.692838-23.147875-33.028244-.046259-.022306-.094871.035953-.09233.073318Z"/>
        <path class="cls-34" d="M35.60641,236.774123c.417698,6.617564.83036,13.232776,1.271823,19.849775.001553.023341.043106.037365.069365.042824,3.409583.706642,7.154604,1.998982,10.348421,2.987415,1.953053.604523,3.270099-.717371,2.924026-2.364256-2.059124-9.799239-5.412001-16.105554-14.563564-20.558393-.027765-.013553-.051577.019388-.050071.042636Z"/>
      </g>
      <g id="l_intake" data-name="l intake">
        <path class="cls-22" d="M248.1822,205.778217c.969001,11.59681,1.96279,23.19252,3.102727,34.775452.00402.04082-.116621.108725-.154139.120976-4.874196,1.59436-11.20163,5.363123-15.128407,7.609976-3.926825,2.246901-5.760265-.051156-5.733084-3.219635.1617-18.853382,1.591154-28.287132,17.820927-39.343955.049194-.033546.088578.01627.091976.057186Z"/>
        <path class="cls-34" d="M248.849862,212.192076c.658953,7.217045,1.230094,14.444761,1.904025,21.660226.002345.025411-.025363.043547-.051252.052592-3.36358,1.177646-6.707301,3.211834-9.800888,4.730824-1.891679.928899-3.371572-.471604-3.321564-2.211489.297462-10.352552,2.342897-18.30636,11.216991-24.268283.026942-.018089.050343.010672.052688.03613Z"/>
      </g>
      <g id="lamps">
        <path class="cls-50" d="M60.379062,316.739136c-3.655778-.334884-8.863805-.400062-12.523795-.17462-3.308787.203763-5.604835,1.654226-5.95843,4.866874-.355126-.004546-.334501-.00445,0,0-.353547,3.212648,1.585507,4.721397,4.846488,5.016084,3.607015.325983,8.781544.463086,12.46302.359433,3.32836-.093746,5.799984-1.583258,6.144774-4.874626.360821.003158.339095.002153,0,0,.34479-3.291416-1.667003-4.89037-4.972058-5.193144Z"/>
        <path class="cls-9" d="M58.386076,318.103078c-2.461384-.240181-6.415438-.309713-8.887111-.145142-2.471673.164523-4.112595,1.157403-4.374502,3.524897-.272578-.001866-.256307-.001818,0,0-.261906,2.367494,1.120029,3.397413,3.556194,3.6185,2.436165.221039,6.377824.336368,8.861173.225729,2.483301-.110639,4.185286-1.095145,4.448341-3.505995.273535.004929.257025.003972,0,0,.263055-2.41085-1.142664-3.477808-3.604096-3.717989Z"/>
        <path class="cls-50" d="M241.570942,314.239421c-3.867677-.722504-8.50576-1.131514-12.396598-1.20363-3.51748-.065225-5.411982,2.117073-5.716622,5.413418-.291959-.034503-.272243-.030675,0,0-.304688,3.296393,1.115052,5.800319,4.510934,6.671793,3.756272.964024,8.488341,1.396579,12.392148,1.340829,3.529204-.050391,5.565498-2.106401,5.916414-5.493717.284829.028186.26406.026559,0,0,.350963-3.387268-1.209612-6.075481-4.706275-6.728692Z"/>
        <path class="cls-9" d="M239.573075,315.835648c-2.62739-.504527-6.131519-.855347-8.783841-.88181-2.652322-.026416-3.925437,1.488555-4.195957,3.935343-.220752-.032015-.205103-.030579,0,0-.27052,2.446788.722121,4.219597,3.296824,4.820503,2.574751.600858,6.124388,1.037433,8.780443.988478,2.656007-.048955,4.065076-1.493627,4.329566-3.999755.22324.020769.207113.019237,0,0,.264491-2.506128-.799645-4.358231-3.427035-4.862759Z"/>
        <path class="cls-53" d="M203.42387,85.03158c-1.717442.123655-4.285493.635265-5.955271,1.117301-1.669827.482036-2.505218,1.522148-2.24068,3.167569-.16993.043212-.15902.040341,0,0,.264586,1.645373,1.353558,2.227377,3.054394,1.952502,1.700884-.274827,4.253957-.818356,5.946945-1.16774,1.69294-.349432,2.504501-1.31805,2.245705-2.948923.170983-.021104.160168-.020147,0,0-.258796-1.630873-1.333698-2.244365-3.051092-2.120709Z"/>
        <path class="cls-53" d="M127.516243,98.030857c-1.738928.163087-4.401348.64809-6.088785,1.095384-1.687485.447294-2.570874,1.417156-2.303656,3.074923-.179118.032972-.167873.030722,0,0,.26717,1.657767,1.397297,2.269201,3.129764,2.109177,1.732468-.160073,4.390389-.632538,6.079405-1.076051,1.688968-.443513,2.568769-1.416055,2.306815-3.079326.178449-.030914.167251-.029048,0,0-.261954-1.663318-1.384615-2.287242-3.123543-2.124107Z"/>
        <path class="cls-53" d="M52.880347,111.883085c-1.685379.086042-4.237208.470072-5.872244.853146-1.635084.383073-2.451287,1.290486-2.21302,2.885086-.170122.021534-.159355.01986,0,0,.238266,1.594552,1.336282,2.303178,3.017211,2.198808,1.680977-.104418,4.205959-.489501,5.847695-.84769,1.641736-.358141,2.530246-1.30422,2.284993-2.917483.177204-.018711.166054-.01718,0,0-.245253-1.613311-1.379256-2.257908-3.064635-2.171866Z"/>
      </g>
      <path class="cls-18" d="M126.140483,325.455646c13.512225-.670677,27.702545-1.967911,41.157727-3.315152,3.916536-.392166,4.401396-2.549771,5.432081-5.76907.223958-.699629.188594-1.887037-.074461-2.558576-1.210569-3.090332-1.853108-5.230231-5.785676-4.989094-13.510454.828597-27.71781,2.116211-41.207878,3.385019-3.926729.369339-4.590707,2.432528-5.621871,5.711837-.224102.712598-.180506,1.860526.092359,2.544172,1.255552,3.145604,2.074578,5.18611,6.00772,4.990864Z"/>
      <g id="lower_gril" data-name="lower gril">
        <path class="cls-18" d="M75.622223,307.357452c1.374949,2.077736,1.664945,3.495227,4.61071,3.470439,43.255036-.363692,86.460925-8.168435,129.79851-6.605084,2.951316.106476,3.337739-1.65638,4.68498-3.787569.389582-.616171.207018-1.30422.187397-2.201535-.029957-1.367962-.233959-2.901117-.386567-4.462362-.152655-1.561293-.314785-3.067745-.512184-4.852613-.197447-1.784868-.503283-4.419102-.720398-6.265989-.217115-1.846935-.350293-3.20346-.614257-5.031014-.264012-1.827554-.602294-3.97889-.913442-5.832717-.042399-.25291.005886-.476389-.112314-.638089-1.427205-1.95298-1.98466-3.775031-4.848402-3.494797-40.951332,4.006789-82.14002,8.185041-123.191798,10.674515-2.882741.174812-3.037932,1.785969-4.542422,3.707461-.124612.159163-.032924.340674-.063598.561905-.224724,1.621781-.432124,3.502597-.64809,5.085664s-.352112,2.71013-.573103,4.306357c-.220991,1.596179-.600571,3.887537-.839459,5.433134-.238888,1.545645-.459544,2.845654-.662638,4.200408-.203046,1.354706-.560038,2.6361-.677186,3.838534-.076854.788782-.373359,1.292496.024262,1.893354Z"/>
        <g id="upper_gril" data-name="upper gril">
          <path class="cls-25" d="M61.147601,233.047776c-.056085.156148.08542.328807.117817.526205.283919,1.728496.684077,3.661712,1.004892,5.359629.320815,1.697965.586406,3.058797.903201,4.764083.316747,1.705287.753083,3.999898,1.071313,5.645654.318231,1.645708.597365,3.141345.876403,4.619563.27899,1.478218.765955,4.214764.987568,5.179506.221613.964694.084271,1.261917.264491,1.521335,1.808556,2.603798,2.206512,4.567928,5.829463,4.246874,47.742138-4.230412,95.77815-8.335782,143.369117-14.378578,3.611513-.45854,4.072733-3.0431,5.191852-6.13683.111596-.308469-.021726-.619808.037183-1.712465s.132652-4.235916.175051-5.885883.100063-3.361905.164714-5.153425c.064603-1.79152.150932-4.207538.233625-6.018535s.148013-3.172068.228073-4.96732.192805-3.86873.234964-5.694848c.004785-.208549.109873-.423319.037422-.57205-1.474964-3.027691-1.988919-5.998532-6.162672-5.49209-49.713973,6.032412-99.703396,11.670554-149.408994,17.600797-4.161072.496488-4.014829,3.370663-5.155483,6.548377Z"/>
          <path class="cls-2" d="M63.15638,243.596913c.363453,1.970782.740497,3.938741,1.119407,5.906604,52.33141-5.665322,104.74532-10.17975,156.85952-17.713303.077045-2.09549.148444-4.191268.244679-6.285992-52.669117,6.76865-105.459162,12.164122-158.223606,18.092691Z"/>
          <path class="cls-2" d="M61.170906,233.060123c.028043.189311.03747.291145.07537.497014.331917,1.803149.687474,3.641901,1.039107,5.454572,53.183455-5.514151,106.231913-11.866134,159.313582-18.267646.090253-1.929771.180506-3.886005.253293-5.803478.008327-.218885.003063-.331008.00402-.532092-53.541548,6.480998-107.070176,12.806374-160.685372,18.651629Z"/>
          <path class="cls-2" d="M65.125391,253.988514c.361922,1.932164.734037,3.86227,1.102562,5.793189,51.550045-5.149118,103.132584-10.000057,154.549643-16.377786.072356-2.197468.136863-4.395175.197734-6.592977-51.816354,6.859478-103.858772,11.862353-155.849939,17.177574Z"/>
        </g>
        <path class="cls-2" d="M78.336278,287.786256c44.863609-2.142387,89.531972-7.293707,134.358303-10.055759-.306219-1.980927-.617655-4.000999-.92732-5.962737-.042255-.267649-.080204-.382978-.131456-.623493-44.135458,3.939793-88.290298,8.753454-132.559892,10.891151-.037374.211085-.066709.317657-.093699.55152-.198021,1.713805-.419778,3.473406-.645937,5.199318Z"/>
        <path class="cls-2" d="M75.560252,307.405833c46.527597-.409489,92.595267-9.136718,139.198713-6.884984.10906-.818212.228217-1.332789.169596-2.228477-.089392-1.365426-.252431-2.992614-.394702-4.414843-46.256311-.094512-92.075235,6.996532-138.280055,7.839533-.198452,1.224016-.487874,2.619207-.689532,3.786708-.132269.765764-.046275,1.19339-.00402,1.902063Z"/>
        <path class="cls-2" d="M76.907445,297.608534c45.820168-1.031355,91.267216-7.998122,137.124853-8.4781-.253675-2.207278-.507829-4.414556-.762127-6.621738-45.315592.949381-90.209158,7.716021-135.473833,9.354407-.275928,1.918334-.58521,3.831356-.888893,5.74543Z"/>
      </g>
      <path id="logo" class="cls-49" d="M140.214278,271.099092c2.702378-.085085,5.628427-.407096,8.314439-.77835,1.143669-.15811,1.426344-.784953,1.559714-1.831813.07896-.619904.022061-1.471901-.151124-2.067448-.29239-1.005514-.656417-1.503581-1.79822-1.37715-2.681896.296984-5.616607.6055-8.299652.840752-1.142377.100207-1.397297.650914-1.541769,1.673559-.085563.605691-.026416,1.438212.142558,2.026245.285259.992832.623445,1.55043,1.774053,1.514205Z"/>
    </g>
    <g id="front">
      <path id="wheel-3" data-name="wheel" class="cls-29" d="M450.704729,337.256439c-4.766602-.831616-11.877906-.95843-16.691047-.151869-10.143633,1.699922-14.973211,5.799396-15.794177,16.385955-.54296,7.002281.475798,16.375489,2.316508,23.17653,2.783011,10.282575,7.72038,14.594678,18.118872,16.094406,4.934168.711635,11.828596.362466,16.599137-.645273,10.053694-2.123825,14.982999-6.669672,15.620577-17.109163.421687-6.904831-.406112-15.542519-2.100247-22.238785-2.561333-10.123996-8.024241-13.759245-18.069624-15.511801Z"/>
      <path id="wheel-4" data-name="wheel" class="cls-29" d="M223.90616,328.486581c-5.200662-.782183-11.491185-.526832-16.720595,1.023314-11.020742,3.266873-14.601018,10.381379-14.688557,21.888138-.057928,7.610926.672729,18.675561,2.157129,25.922974,2.244298,10.957397,6.893566,14.371091,17.476431,15.397914,5.021645.487248,11.741488-.268464,16.62567-1.717343,10.293163-3.053506,14.745007-7.940396,14.645588-19.146126-.065746-7.411779-.996966-18.084891-2.300933-25.344863-1.971463-10.976111-6.234503-16.375674-17.194732-18.024008Z"/>
      <path class="cls-47" d="M485.643431,42.863422C402.739593,31.268385,319.798449,14.140077,237.276775.596477c-10.533617-1.728793-13.125176,2.86427-16.458965,12.087148-3.745811,10.362541-3.472361,24.129112-6.074385,35.25623,93.335512,11.066297,185.347912,31.851154,278.190696,46.487323,1.036673-11.233002,5.271025-23.974288,4.820774-34.896042-.400757-9.720407-1.529031-15.187686-12.111465-16.667715Z"/>
      <path class="cls-38" d="M468.856228,355.419326c.768825,9.261538-1.905779,11.153097-10.642578,11.567273-84.416494,4.002209-166.714581-4.42679-252.312599,1.535679-8.84336.616032-12.06628-10.856254-13.182857-18.982807-11.542341-84.007981,8.234777-209.661642,19.375069-283.44313s3.979555-27.009018,3.981033-27.004093c1.141325,3.867947,2.703413-16.175911,11.463606-21.139813,14.260098-8.080445,20.144755-15.687739,39.406368-12.115466,61.697048,11.442491,126.921369,24.204523,188.997258,33.019319,19.410158,2.756294,22.656655,10.931849,33.66607,23.607082,6.718243,7.734847,3.153295,16.297493,4.616518,25.25714.00554.034104-.231774.060698-.168182.074734s-.080336.003447.04734.11678c-16.836267,93.150893-33.194335,171.766452-25.247044,267.507303Z"/>
      <path class="cls-1" d="M478.571526,116.551523c-2.136876,22.468958-8.610293,46.362171-12.139044,69.102179-.03552.228696-.015452.649583-.131554.797758-5.069908,6.472495-6.716334,13.391669-16.753653,12.074344-75.09592-9.855963-150.913263-18.316665-225.936296-29.644592-10.027839-1.514072-10.501421-9.720284-12.955516-17.780599-.056204-.184557.065192-.622188.098989-.871322,3.362599-24.767244,5.276627-51.954417,10.410373-75.790011,2.334484-10.83877,5.86902-15.502628,16.420982-14.469649,77.197829,7.557246,153.558256,27.593224,230.131866,39.526965,10.466701,1.631159,11.825518,6.837731,10.853853,17.054929Z"/>
      <path class="cls-45" d="M461.239454,134.219837c-76.358149-10.377808-153.052847-24.204708-229.216343-36.567584-10.403171-1.688595-14.070522-8.648226-12.068231-17.235211.365877-1.569091,1.071426-5.58585,1.600936-7.725633,2.125101-8.587558,5.421025-13.753711,15.950456-12.657509,77.087514,8.02578,153.691719,28.046984,230.162461,39.544694,10.445155,1.570461,11.742203,7.276209,10.937459,16.480464-.148114,1.694051-.491525,3.885682-.704151,5.733798-.987797,8.585823-6.232823,13.844527-16.662588,12.426982Z"/>
      <path class="cls-45" d="M221.555816,72.691408c2.125101-8.587558,5.418754-13.731667,15.950456-12.657509,78.26392,7.982358,153.794779,27.656592,230.162461,39.544694"/>
      <g id="seates-2" data-name="seates">
        <path class="cls-54" d="M306.845149,159.028819c-.629268,7.485343-1.097494,17.179342-2.71234,24.297048-1.614784,7.117706-4.215454,10.4651-11.514516,10.040951-11.011139-.639918-22.724802-2.445415-33.52559-4.964825-7.159567-1.670065-9.155347-5.750394-9.261538-13.204342-.106253-7.453886,1.41219-17.284425,2.429471-24.828989.704063-5.221654,2.948546-7.168309,6.940167-9.932975,1.578525-1.093308,4.079652-1.304275,5.684155-2.236972,4.057182-2.35843,5.831161-5.033403,7.194903-9.421964.189297-.609138.133339-1.843418.334395-2.37105,2.092737-5.49295,5.125005-10.569691,11.725236-9.335349.085876-.551702.081813-.52086,0,0,6.600232,1.234404,8.153209,7.000742,8.869708,12.946897.068824.571217-.300844,1.73101-.263477,2.376591.269633,4.650992,1.354754,7.854827,4.666813,11.280403,1.309815,1.354754,3.715401,2.387795,4.959408,3.861175,3.145292,3.725312,4.908682,6.312869,4.473206,11.493401Z"/>
        <path class="cls-54" d="M427.526906,174.656291c-1.013218,7.060763-1.847974,16.118106-3.608101,22.903265-1.760066,6.785158-4.378773,9.987332-11.457819,9.788308-10.679022-.30029-22.194646-1.507177-32.743714-3.465036-6.992678-1.297872-8.943149-5.098164-8.971405-12.250344-.028195-7.15218,1.709463-16.327657,2.909825-23.53875.830816-4.990927,3.234739-6.861616,7.182529-9.4384,1.561227-1.019067,4.143182-1.337702,5.747193-2.198867,4.056013-2.177505,5.964993-4.749919,7.482881-8.978238.21072-.586914.268525-1.690749.440586-2.205084,1.790477-5.353577,5.721091-9.720346,11.664353-9.107084,2.994593.309032.253566-.799974,0,0,5.943324.613324,9.383797,6.049576,8.779953,11.7522-.05799.547824-.257383,1.618231-.25449,2.225522.021177,4.375141.970311,7.254124,4.151246,10.397323,1.257981,1.243022,3.576582,2.105172,4.752258,3.476547,2.972801,3.467498,4.625937,5.751748,3.924705,10.638638Z"/>
      </g>
      <path class="cls-15" d="M476.045467,187.792547c-.585683,4.413062-1.722453,9.141865-2.424238,13.597588-.063776.405127-.125213.722778-.342767,1.036734-2.966275,4.280092-4.870946,10.753694-8.044864,14.526715-4.491181,5.338865-6.439437,8.678502-13.996251,7.755469-78.480004-9.58596-157.649235-19.234281-236.291881-28.489355-6.423308-.755897-8.180296-4.474376-10.574985-10.511948-2.14771-5.41483-3.029251-13.888275-4.62372-19.964568-.103483-.394477-.097511-.787539-.051033-1.206887.535696-4.833333.940762-10.127566,1.696413-14.831192.348307-2.168087,1.287407-2.390873,3.134704-2.175043,1.054156.123243,2.194804,1.044983,3.08761,1.408865.892745.36382,1.247393.685903,2.008276,1.191373.760883.505532.685903,1.473811,1.005585,2.315092,2.858791,7.522526,3.460665,15.015318,12.971214,16.449854,75.017,11.315307,150.907723,19.744983,225.950824,29.667493,9.508148,1.257181,11.161715-5.07945,16.404853-10.911719.594671-.661525.698523-1.544913,1.616138-1.763575.917677-.218662,1.322681-.407405,2.35406-.480415,1.031379-.072949,2.617106-.574664,3.747781-.398479,1.742706.271603,2.639883.767039,2.372281,2.783996Z"/>
      <path class="cls-43" d="M487.373685,59.004275c2.566046,2.925861.142025,5.105269-1.897146,7.436395-.941279,1.075962-2.923602,1.688109-4.12446,2.556352-.110025.07953-.143531.180519-.237461.279155-3.600314,3.781963-4.29312,8.563276-8.313297,12.277944-4.020271,3.714574-5.215011,7.022462-12.156625,5.937935-70.005888-10.937885-140.649429-27.044944-210.796966-36.922302-7.063027-.994456-7.290323-4.533875-10.163007-9.136081-2.872684-4.602205-2.025147-8.950102-4.37585-13.419036-.322544-.613088-.526122-1.041044-.952291-1.544767-.790407-.934032-2.393527-2.069383-2.852825-3.108639-1.177893-2.664871-3.193534-6.388198.301461-8.056542,13.340071-6.368244,18.604399-12.40058,35.251135-9.720745,61.766851,9.943241,126.717259,23.499407,188.684206,32.719253,16.765418,2.494422,21.699203,9.374012,31.633126,20.701077Z"/>
      <path id="stering_wheek-2" data-name="stering wheek" class="cls-14" d="M402.244034,162.924652c-20.380161-2.520211-26.579267,9.361266-33.530822,26.064686,1.254165.575649,2.570136.450251,3.873918.693906,1.583265-6.817354,4.383513-12.214763,8.970297-17.488928.945933,1.582526,2.061341,3.113158,2.954148,4.707688.892807,1.594469,1.429796,2.861438,1.916736,4.705657s.909366,4.158264,1.385903,6.091745c-.433814,1.16441-.768886,2.302595-.984408,3.516069,7.247906.801698,14.496612,1.597917,21.738609,2.450832.107115-1.222769.092463-2.406201-.010773-3.639866.98053-1.765606,2.049152-3.900327,3.04932-5.556603s1.896422-2.756909,3.195341-4.06931c1.298857-1.312339,2.755432-2.506236,4.109385-3.777515,2.812436,6.159892,3.850033,11.926846,3.720141,18.684118,1.275341.055466,2.493555.482201,3.791674.198162-1.496896-18.081382-3.799307-30.060431-24.179468-32.580642ZM412.623011,177.446381c-1.520905.978745-2.596114,1.531432-4.360181,2.152142-1.764006.620649-4.037114,1.230526-5.908173,1.820025-1.015496-.256829-1.976327-.58242-3.009429-.697169s-2.045951-.013974-3.093212.000677c-1.625003-1.014819-3.643006-2.110959-5.169205-3.114204-1.526261-1.003307-2.392719-1.769546-3.586186-3.079423-1.193466-1.309877-2.371666-2.88163-3.533183-4.29622,5.729895-2.80628,11.115175-5.253234,17.612171-4.466126,6.496995.787169,10.871274,4.30133,15.657082,8.418349-1.536418,1.06536-3.088718,2.283142-4.609685,3.261949Z"/>
      <g id="r_light-2" data-name="r light">
        <path class="cls-35" d="M467.687633,339.099919c-1.977241.336191-4.249543,1.915311-6.183302,2.008112-9.870581.473981-16.135672-.606876-22.480951-8.860219-3.965211-5.157598-7.459831-12.787783-9.618155-18.923273-2.476257-7.039309.285273-10.405833,5.23694-14.940555.165366-.151437.411862-.115577.680006-.191061,10.515669-2.96125,21.111339-5.91657,31.702303-8.698712-.277932,16.48664-.128848,33.113327.663159,49.605708Z"/>
        <path class="cls-14" d="M467.709281,339.328251c-1.841616.312191-3.959753,1.784298-5.760333,1.870228-9.190481.438592-15.02338-.585417-20.966303-8.231131-3.713539-4.777736-7.041662-11.872858-9.069351-17.569379-2.326421-6.535681.230026-9.644979,4.816325-13.866193.153131-.140989.382968-.10786.633041-.17826,9.80131-2.76106,19.661632-5.570496,29.519884-8.213061.100989,15.3863.044612,30.800554.826737,46.187796Z"/>
        <path class="cls-24" d="M466.869179,313.916168c-6.071395,1.25507-12.804819,4.259802-18.737765,5.061221-7.912729,1.068904-10.381297-1.764993-12.947944-7.842273-.517382-3.178204,1.632174-6.825903,6.476829-8.490953,7.91254-2.719459,16.938126-4.815101,25.114951-7.3195.10786,6.208431.197084,12.356344.09393,18.591505Z"/>
        <path class="cls-26" d="M467.003204,328.45512c-3.81434.903161-7.967223,2.946191-11.71248,3.554478-4.995244.811207-7.05774-.16758-9.053539-5.205881-.438001-2.833573,1.367824-3.803986,4.450392-4.981597,5.03468-1.923405,10.922638-3.30657,16.185931-4.978867.048377,3.876646.094683,7.717245.129695,11.611867Z"/>
        <path class="cls-32" d="M467.59408,337.572c-2.113901.558123-4.402956,1.744957-6.490881,2.110701-2.784683.487722-4.557053-1.014313-5.153834-2.516163-.529669-1.332957.676053-2.438422,2.357668-3.140734,2.746565-1.146928,5.959958-2.0035,8.844313-2.984026.16546,2.179219.318591,4.338862.442733,6.530222Z"/>
        <path class="cls-12" d="M454.237821,315.00013c-1.926041.919632-4.800984,1.725286-6.95912,2.033053-2.650114.37801-4.502264-.08163-6.171013-1.256171-2.066019-1.454158-3.362905-4.711102-2.680984-7.143795.482717-1.722048,1.57465-3.01556,3.856565-4.093415,1.942041-.917279,4.753736-1.709192,6.911873-1.963217,2.781259-.32733,4.659994.266668,6.381543,1.59598,1.909405,1.474367,3.142782,4.646106,2.45131,6.957264-.482839,1.613827-1.568187,2.809326-3.790173,3.870302Z"/>
        <path class="cls-7" d="M457.309377,329.107455c-1.001797.496287-2.48981.990409-3.618197,1.179116-2.160113.361227-3.419273.32144-4.770583-1.900817-.05912-.097224-.134608-.25989-.167343-.364991-.668381-2.145954.120566-3.186193,2.039642-4.187331,1.002362-.523016,2.507504-1.002738,3.645397-1.154928,2.178843-.291297,3.614712-.257976,4.781219,1.998041.052368.101279.128019.259406.161601.362544.715775,2.198308-.153601,3.118145-2.071736,4.068365Z"/>
        <path class="cls-56" d="M461.743769,337.955627c-.684335.349462-.892431.423816-1.655826.588335-.763301.164519-1.343781.261626-2.086418-.802642-.026814-.038427-.058854-.121497-.080754-.161507-.504403-.921516.096848-1.481142.780713-1.834746.683959-.353603.887443-.427957,1.651968-.58664.764619-.158684,1.564969-.27398,2.083407.820337.019948.042106.068194.118078.080942.161601.282358.963988-.089789,1.465801-.77403,1.815263Z"/>
      </g>
      <g id="l_light-2" data-name="l light">
        <path class="cls-35" d="M190.934698,332.757181c2.119172.326591,4.527381,2.468634,6.604294,2.396256,10.601788-.369697,15.073074-2.93452,20.046671-13.032209,3.10798-6.309891,6.585282-16.133225,8.667747-23.242652,2.389292-8.156778.55979-12.757964-4.419175-18.977183-.13679-.170864-.446811-.509759-.748212-.707791-9.772219-6.420714-20.631335-11.102216-31.080745-16.395627-1.316435,23.295735-1.126222,46.678153.92942,69.959205Z"/>
        <path class="cls-14" d="M190.966322,333.080384c1.979782.296567,4.228461,2.301291,6.168525,2.228255,9.902487-.372992,13.940923-2.740542,18.544822-12.204061,2.876919-5.913558,6.138501-15.211711,8.031789-21.872664,2.172254-7.642232.576729-12.386537-4.381222-17.917342-.167353-.186689-.367002-.336006-.600281-.483197-9.272106-5.850379-19.3773-10.367621-29.095316-15.486348-.759066,21.909558-.579393,43.857328,1.331682,65.735356Z"/>
        <path class="cls-24" d="M189.124611,296.098034c6.139631,2.018841,12.397003,7.381053,18.605435,8.466992,8.280261,1.448389,11.604149-1.915499,13.21574-10.582493.451957-2.430327-2.53734-8.149813-6.775213-10.461363-6.921755-3.775374-17.009656-9.379095-24.664688-13.275882-.45431,8.54897-.504946,17.155163-.381274,25.852746Z"/>
        <path class="cls-26" d="M189.582215,317.319116c3.547231,1.235211,8.538993,4.25632,11.85554,4.912043,4.423286.874455,7.189334-1.808769,8.033953-5.30527s-1.360671-6.641847-4.256696-8.505204c-4.72983-3.043321-10.935061-5.306306-16.018588-8.079318.034071,5.680803.016377,11.276805.385792,16.97775Z"/>
        <path class="cls-32" d="M190.857057,330.61495c2.174607.55737,4.825831,2.339691,6.918932,2.533858,2.791554.25892,3.429613-1.56632,4.175002-3.756457.601942-1.768655-.949844-3.200405-2.729153-4.158531-2.905908-1.56472-6.222737-2.701106-9.24347-4.123048.245743,3.180734.532334,6.307538.87869,9.504178Z"/>
        <path class="cls-12" d="M201.520391,298.608174c1.960864,1.530555,4.564464,2.87419,6.887873,3.456783,4.448416,1.115304,6.38368-.992762,8.731748-4.429686.128283-.187766.214309-.656432.281697-.890926,1.279192-4.451305-.187202-7.73428-3.86554-10.665506-1.921146-1.531025-4.532464-2.987979-6.868766-3.663373-4.473169-1.293282-6.545281.795583-8.941914,4.308273-.131013.191908-.226873.677368-.285555.919349-1.081048,4.457783.306262,8.034706,4.060459,10.965085Z"/>
        <path class="cls-7" d="M199.151429,318.230465c1.064009.76283,2.385339,1.355024,3.608785,1.632861,2.342797.531958,3.305253-.719818,4.452086-2.559834.062777-.100613.094114-.345834.137789-.489416.719239-2.364484-.190872-4.19119-2.151925-5.65652-1.024386-.765466-2.372444-1.435777-3.607844-1.741757-2.365291-.585793-3.410665.654312-4.543569,2.561905-.06193.104377-.10935.373561-.139295.501369-.639671,2.730114.206778,4.290861,2.243973,5.751392Z"/>
        <path class="cls-56" d="M196.651266,330.865306c.473322.323297,1.059868.582311,1.599261.681512,1.03248.189837,1.389189-.400192,1.790133-1.243587.02193-.046118.030351-.165625.039436-.222214.169888-1.058202-.211955-1.867405-1.11201-2.493951-.470122-.32725-1.067209-.590593-1.613285-.695536-1.046127-.200849-1.424483.37798-1.826463,1.245093-.022024.047342-.026439.167764-.035389.224567-.172057,1.092024.252332,1.885193,1.158316,2.504116Z"/>
      </g>
      <g id="r_mirror-2" data-name="r mirror">
        <path class="cls-39" d="M499.580831,187.178485c-1.410712.246302-3.537984-.025178-4.830378-.618433-4.384498-2.012586-6.983321-3.497231-6.208832-8.987226,1.762775-12.495846,4.275475-26.181896,6.829297-38.534861,1.121995-5.427203,3.962011-6.174851,8.755083-7.004066,1.412744-.244394,3.45734.051095,4.734098.676546,4.33131,2.121732,6.760411,3.704135,6.034556,9.154916-1.652028,12.406769-3.931969,25.988905-6.436174,38.272246-1.100203,5.396608-4.092087,6.205508-8.877649,7.040879Z"/>
        <path class="cls-4" d="M508.965921,132.577351c-3.637958-9.735859-10.782689-12.472084-20.341317-14.824666-.185419,1.029162-.371269,2.058263-.556504,3.087426,7.50572,1.637561,13.215053,3.300424,15.987784,11.036563,1.636699.23319,3.27346.466687,4.910037.700677Z"/>
        <path class="cls-4" d="M499.883523,187.360026c-6.791869,8.4322-15.059641,9.140696-25.351881,9.054635.198162-1.056434.396139-2.112621.594548-3.168993,7.975732.38986,14.474697.068024,19.739874-6.530299,1.672466.215153,3.344993.429751,5.017459.644658Z"/>
      </g>
      <g id="l_mirror-2" data-name="l mirror">
        <path class="cls-39" d="M178.054137,143.998726c1.311662.6984,3.359152,1.112946,4.827546.857102,4.9812-.868121,7.676057-1.617123,8.573788-7.417258,2.043427-13.202187,3.981464-28.212765,5.397347-41.496951.622065-5.836332-1.765791-7.310944-6.32081-9.535481-1.34275-.655739-3.377866-.854701-4.833271-.534958-4.937923,1.084813-7.742295,1.979712-8.697955,7.695325-2.175166,13.009319-4.138565,27.609907-5.398701,40.742039-.55361,5.769416,2.002059,7.320609,6.452057,9.690181Z"/>
        <path class="cls-4" d="M185.641301,85.700906c6.374675-8.793004,14.371953-10.275803,24.775432-10.319511-.160118,1.126735-.32196,2.253101-.482447,3.379836-8.167984-.241562-14.294387.490265-19.288269,7.493593-1.66828-.184557-3.336436-.369361-5.004716-.553918Z"/>
        <path class="cls-4" d="M177.71334,144.09753c3.906114,10.245885,11.482135,14.1339,21.521671,17.327394.12509-1.153514.252089-2.30672.379949-3.459926-7.984781-2.176028-13.848199-4.864605-16.898258-12.974476-1.667664-.297828-3.335575-.595717-5.003362-.892991Z"/>
      </g>
      <path class="cls-36" d="M215.865482,41.040195c-.011389-.001293-.0229-.002955-.034227-.004679"/>
      <g id="r_intake-2" data-name="r intake">
        <path class="cls-20" d="M469.941959,240.153635c-1.033044,13.561437-1.838887,27.080051-2.455457,40.672453-.002165.047812-.225508.110307-.270779.120566-5.871958,1.323212-14.435986,3.976129-19.368453,5.872711-4.932373,1.896487-7.559502-.644523-7.001097-4.212837,3.322947-21.23247,9.468413-33.132151,28.975032-42.550775.059201-.028518.124425.050071.120754.097883Z"/>
        <path class="cls-23" d="M469.25433,248.341189c-.647535,8.428404-1.080386,16.858972-1.432107,25.305447-.001224.029647-.0544.049036-.08753.056283-4.298485.930832-8.951232,2.669671-12.964914,3.995047-2.454422.810548-4.071095-.905232-3.688315-2.991744,2.277102-12.415262,6.498504-20.855149,18.109807-26.420845.0352-.016847.065412.025977.063059.055812Z"/>
      </g>
      <g id="l_intake-2" data-name="l intake">
        <path class="cls-20" d="M193.822912,207.59203c-1.355494,15.279005-2.442845,30.610058-3.515325,45.913723-.003765.053836.193131.149554.242637.164143,6.437892,1.893758,14.805872,6.339821,19.941447,9.304835,5.135575,2.965014,7.398559.076048,7.510749-3.908834.6673-23.710986-6.217278-36.393639-24.052259-51.545208-.054024-.04593-.122448.017318-.127248.071342Z"/>
        <path class="cls-23" d="M192.931327,216.200576c-.661841,9.520084-1.364059,19.030568-2.148537,28.543405-.002729.0336.039059.057412.073318.069459,4.447569,1.565755,9.128363,3.957211,13.278611,5.852193,2.537905,1.158693,4.671571-.422968,4.6631-2.6756-.050259-13.403224-5.90904-23.322182-15.796563-31.839904-.030024-.025883-.067577.016847-.06993.050448Z"/>
      </g>
      <g id="lamps-2" data-name="lamps">
        <path class="cls-52" d="M437.587494,351.33912c4.702825-.430798,11.402477-.514643,16.110719-.224633,4.256453.262123,7.210108,2.128011,7.664976,6.260789.456838-.005848.430305-.005725,0,0,.454806,4.132778-2.039611,6.073646-6.234565,6.452734-4.640095.419348-11.296655.595717-16.032538.462378-4.281631-.120596-7.46115-2.036717-7.904691-6.270762-.464163.004063-.436215.00277,0,0-.443541-4.234106,2.144447-6.291015,6.396098-6.680506Z"/>
        <path class="cls-8" d="M440.151289,353.093708c3.166346-.30897,8.252875-.398417,11.432456-.186712,3.179581.211644,5.290478,1.488894,5.627397,4.534458.350647-.002401.329716-.002339,0,0,.336919,3.045565-1.440815,4.370462-4.574719,4.65487-3.133904.284346-8.204489.432706-11.399091.290379-3.19454-.142327-5.383988-1.408804-5.722384-4.510142-.351878.006341-.33064.005109,0,0-.338396-3.101338,1.469933-4.473883,4.63634-4.782853Z"/>
        <path class="cls-52" d="M204.50068,348.123465c4.975414-.929435,10.941884-1.455589,15.947092-1.548361,4.524916-.083906,6.962021,2.723421,7.353913,6.963868.375578-.044385.350216-.03946,0,0,.391953,4.240509-1.434413,7.461581-5.802905,8.582653-4.832101,1.240129-10.919476,1.796571-15.941367,1.724854-4.539999-.064823-7.159506-2.709693-7.610926-7.067165-.366406.036259-.339689.034166,0,0-.451482-4.357411,1.556056-7.815552,6.054193-8.655848Z"/>
        <path class="cls-8" d="M207.070755,350.176865c3.379898-.649029,7.887639-1.100326,11.29961-1.134369,3.411971-.033981,5.049717,1.91489,5.397716,5.06246.283977-.041184.263847-.039337,0,0,.347999,3.14757-.928942,5.428127-4.241063,6.201137-3.312182.772949-7.878467,1.334562-11.295239,1.271586-3.416711-.062976-5.229349-1.921415-5.569592-5.145319-.287178.026717-.266432.024747,0,0-.340243-3.223904,1.02867-5.606466,4.408568-6.255495Z"/>
        <path class="cls-37" d="M253.320769,53.489109c2.214986.016998,5.553968.461833,7.737344.942839,2.183438.481002,3.341723,1.747308,3.137921,3.881464.221716.041449.207472.038664,0,0-.203867,2.134099-1.553809,2.971127-3.759958,2.758629-2.206206-.212433-5.528594-.69948-7.730817-1.008277-2.202166-.308863-3.323956-1.485354-3.126326-3.60036-.221243-.01298-.20728-.012644,0,0,.197631-2.115006,1.526912-2.991296,3.741837-2.974294Z"/>
        <path class="cls-37" d="M350.806633,69.52062c2.236972.209797,5.661932.833709,7.832666,1.409112,2.170795.575403,3.307195,1.823042,2.963444,3.955608.23042.042415.215953.039522,0,0-.34369,2.132566-1.797494,2.91912-4.026156,2.713263-2.228662-.205919-5.647835-.813702-7.8206-1.384241-2.172704-.570539-3.304487-1.821626-2.967506-3.961272-.229558-.039768-.215153-.037367,0,0,.33698-2.139707,1.781181-2.942328,4.018153-2.73247Z"/>
        <path class="cls-37" d="M447.233906,87.81051c2.168087.110685,5.450781.604705,7.554106,1.097494,2.103387.492789,3.153357,1.660092,2.846849,3.711399.218846.027702.204995.025547,0,0-.306508,2.051245-1.719005,2.962828-3.881367,2.828565-2.162423-.134324-5.410582-.629699-7.522526-1.090476-2.111944-.460716-3.254931-1.67776-2.939435-3.753075-.227957-.02407-.213614-.0221,0,0,.315496-2.075377,1.774286-2.904592,3.942373-2.793907Z"/>
      </g>
      <path class="cls-17" d="M352.991429,362.552115c-17.382244-.862765-35.636795-2.531538-52.945659-4.26464-5.038266-.504485-5.661994-3.280047-6.987876-7.421382-.288101-.900009-.242609-2.427501.095788-3.291374,1.557287-3.975431,2.383855-6.728215,7.442744-6.418014,17.379966,1.065914,35.656432,2.722312,53.010174,4.354518,5.051379.475121,5.905526,3.129225,7.232023,7.347757.288286.916692.232205,2.393397-.118811,3.272845-1.615153,4.046533-2.668755,6.671457-7.728383,6.420292Z"/>
      <g id="lower_gril-2" data-name="lower gril">
        <path class="cls-17" d="M417.978559,339.27044c-1.768746,2.672818-2.1418,4.496291-5.931258,4.464403-55.643655-.467857-111.224088-10.507946-166.973934-8.496838-3.796598.136971-4.293697-2.130781-6.026799-4.872362-.501161-.792648-.266309-1.67776-.24107-2.832074.038537-1.759758.300968-3.732022.497283-5.740421.196377-2.008461.404943-3.946374.658878-6.242444.253997-2.29607.647428-5.684771.926726-8.060623.279298-2.375914.45062-4.120959.790186-6.47194.339627-2.350982.774796-5.118479,1.17506-7.503257.054542-.325345-.007572-.612831.144482-.820843,1.83597-2.512331,2.553084-4.856233,6.237027-4.495737,52.68015,5.154369,105.665638,10.529308,158.475003,13.731789,3.708383.224879,3.908022,2.297486,5.843411,4.76931.160303.204749.042353.438247.081813.722839.289086,2.086273.555888,4.505771.833709,6.542242.277821,2.036471.452959,3.486335.737244,5.539735.284285,2.053338.77258,5.000961,1.079888,6.98923.307308,1.988331.591162,3.660674.852423,5.403441.2612,1.742706.720438,3.391102.871138,4.937923.098866,1.014696.480292,1.662678-.031211,2.435627Z"/>
        <g id="upper_gril-2" data-name="upper gril">
          <path class="cls-16" d="M436.598839,243.677826c.072148.200871-.109885.42298-.151561.676915-.365236,2.223552-.880002,4.710459-1.292701,6.894674-.412699,2.184277-.754358,3.934862-1.161886,6.128558-.407467,2.193696-.968772,5.145504-1.378147,7.262619-.409375,2.117053-.768455,4.041054-1.127412,5.942646-.358896,1.901593-.985332,5.421909-1.270417,6.662962-.285085,1.240991-.108407,1.623341-.340243,1.957058-2.326542,3.349549-2.838476,5.876223-7.499071,5.463216-61.415903-5.442039-123.209847-10.723222-184.431281-18.496729-4.645882-.589869-5.239199-3.914671-6.678844-7.894472-.143558-.396817.027948-.797327-.047832-2.20293s-.170645-5.449119-.225187-7.571651-.128722-4.324784-.21189-6.629411c-.083106-2.304627-.194161-5.412614-.300537-7.742295s-.190406-4.080575-.293396-6.390004-.248026-4.976768-.30226-7.325903c-.006156-.268279-.141342-.544561-.04814-.73589,1.897407-3.894848,2.558562-7.716563,7.927715-7.065072,63.952488,7.760148,128.259317,15.013102,192.201032,22.641819,5.352839.638686,5.164711,4.33605,6.632058,8.423889Z"/>
          <path class="cls-6" d="M434.014729,257.248327c-.467549,2.535231-.952582,5.06683-1.440015,7.598306-67.319582-7.28792-134.745293-13.095319-201.785454-22.786547-.099112-2.695657-.19096-5.391683-.314757-8.086355,67.754012,8.707251,135.663586,15.648033,203.540225,23.274596Z"/>
          <path class="cls-6" d="M436.568859,243.693708c-.036074.243532-.048202.374532-.096957.639364-.426981,2.319586-.884373,4.684973-1.336717,7.016809-68.41566-7.093452-136.657659-15.264698-204.942381-23.499659-.116102-2.482474-.232205-4.998991-.325838-7.465644-.010711-.281576-.00394-.425811-.005171-.684487,68.876315,8.337213,137.736008,16.474232,206.707063,23.993618Z"/>
          <path class="cls-6" d="M431.481775,270.616173c-.465579,2.485552-.944271,4.968457-1.418346,7.452409-66.314428-6.623871-132.670655-12.864161-198.814007-21.068526-.093079-2.826842-.176062-5.653991-.254366-8.481263,66.65701,8.824092,133.60483,15.259835,200.486719,22.097381Z"/>
        </g>
        <path class="cls-6" d="M414.487176,314.093882c-57.712938-2.755986-115.17471-9.382688-172.839692-12.935817.393923-2.548282.794557-5.14692,1.192912-7.670516.054358-.344306.103175-.492666.169106-.802067,56.776238,5.068185,113.577409,11.260519,170.5262,14.010472.048078.271542.085815.408636.120535.709481.254736,2.204653.540006,4.46822.830939,6.688447Z"/>
        <path class="cls-6" d="M418.058279,339.332677c-59.853507-.52677-119.115359-11.753554-179.066438-8.856903-.140296-1.052555-.29358-1.714511-.218169-2.866733.114994-1.756495.32473-3.849725.507748-5.679292,59.504522-.121581,118.446385,9.0004,177.884668,10.084843.25529,1.574585.627606,3.369371.88702,4.871254.170152.985085.059529,1.535187.005171,2.446831Z"/>
        <path class="cls-6" d="M416.325238,326.729347c-58.943463-1.326744-117.406942-10.288854-176.398607-10.906302.32633-2.839461.653276-5.678923.980407-8.518261,58.294373,1.221292,116.045847,9.925957,174.27472,12.033591.354956,2.467761.752819,4.928689,1.14348,7.390972Z"/>
      </g>
      <path id="logo-2" data-name="logo" class="cls-30" d="M334.886777,292.62737c-3.476363-.109454-7.240457-.523692-10.695766-1.001276-1.471226-.203395-1.834861-1.009771-2.00643-2.356461-.101574-.79745-.028379-1.893467.194407-2.659583.376132-1.293502.84442-1.93422,2.313245-1.771578,3.450015.382042,7.225252.77892,10.676744,1.08155,1.469564.128907,1.797494.837341,1.983345,2.152881.11007.779167.033981,1.850128-.183388,2.606579-.36696,1.277188-.802005,1.994487-2.282157,1.947886Z"/>
    </g>
  </g>
</svg>