<?xml version="1.0" encoding="UTF-8"?>
<svg id="Layer_2" data-name="Layer 2" xmlns="http://www.w3.org/2000/svg" viewBox="0 0 618.003607 471.872081">
  <defs>
    <style>
      .cls-1, .cls-2, .cls-3, .cls-4, .cls-5, .cls-6, .cls-7, .cls-8, .cls-9, .cls-10, .cls-11, .cls-12, .cls-13, .cls-14, .cls-15, .cls-16, .cls-17, .cls-18, .cls-19, .cls-20, .cls-21, .cls-22, .cls-23, .cls-24, .cls-25, .cls-26, .cls-27, .cls-28, .cls-29, .cls-30, .cls-31, .cls-32, .cls-33, .cls-34, .cls-35, .cls-36, .cls-37, .cls-38, .cls-39, .cls-40, .cls-41, .cls-42, .cls-43, .cls-44, .cls-45, .cls-46, .cls-47, .cls-48, .cls-49, .cls-50, .cls-51, .cls-52, .cls-53, .cls-54, .cls-55, .cls-56 {
        stroke: #231f20;
        stroke-miterlimit: 10;
      }

      .cls-1, .cls-4 {
        fill: #0e3052;
      }

      .cls-1, .cls-21, .cls-31, .cls-43, .cls-44 {
        stroke-width: .443374px;
      }

      .cls-2, .cls-3 {
        fill: #45c6ef;
      }

      .cls-2, .cls-47 {
        stroke-width: .349505px;
      }

      .cls-3, .cls-46 {
        stroke-width: .449606px;
      }

      .cls-4, .cls-22, .cls-32, .cls-41, .cls-45 {
        stroke-width: .570361px;
      }

      .cls-5 {
        stroke-width: .248738px;
      }

      .cls-5, .cls-6 {
        fill: #144372;
      }

      .cls-6 {
        stroke-width: .319978px;
      }

      .cls-7 {
        stroke-width: .167636px;
      }

      .cls-7, .cls-8, .cls-9, .cls-10, .cls-11, .cls-12, .cls-13, .cls-14, .cls-52, .cls-55 {
        fill: #f26b3b;
      }

      .cls-8 {
        stroke-width: .205656px;
      }

      .cls-9 {
        stroke-width: .192538px;
      }

      .cls-10 {
        stroke-width: .159869px;
      }

      .cls-11 {
        stroke-width: .130313px;
      }

      .cls-12 {
        stroke-width: .388985px;
      }

      .cls-13 {
        stroke-width: .302381px;
      }

      .cls-14 {
        stroke-width: .247682px;
      }

      .cls-15 {
        stroke-width: .686869px;
      }

      .cls-16 {
        stroke-width: .533943px;
      }

      .cls-17 {
        stroke-width: .616571px;
      }

      .cls-17, .cls-18, .cls-19, .cls-20, .cls-21, .cls-22, .cls-23, .cls-24, .cls-25, .cls-27, .cls-28, .cls-29, .cls-30, .cls-33, .cls-35, .cls-50 {
        fill: #113961;
      }

      .cls-18 {
        stroke-width: .479296px;
      }

      .cls-19 {
        stroke-width: .530877px;
      }

      .cls-20 {
        stroke-width: .494997px;
      }

      .cls-23 {
        stroke-width: .316108px;
      }

      .cls-24 {
        stroke-width: .317433px;
      }

      .cls-25 {
        stroke-width: .246759px;
      }

      .cls-26 {
        stroke-width: .197969px;
      }

      .cls-27 {
        stroke-width: .412681px;
      }

      .cls-28 {
        stroke-width: .406644px;
      }

      .cls-29 {
        stroke-width: .38479px;
      }

      .cls-30 {
        stroke-width: .177984px;
      }

      .cls-33 {
        stroke-width: .157633px;
      }

      .cls-34 {
        stroke-width: .254669px;
      }

      .cls-35 {
        stroke-width: .138357px;
      }

      .cls-36 {
        stroke-width: .611831px;
      }

      .cls-36, .cls-39 {
        fill: #c6c6c6;
      }

      .cls-37, .cls-38 {
        fill: none;
      }

      .cls-37, .cls-42 {
        stroke-width: .442864px;
      }

      .cls-38, .cls-40 {
        stroke-width: .569704px;
      }

      .cls-39 {
        stroke-width: .475612px;
      }

      .cls-40, .cls-41, .cls-42, .cls-43 {
        fill: #054f88;
      }

      .cls-44, .cls-45 {
        fill: #1c3664;
      }

      .cls-46, .cls-47 {
        fill: #3396b4;
      }

      .cls-48 {
        stroke-width: .442795px;
      }

      .cls-48, .cls-49 {
        fill: #0b243d;
      }

      .cls-49 {
        stroke-width: .569615px;
      }

      .cls-50 {
        stroke-width: .122537px;
      }

      .cls-51 {
        stroke-width: .747451px;
      }

      .cls-51, .cls-53, .cls-54, .cls-56 {
        fill: #154373;
      }

      .cls-52 {
        stroke-width: .070538px;
      }

      .cls-53 {
        stroke-width: .267126px;
      }

      .cls-54 {
        stroke-width: .343633px;
      }

      .cls-55 {
        stroke-width: .090741px;
      }

      .cls-56 {
        stroke-width: .581037px;
      }
    </style>
  </defs>
  <g id="cabs_wiggle_finish" data-name="cabs wiggle finish">
    <g id="back">
      <path id="wheel" class="cls-16" d="M60.188738,366.767452c4.444212-.775369,11.074542-.893606,15.562146-.141597,9.457567,1.584947,13.960496,5.407153,14.725936,15.277688.506237,6.528681-.443618,15.267931-2.159831,21.608983-2.594781,9.587111-7.198211,13.607565-16.8934,15.005859-4.600445.663504-11.028567.337951-15.476453-.60163-9.373711-1.98018-13.969622-6.218568-14.564078-15.951983-.393166-6.437822.378645-14.491299,1.958197-20.734662,2.388097-9.439258,7.48152-12.828637,16.847483-14.462658Z"/>
      <path id="wheel-2" data-name="wheel" class="cls-16" d="M271.647758,358.590745c4.848915-.72928,10.713977-.491199,15.589696.954102,10.275353,3.045918,13.613477,9.679233,13.695094,20.407731.05401,7.09616-.627229,17.412437-2.011231,24.169671-2.092505,10.216292-6.427319,13.399101-16.29441,14.356474-4.682006.454293-10.947351-.250306-15.50119-1.60119-9.596984-2.846982-13.747727-7.403346-13.655032-17.851176.061299-6.910483.929536-16.861717,2.145309-23.63066,1.838123-10.23374,5.812832-15.268103,16.031764-16.804952Z"/>
      <path class="cls-48" d="M27.613118,92.285743c77.296627-10.810805,154.628037-26.780638,231.568347-39.408215,9.821174-1.611866,12.237453,2.670545,15.345761,11.269633,3.492463,9.661669,3.237508,22.497136,5.663543,32.871671-87.022753,10.317826-172.811883,29.696897-259.375234,43.343147-.966557-10.473256-4.914519-22.352784-4.494721-32.535844.373651-9.062966,1.425615-14.160465,11.292304-15.540392Z"/>
      <path class="cls-42" d="M43.264917,383.701891c-.716825,8.635133,1.776881,10.398755,9.922766,10.784919,78.706974,3.731519,155.43882-4.127383,235.247406,1.431813,8.245238.574367,11.250175-10.121989,12.291233-17.698903,10.761674-78.326091-7.677816-195.481151-18.064633-264.272419-10.386817-68.791268-3.710397-25.18226-3.711775-25.177668-1.064131,3.606338-2.520568-15.081852-10.688263-19.710019-13.295615-7.533923-18.782262-14.626697-36.741114-11.296035-57.524161,10.668576-118.337027,22.567447-176.214406,30.786054-18.097349,2.569871-21.124269,10.192472-31.389061,22.010414-6.263853,7.211699-2.940021,15.19521-4.304279,23.54887-.005166.031798.216098.056593.156807.069679s.074902.003214-.044138.108881c15.676968,86.736778,30.950245,160.1368,23.539457,249.414414Z"/>
      <path class="cls-2" d="M34.206715,160.989941c1.992348,20.949267,8.027935,43.22646,11.318018,64.428444.033118.213228.014407.605648.122656.743801,4.727004,6.034727,6.262074,12.485922,15.620518,11.257694,70.016798-9.189354,140.706226-17.077815,210.655067-27.639577,9.349605-1.411667,9.791156-9.062852,12.079268-16.578006.052403-.172075-.060783-.580107-.092294-.81239-3.13517-23.092109-4.919742-48.440474-9.706267-70.663944-2.17659-10.105689-5.472069-14.454106-15.310347-13.490992-71.976545,7.04611-143.172325,25.726953-214.566869,36.853553-9.758784,1.520835-11.025698,6.37526-10.119751,15.901416Z"/>
      <path class="cls-47" d="M50.36653,177.463256c71.193656-9.675904,142.701099-22.567619,213.713268-34.094331,9.699551-1.574386,9.612366-8.183537,11.337533-16.221574.344035-1.602855-.132471-4.798406-.904971-6.25048-3.873863-7.28201-5.727598-13.624038-15.544869-12.601978-71.87369,7.482955-143.29676,26.150023-214.595395,36.870084-9.738696,1.464242-11.057016,6.594098-10.274334,15.399271.138554,1.558734.309951,3.94728.556244,5.535016,1.16207,7.491334,5.988178,12.685662,15.712524,11.363993Z"/>
      <g id="seates">
        <path class="cls-56" d="M194.318357,200.594279c.586707,6.979071,1.023265,16.017415,2.52889,22.653714,1.505568,6.636299,3.930341,9.757292,10.73573,9.36183,10.266399-.596637,21.187807-2.280019,31.258082-4.629029,6.675329-1.55711,8.536124-5.361465,8.635133-12.311265.099066-6.949742-1.316676-16.115391-2.265153-23.149677-.656444-4.868487-2.749121-6.683479-6.470768-9.261157-1.471761-1.019362-3.803724-1.21606-5.299707-2.085674-3.782774-2.198918-5.43677-4.692968-6.708275-8.784708-.176494-.567938-.124321-1.718739-.311778-2.210684-1.951194-5.121433-4.778374-9.854809-10.932199-8.703951-.080068-.514388-.07628-.485632,0,0-6.153824,1.150915-7.601766,6.527246-8.269804,12.071232-.064169.532582.280497,1.613932.245657,2.21585-.251397,4.336421-1.263125,7.323565-4.351172,10.517451-1.221226,1.263125-3.464109,2.226296-4.623978,3.600024-2.93256,3.47335-4.576683,5.885897-4.17066,10.716043Z"/>
        <path class="cls-56" d="M81.798926,215.164785c.944689,6.583208,1.722986,15.027956,3.364067,21.3542,1.641024,6.326243,4.082614,9.311838,10.682868,9.126275,9.956745-.27998,20.693508-1.405239,30.529089-3.230677,6.519727-1.210091,8.338278-4.753349,8.364623-11.421791.026288-6.668441-1.593844-15.223334-2.713018-21.946704-.774623-4.653365-3.015957-6.39753-6.696738-8.800033-1.455633-.950142-3.862957-1.247226-5.358481-2.050146-3.781684-2.030229-5.56155-4.428657-6.976775-8.370994-.196468-.547218-.250364-1.576395-.410787-2.055943-1.669378-4.991488-5.334145-9.062909-10.875433-8.491125-2.792053.28813-.236416-.745868,0,0-5.541346.571841-8.749122,5.640413-8.18612,10.957338.054068.510772.239975,1.508782.237277,2.074999-.019744,4.079227-.904684,6.76349-3.870476,9.694098-1.172898,1.15895-3.33468,1.962788-4.430838,3.241411-2.771735,3.232973-4.313061,5.362728-3.659257,9.919093Z"/>
      </g>
      <path class="cls-21" d="M36.155901,227.367509c.54607,4.114584,1.605954,8.523554,2.260275,12.677914.059463.377726.116745.673892.319584.966615,2.765651,3.990607,4.947521,10.071427,7.906771,13.589259,4.18742,4.97777,6.003905,8.091531,13.049613,7.230927,73.171999-8.937612,146.98661-17.933368,220.310251-26.562474,5.988867-.704772,7.627021-4.171751,9.859745-9.800971,2.002449-5.048597,2.824368-12.94894,4.310995-18.614262.096484-.367797.090916-.734274.047582-1.125259-.499464-4.50643-.877133-9.442587-1.581676-13.828082-.324749-2.021448-1.200333-2.229166-2.922688-2.027934-.982858.114908-2.046358.974306-2.878779,1.313577-.832364.339213-1.163025.639512-1.872446,1.110795-.709421.47134-.639512,1.37413-.937572,2.158511-2.665437,7.013739-3.226602,13.999755-12.093904,15.337266-69.943216,10.549995-140.701061,18.409529-210.668613,27.660928-8.865063,1.172152-10.406791-4.735901-15.295309-10.173704-.55445-.616783-.651278-1.440423-1.506831-1.644295-.85561-.203872-1.233221-.37985-2.194843-.447922-.961621-.068015-2.440098-.535796-3.4943-.371528-1.624838.253233-2.867357.6701-2.617854,2.550639Z"/>
      <path class="cls-44" d="M26.302393,107.907972c-2.476153,2.434723-.550996,4.661624,1.149292,7.065417.784839,1.109443,2.688265,1.962747,3.7442,2.934808.0968.08918.130327.188068.20867.287295,3.005926,3.806626,3.368121,8.355364,6.984478,11.961731,3.616357,3.606254,4.653609,6.662978,11.202686,5.598013,66.04656-10.740305,133.011672-25.493704,199.094637-36.139411,6.653722-1.071965,7.019811-4.367443,9.500366-8.92668s1.698143-8.627306,3.759553-13.08201c.282779-.611164.351188-.931422.882655-1.686403.53158-.754868,2.215725-2.398261,2.565445-3.367838.896879-2.485748,2.65519-6.067054-.782864-7.214652-13.123214-4.379974-17.87255-10.30005-33.54834-7.39685-58.164018,10.772139-121.170616,22.28797-179.435329,31.877177-15.763728,2.594344-15.739458,8.663656-25.325448,18.089404Z"/>
      <path id="stering_wheek" data-name="stering wheek" class="cls-31" d="M195.130397,220.25934c1.216676.233896,2.341987-.192793,3.529366-.274795-.281629-6.29511.548444-11.694924,3.023443-17.503152,1.292176,1.152739,2.678162,2.230915,3.919961,3.423234,1.241857,1.192375,2.103374,2.196937,3.074948,3.716924s2.01832,3.484287,2.974188,5.106643c-.066909,1.152306-.052445,2.255686.076447,3.392837,6.729723-.96705,13.467048-1.881414,20.203497-2.800866-.229714-1.125911-.569066-2.178809-1.001076-3.253804.39822-1.813447.736962-3.980319,1.147-5.710815s.88044-2.92415,1.674705-4.431508c.794263-1.507416,1.797523-2.960563,2.641588-4.458052,4.400489,4.806861,7.138743,9.771043,8.776434,16.087619,1.209416-.258081,2.438963-.172472,3.594244-.738813-6.876176-15.403446-12.936447-26.33042-31.872139-23.497168-18.935691,2.833252-20.797043,14.053177-21.762605,30.941716ZM203.190186,200.168589c4.362844-3.951034,8.356443-7.330389,14.393341-8.218457,6.0369-.888011,11.114459,1.264741,16.521757,3.744218-1.048993,1.346085-2.109801,2.839053-3.191062,4.088297s-1.870647,1.984015-3.269377,2.955426c-1.398674.971352-3.253532,2.040972-4.744022,3.025459-.97646.011228-1.922893-.058633-2.883082.072868s-1.848006.457802-2.788409.721312c-1.75795-.504992-3.89112-1.019422-5.55003-1.555991-1.658969-.536624-2.674264-1.026215-4.115097-1.902327-1.440893-.876168-2.916669-1.974332-4.37402-2.930806Z"/>
      <g id="r_light" data-name="r light">
        <path class="cls-39" d="M44.313228,368.449124c1.841056.328272,3.962183,1.819721,5.764802,1.911046,9.201162.466219,15.065077-.540498,20.992491-8.227464,3.704013-4.803522,6.981712-11.942088,9.015577-17.661905,2.333465-6.56251-.228368-9.713833-4.84258-13.959924-.154089-.141785-.38511-.109048-.635322-.180956-9.810802-2.819439-19.687304-5.631314-29.590504-8.206016.518598,15.452389.114184,30.868316-.704465,46.32522Z"/>
        <path class="cls-31" d="M44.292006,368.661689c1.715302.305018,3.691595,1.695772,5.370491,1.780888,8.569565.433821,14.024269-.521307,19.579611-7.641699,3.471411-4.449398,6.581193-11.088106,8.492351-16.396567,2.192753-6.090421-.180448-9.000281-4.447367-12.953546-.142406-.131851-.357171-.10092-.590055-.168313-9.129874-2.642208-18.310152-5.324603-27.521023-7.759891.351696,14.391261-.085342,28.749108-.88401,43.139128Z"/>
        <path class="cls-31" d="M44.060486,368.278791c1.715302.305018,3.691595,1.695772,5.370491,1.780888,8.569565.433821,14.024269-.521307,19.579611-7.641699,3.471411-4.449398,6.581193-11.088106,8.492351-16.396567,2.192753-6.090421-.180448-9.000281-4.447367-12.953546-.142406-.131851-.357171-.10092-.590055-.168313-9.129874-2.642208-18.310152-5.324603-27.521023-7.759891.351696,14.391261-.085342,28.749108-.88401,43.139128Z"/>
        <path class="cls-29" d="M45.53979,344.905186c5.583507,1.164983,11.644973,4.046283,17.118754,4.811649,7.300276,1.020714,11.668634-1.693818,12.712648-8.041203.296496-1.802632-2.008297-5.767567-6.677371-7.207766-7.454535-2.299373-15.740361-4.615002-23.373142-6.90557.111644,5.790483.168821,11.525878.219112,17.342889Z"/>
        <path class="cls-25" d="M45.031013,358.523404c3.538635.875995,7.38827,2.801038,10.875768,3.364452,4.651521.751369,7.913755-.70399,8.452164-4.847999.14174-1.090942-1.251566-3.553874-4.079302-4.664672-4.618445-1.814302-9.99475-3.148501-14.820905-4.728791-.159169,3.631314-.321781,7.227747-.427725,10.87701Z"/>
        <path class="cls-35" d="M44.406021,367.025859c1.970593.538917,4.102274,1.658407,6.052096,2.009595,2.600609.468251,3.735308-.494669,4.828131-2.603939.336435-.844921-.636789-2.013659-2.200034-2.662753-2.55331-1.059999-5.555285-1.889372-8.230343-2.828582-.177005,2.029124-.325676,4.043348-.44985,6.08568Z"/>
        <path class="cls-13" d="M57.097163,345.974893c1.760117.874301,4.359711,1.627476,6.350454,1.922786,3.367467.499567,5.363083-.514669,7.431851-2.67735.618716-.646803,1.116326-1.927286,1.092788-2.822053-.074826-2.844425-.840538-4.676063-3.863523-6.149295-1.798047-.876221-4.378732-1.654456-6.377038-1.909127-3.304458-.421082-5.209545.61758-7.181738,2.701076-.690026.728969-1.241144,2.174737-1.19806,3.177571.11305,2.631374.873598,4.329816,3.745267,5.756392Z"/>
        <path class="cls-10" d="M54.055678,359.178933c.930688.467573,2.299938.922617,3.349551,1.09838,2.009369.3364,3.294982-.315397,4.451374-1.765762.06606-.082854.127301-.243039.157476-.340464.548865-1.772116-.084664-2.972399-1.855506-3.914997-.924931-.492295-2.292374-.940904-3.34735-1.086527-2.020037-.278715-3.689809.081138-4.453124,1.861376-.724589,1.689921-.084552,3.252921,1.697578,4.147993Z"/>
        <path class="cls-52" d="M49.865974,367.423782c.637467.327934.832026.399052,1.543771.554383s1.523748.012672,1.950161-.74358c.021445-.038034.067619-.108822.075803-.150477.14963-.763109-.08585-1.379917-.722583-1.71056-.636789-.330756-.827454-.400519-1.539707-.550093s-1.365442-.234177-1.948355.755094c-.022098.037503-.067957.108483-.076198.150025-.150816.760287.079697,1.367387.717108,1.695208Z"/>
      </g>
      <g id="l_light" data-name="l light">
        <path class="cls-39" d="M301.646733,362.43964c-2.034592.431163-4.196029,2.346082-6.225226,2.45284-10.358119.54498-15.154229-1.973235-19.672711-11.899043-2.823564-6.202497-6.087704-15.330665-8.29437-22.016728-2.53176-7.671044-.459402-12.053439,4.242061-17.923323.156979-.196009.363894-.200371.608059-.333876,9.566391-5.230888,19.233513-10.367187,28.965666-15.325672,1.523533,21.710173,1.660998,43.292064.376521,65.045801Z"/>
        <path class="cls-31" d="M301.626644,362.742924c-1.897586.396839-3.9114,2.183708-5.804796,2.281913-9.664539.501129-14.144509-1.819297-18.324525-11.12993-2.612058-5.818055-5.612288-14.444234-7.629374-20.724732-2.314227-7.205788-.378874-11.30143,4.079514-16.764201.148887-.182406.339443-.179594.568972-.303341,8.996157-4.852129,18.069397-9.655872,27.105904-14.470751,1.073946,20.420071,1.183918,40.663706.004305,61.111041Z"/>
        <path class="cls-29" d="M302.688594,328.263175c-5.892268,2.26722-11.644891,6.763318-17.662513,8.283464-8.025639,2.027474-10.39623-3.002411-12.716656-9.605191.044253.300069.083168.689734-.004075,1.016779,1.201194-4.695035,1.718796-8.230602,6.22402-10.997573,7.358405-4.519229,15.657022-8.365025,23.259821-12.667066.451022,7.999983.804412,15.919668.899403,23.969586Z"/>
        <path class="cls-25" d="M302.428588,348.049015c-3.832193,1.354615-7.607161,4.056671-11.530328,4.896726-5.232438,1.120495-6.659488-2.341204-7.811378-6.705921.00993.202093.022844.46319-.048672.676934.942967-2.984791,1.326606-5.338277,4.320695-7.004555,4.890011-2.721456,10.362481-4.984944,15.356781-7.653251.0097,5.276174-.070253,10.49455-.287097,15.790067Z"/>
        <path class="cls-35" d="M301.8009,360.442127c-2.182789.699893-4.306345,2.182215-6.532469,2.614755-2.968892.576835-3.70638-1.451099-4.264848-3.930456.00132.115826.005338.266894-.035241.387656.545382-1.684932.829839-3.037022,2.548233-3.917714,2.806632-1.438299,5.905183-2.590132,8.761348-3.996921-.115482,2.95615-.276709,5.878264-.477022,8.842679Z"/>
        <path class="cls-13" d="M291.071483,330.80343c-1.927375,1.379468-4.433249,2.656138-6.64003,3.284401-4.225187,1.202859-6.17443-.823697-8.312966-4.188683-.116802-.183841-.256677-.611732-.2813-.841835-.450907-4.212215-.072836-7.314841,3.527991-9.960992,1.880654-1.382051,4.314725-2.717954,6.507272-3.452917,4.197981-1.40719,6.273726.646916,8.48309,4.019822.120705.184243.26919.629468.294903.863129.471053,4.27736.111177,7.635974-3.578959,10.277075Z"/>
        <path class="cls-10" d="M293.29732,349.096444c-1.065738.68629-2.373862,1.25509-3.557264,1.558602-2.265899.581197-3.258572-.567537-4.295325-2.416393-.05665-.101075-.120475-.337377-.125526-.459861-.091777-2.243457.153134-3.977291,2.130042-5.298731,1.032621-.690193,2.332824-1.310649,3.512552-1.657209,2.25884-.663561,3.295765.509566,4.335732,2.379143.05688.102223.127133.347191.135284.472775.149862,2.297582-.095049,4.107639-2.135495,5.421674Z"/>
        <path class="cls-52" d="M296.225575,360.831677c-.473464.297658-1.05954.550318-1.589195.672171-1.013909.233202-1.431871-.308104-1.859475-1.144372-.02336-.045688-.049476-.154397-.050739-.209784-.023418-1.010982.107733-1.786409,1.012876-2.3532.472718-.295994,1.063041-.551867,1.593098-.681698,1.015229-.248642,1.440538.289565,1.864353,1.134499.023131.046204.048672.155659.049878.211162.021638,1.016377-.114506,1.801447-1.020797,2.371222Z"/>
      </g>
      <g id="r_mirror" data-name="r mirror">
        <path class="cls-43" d="M14.618376,226.840039c1.315298.229643,3.298692-.023475,4.503675-.576605,4.087952-1.876464,6.511003-3.260696,5.788897-8.379374-1.643549-11.650688-3.986302-24.41108-6.367397-35.928551-1.046109-5.060134-3.694039-5.757214-8.162932-6.530345-1.317193-.227864-3.223503.047639-4.413906.630788-4.038361,1.978228-6.30317,3.453605-5.626408,8.535722,1.540293,11.567635,3.66603,24.231142,6.000863,35.683698,1.02579,5.031608,3.815318,5.785798,8.277208,6.564669Z"/>
        <path class="cls-1" d="M5.868048,175.931859c3.391904-9.077373,10.053401-11.628533,18.965529-13.821998.172878.959555.346158,1.919052.518864,2.878607-6.99807,1.526805-12.321252,3.077199-14.906448,10.290104-1.526001.217418-3.052059.435123-4.577946.653287Z"/>
        <path class="cls-1" d="M14.336157,227.009301c6.3325,7.861887,13.635058,8.477403,23.231181,8.397163-.184759-.984982-.369347-1.969733-.554336-2.954658-7.436292.363492-13.089677.108484-17.998743-6.043561-1.559348.200601-3.118754.400685-4.678103.601056Z"/>
      </g>
      <g id="l_mirror" data-name="l mirror">
        <path class="cls-43" d="M314.398573,186.580749c-1.222947.651163-3.131955,1.037672-4.501034.799132-4.644296-.809406-7.156886-1.507749-7.993899-6.915591-1.90522-12.309256-3.712177-26.304591-5.032296-38.690299-.579992-5.441591,1.646362-6.816467,5.893302-8.890547,1.251933-.611388,3.149404-.796893,4.506372-.498776,4.603946,1.011441,7.218644,1.845814,8.109668,7.174851,2.028048,12.129432,3.858653,25.742507,5.033559,37.986446.516167,5.379201-1.866649,6.825478-6.015671,9.034785Z"/>
        <path class="cls-1" d="M307.324568,132.225909c-5.943523-8.198288-13.399904-9.580798-23.099742-9.621549.149288,1.050528.300184,2.100712.449816,3.151241,7.615541-.225224,13.327585.457106,17.983704,6.986762,1.555445-.172075,3.110776-.344379,4.666222-.516454Z"/>
        <path class="cls-1" d="M314.71632,186.67287c-3.641923,9.552903-10.70554,13.177952-20.06605,16.155453-.11663-1.075496-.235039-2.150705-.354251-3.225913,7.444729-2.028852,12.911575-4.535587,15.755342-12.096946,1.554871-.277684,3.109973-.555426,4.664959-.832594Z"/>
      </g>
      <path class="cls-37" d="M279.144603,90.585831c.010618-.001205.021352-.002755.031912-.004362"/>
      <g id="r_intake" data-name="r intake">
        <path class="cls-23" d="M42.171952,276.343697c.855393,12.726081,1.66614,25.442906,2.52317,38.172938.002991.044703.213749.100581.256759.109725,5.589264,1.183948,13.894168,3.538635,18.581079,5.251453,4.68691,1.712705,7.108765-.671333,6.513348-4.007902-3.542812-19.853698-9.490827-30.81605-27.763614-39.614152-.055483-.026754-.113789.043122-.110741.087938Z"/>
        <path class="cls-26" d="M42.70641,283.987428c.500988,7.937122.995936,15.871422,1.525427,23.807866.001863.027996.051702.044816.083197.051363,4.089462.847547,8.581249,2.397584,12.41192,3.583112,2.342496.725066,3.922165-.860416,3.507083-2.835694-2.469718-11.75323-6.491166-19.317038-17.467572-24.657784-.033301-.016256-.061861.023254-.060055.051137Z"/>
      </g>
      <g id="l_intake" data-name="l intake">
        <path class="cls-23" d="M297.670302,246.810868c1.162222,13.909241,2.354175,27.817162,3.721418,41.709757.004821.048959-.139875.130405-.184874.145098-5.846122,1.91228-13.43526,6.432542-18.145046,9.127423-4.709843,2.694938-6.908875-.061357-6.876274-3.861637.193943-22.61279,1.908434-33.927652,21.374461-47.18923.059004-.040235.106241.019515.110316.068589Z"/>
        <path class="cls-26" d="M298.471099,254.503665c.79035,8.65614,1.475377,17.325079,2.283692,25.979325.002812.030478-.03042.052231-.061472.063079-4.034286,1.412471-8.044752,3.852282-11.755207,5.674162-2.268884,1.114124-4.043871-.565643-3.983892-2.652465.356777-12.416874,2.810076-21.956691,13.453685-29.107435.032314-.021696.060381.012799.063194.043334Z"/>
      </g>
      <g id="lamps">
        <path class="cls-53" d="M72.418786,379.89765c-4.384749-.401661-10.631269-.479835-15.021069-.20944-3.968567.244394-6.722452,1.984083-7.146554,5.83734-.42594-.005453-.401202-.005338,0,0-.424045,3.853257,1.901661,5.662855,5.812889,6.016302,4.326262.390985,10.532604.555426,14.948175.431105,3.992042-.11244,6.956515-1.898964,7.370056-5.846638.43277.003788.406712.002583,0,0,.413542-3.947732-1.999407-5.865522-5.963497-6.228669Z"/>
        <path class="cls-9" d="M70.028394,381.533565c-2.95219-.288073-7.694691-.37147-10.659221-.174084-2.96453.197329-4.932656,1.388192-5.246787,4.22777-.326931-.002238-.307416-.002181,0,0-.314131,2.839578,1.343365,4.074865,4.265307,4.340037,2.921942.265114,7.649577.40344,10.628112.270739,2.978477-.132701,5.019841-1.313519,5.33535-4.205098.328078.005912.308277.004764,0,0,.315509-2.891579-1.370514-4.171291-4.322761-4.459365Z"/>
        <path class="cls-53" d="M289.740745,376.899486c-4.638901-.866573-10.201828-1.35714-14.868509-1.443637-4.218873-.078231-6.491144,2.539222-6.85653,6.492865-.350176-.041383-.326529-.036791,0,0-.365444,3.953701,1.337396,6.956916,5.410425,8.002164,4.505282,1.156253,10.180936,1.67506,14.863171,1.608193,4.232935-.060439,6.675272-2.526422,7.09616-6.589177.341624.033807.316714.031855,0,0,.420946-4.062697-1.450812-7.286946-5.644717-8.070409Z"/>
        <path class="cls-9" d="M287.344498,378.814004c-3.151298-.605131-7.354158-1.025905-10.535359-1.057646-3.181202-.031683-4.708178,1.785376-5.032641,4.720059-.26477-.038398-.246001-.036676,0,0-.324462,2.934684.866113,5.060995,3.954218,5.781723,3.088162.720671,7.345605,1.244299,10.531284,1.185582,3.185621-.058717,4.875661-1.79146,5.192892-4.797315.267755.02491.248412.023073,0,0,.317231-3.005855-.959096-5.227272-4.110394-5.832404Z"/>
        <path class="cls-11" d="M243.987059,101.987074c-2.059903.148313-5.14003.761939-7.142766,1.340094-2.002794.578155-3.004765,1.825668-2.687477,3.79919-.203815.051829-.190729.048385,0,0,.317345,1.973464,1.62346,2.671521,3.663447,2.341835,2.040044-.329628,5.102205-.981538,7.132779-1.40059,2.030516-.419109,3.003904-1.580872,2.693503-3.536945.205078-.025312.192106-.024164,0,0-.3104-1.956073-1.599641-2.691896-3.659487-2.543584Z"/>
        <path class="cls-11" d="M152.943276,117.578436c-2.085674.195607-5.278987.777321-7.302902,1.313806-2.023973.536485-3.083513,1.69974-2.763011,3.68807-.214835.039546-.201347.036849,0,0,.320445,1.98833,1.675921,2.721685,3.753847,2.529751,2.077926-.191991,5.265843-.758667,7.291653-1.290618,2.025752-.531951,3.080987-1.69842,2.766799-3.693351.214032-.037078.200601-.03484,0,0-.314189-1.994988-1.660711-2.743324-3.746385-2.547659Z"/>
        <path class="cls-11" d="M63.42481,134.19283c-2.021448.103199-5.082117.563806-7.043183,1.023265-1.961124.459459-2.940079,1.547812-2.654302,3.460378-.204045.025828-.19113.02382,0,0,.285777,1.912509,1.60274,2.762437,3.61885,2.637255,2.016167-.125239,5.044637-.587109,7.013739-1.016722,1.969102-.429555,3.034783-1.564285,2.740626-3.499236.212539-.022442.199166-.020605,0,0-.294157-1.935009-1.654282-2.70814-3.67573-2.604941Z"/>
      </g>
      <path class="cls-27" d="M151.293186,390.352252c16.206594-.804412,33.226496-2.360317,49.364673-3.976201,4.697503-.470364,5.279044-3.058201,6.51525-6.919436.268616-.839137.2262-2.263317-.089309-3.068762-1.45196-3.706552-2.222622-6.273152-6.939353-5.983931-16.20447.993821-33.244805,2.538189-49.424824,4.06-4.709728.442986-5.506105,2.917579-6.742885,6.85079-.268788.854691-.2165,2.231519.110775,3.051485,1.505912,3.772845,2.488254,6.220232,7.205673,5.986054Z"/>
      <g id="lower_gril" data-name="lower gril">
        <path class="cls-27" d="M90.701469,368.645236c1.649117,2.492042,1.996939,4.192184,5.530096,4.162452,51.88019-.436213,103.701433-9.79724,155.680632-7.922153,3.539815.127707,4.003292-1.986665,5.619176-4.542819.467265-.739037.248297-1.564285.224765-2.640526-.03593-1.640737-.280612-3.479606-.463649-5.352167-.183095-1.872619-.377554-3.679461-.614315-5.820236-.236818-2.140775-.603639-5.300281-.864047-7.515442-.260408-2.215218-.420142-3.842237-.736742-6.03421-.316657-2.191973-.722392-4.77229-1.095585-6.995774-.050853-.303341.00706-.571382-.13471-.765325-1.711794-2.342409-2.380405-4.527781-5.815185-4.191667-49.117122,4.805752-98.51893,9.817157-147.756527,12.803038-3.457566.209669-3.643703,2.142095-5.448192,4.446737-.149461.190901-.039489.408606-.07628.67395-.269534,1.945168-.51829,4.201023-.777321,6.099757s-.422324,3.250537-.687381,5.165055c-.265057,1.914461-.720326,4.66272-1.00685,6.516513-.286523,1.85385-.551179,3.413084-.794769,5.037979-.243533,1.624838-.671711,3.161744-.812218,4.603946-.092179.946067-.447808,1.550222.0291,2.270893Z"/>
        <g id="upper_gril" data-name="upper gril">
          <path class="cls-18" d="M73.340574,279.51804c-.067269.187285.102453.394371.14131.631132.340533,2.073162.820483,4.391866,1.205269,6.428352.384786,2.036543.703337,3.668728,1.083302,5.714052.379908,2.045325.903249,4.797487,1.284936,6.771411.381687,1.973866.716481,3.767737,1.05116,5.540715.334622,1.772978.918689,5.055198,1.184492,6.212311.265803,1.157056.101075,1.513546.317231,1.824692,2.169186,3.123002,2.646496,5.478784,6.991871,5.093711,57.262031-5.073966,114.876534-9.997956,171.957249-17.2457,4.331657-.549973,4.884845-3.649902,6.22712-7.360529.133849-.369978-.026058-.7434.044597-2.053934.070655-1.310535.159103-5.080567.209956-7.059541s.120016-4.032277.197559-6.18103c.077485-2.148753.181029-5.046531.28021-7.218644s.177527-3.804585.273552-5.957815.231251-4.640164.281817-6.830414c.00574-.250134.131782-.50773.044884-.686118-1.769075-3.63142-2.385514-7.194653-7.391523-6.587225-59.627054,7.235289-119.584482,13.997689-179.201492,21.110437-4.990799.595489-4.815395,4.042781-6.183498,7.854139Z"/>
          <path class="cls-5" d="M75.749907,292.170699c.435926,2.363761.888154,4.724135,1.342619,7.084394,62.766414-6.795001,125.631779-12.209615,188.13767-21.245376.092408-2.513336.178044-5.027016.293468-7.539433-63.171461,8.118335-126.487963,14.589676-189.773757,21.700415Z"/>
          <path class="cls-5" d="M73.368526,279.532848c.033634.227061.044941.3492.0904.59612.398102,2.162701.824558,4.368104,1.246308,6.542226,63.788359-6.613685,127.414801-14.232268,191.081078-21.910257.10825-2.314572.2165-4.660884.3038-6.960704.009987-.262532.003673-.397012.004821-.638192-64.217857,7.773324-128.420216,15.359995-192.726406,22.370807Z"/>
          <path class="cls-5" d="M78.111544,304.634409c.43409,2.317442.880405,4.632415,1.322416,6.948364,61.829243-6.175865,123.697459-11.994091,185.367198-19.643554.086784-2.635648.164154-5.271583.237162-7.907632-62.148655,8.227273-124.568451,14.227734-186.926776,20.602822Z"/>
        </g>
        <path class="cls-5" d="M93.956712,345.171498c53.809516-2.569584,107.384854-8.748089,161.149658-12.060901-.36728-2.375929-.740817-4.798807-1.11223-7.15172-.050681-.321019-.096197-.459344-.157668-.747819-52.936171,4.725397-105.895587,10.498912-158.99264,13.062872-.044827.253176-.080011.380998-.112382.661495-.237507,2.055541-.503482,4.166011-.774738,6.236074Z"/>
        <path class="cls-5" d="M90.62714,368.703264c55.805307-.491142,111.058977-10.958601,166.955258-8.257866.130807-.981366.273724-1.59855.203413-2.672841-.107217-1.637695-.302767-3.589348-.473406-5.295173-55.479927-.113358-110.435249,8.391657-165.853417,9.402754-.238023,1.468088-.585157,3.141483-.827026,4.541786-.158644.918459-.055502,1.431354-.004821,2.281339Z"/>
        <path class="cls-5" d="M92.242967,356.952362c54.956815-1.23701,109.466109-9.592966,164.467865-10.168653-.304259-2.647414-.609092-5.294828-.914097-7.942127-54.351626,1.138689-108.197072,9.254613-162.487628,11.219698-.330948,2.300854-.701902,4.595337-1.06614,6.891082Z"/>
      </g>
      <path id="logo" class="cls-50" d="M168.173328,325.156876c3.241238-.102051,6.750748-.488272,9.972357-.933554,1.371719-.189638,1.71076-.941475,1.870724-2.197081.094704-.743514.02646-1.765402-.181258-2.479701-.350693-1.206015-.787308-1.803398-2.156789-1.651757-3.216673.356203-6.736571.726238-9.954621,1.008399-1.37017.120188-1.675921.780707-1.849201,2.007271-.102625.726468-.031683,1.724995.170984,2.430283.342141,1.190805.747762,1.85959,2.127803,1.81614Z"/>
    </g>
    <g id="front">
      <path id="wheel-3" data-name="wheel" class="cls-15" d="M540.57629,404.50615c-5.717073-.997442-14.246387-1.149543-20.01928-.182152-12.166297,2.03889-17.958904,6.955809-18.943572,19.653352-.651228,8.398552.570674,19.6408,2.778425,27.797984,3.337949,12.332944,9.259842,17.50489,21.731817,19.303667,5.918053.853537,14.187245.434743,19.909043-.773942,12.058424-2.54732,17.970643-7.99962,18.735356-20.52077.505772-8.281671-.487092-18.641733-2.519041-26.67325-3.072068-12.142744-9.624293-16.50287-21.672749-18.604889Z"/>
      <path id="wheel-4" data-name="wheel" class="cls-15" d="M268.553564,393.987563c-6.237686-.938152-13.782554-.631883-20.054721,1.227365-13.218304,3.918296-17.512495,12.451449-17.617489,26.252683-.069479,9.128562.806873,22.399511,2.587265,31.092075,2.691816,13.142327,8.268159,17.23672,20.961271,18.468294,6.022973.584407,14.082768-.321996,19.940867-2.059785,12.345643-3.662382,17.685196-9.523729,17.565952-22.963908-.078856-8.889705-1.195764-21.69106-2.759745-30.398687-2.364578-13.164773-7.477677-19.641021-20.623401-21.618037Z"/>
      <path class="cls-49" d="M582.481851,51.410487C483.046796,37.503373,383.566997,16.959641,284.590311.715416c-12.634044-2.073519-15.742366,3.435412-19.74092,14.497354-4.492735,12.428856-4.164758,28.940512-7.285631,42.286403,111.946828,13.272942,222.306712,38.202348,333.662562,55.757003,1.243388-13.472888,6.32208-28.754816,5.782048-41.854393-.480668-11.658679-1.833923-18.216146-14.526519-19.991296Z"/>
      <path class="cls-40" d="M562.34724,426.290759c.92213,11.10831-2.285795,13.37705-12.764733,13.873814-101.249338,4.800259-199.957853-5.309502-302.624313,1.841897-10.606747.738871-14.472324-13.021015-15.81155-22.768023-13.843911-100.759366,9.87681-251.468657,23.238502-339.962344s4.773088-32.394679,4.77486-32.388772c1.368908,4.639224,3.24248-19.401425,13.749475-25.355141,17.103595-9.691705,24.161666-18.815911,47.264089-14.531318,73.999582,13.72415,152.229783,29.030961,226.683747,39.603448,23.280588,3.305905,27.174444,13.111685,40.379162,28.314388,8.057876,9.277193,3.782069,19.54725,5.537062,30.293472.006645.040905-.27799.072802-.201718.089636s-.096355.004135.056779.140066c-20.193457,111.725396-39.813362,206.017079-30.281363,320.848876Z"/>
      <path class="cls-3" d="M573.999791,139.792165c-2.562973,26.94932-10.327206,55.606895-14.559597,82.881312-.042603.274298-.018533.779111-.157786.956833-6.08086,7.763125-8.055587,16.061999-20.09437,14.481996-90.07022-11.821265-181.005716-21.96905-270.988514-35.555792-12.027413-1.815981-12.595428-11.658531-15.538876-21.326092-.067412-.221358.078192-.746254.118727-1.045066,4.03311-29.70589,6.328799-62.314248,12.486226-90.902713,2.799985-13.000046,7.039317-18.593888,19.695364-17.35493,92.591255,9.064178,184.178126,33.095376,276.02069,47.408732,12.553785,1.956416,14.183553,8.20119,13.018136,20.455721Z"/>
      <path class="cls-46" d="M553.211664,160.983582c-91.58414-12.447167-183.571938-29.031182-274.922611-43.859245-12.477587-2.025304-16.876216-10.372702-14.474664-20.671952.438833-1.881971,1.28507-6.699681,1.920167-9.266143,2.548851-10.299937,6.50199-16.496233,19.131014-15.181446,92.458942,9.626139,184.338202,33.639617,276.057386,47.429997,12.527943,1.883614,14.083625,8.727101,13.118414,19.766706-.177648,2.031848-.589537,4.660497-.84456,6.877131-1.184766,10.297856-7.475662,16.605158-19.985146,14.904951Z"/>
      <path class="cls-46" d="M265.734556,87.186243c2.548851-10.299937,6.499266-16.469794,19.131014-15.181446,93.869926,9.574058,184.461813,33.17138,276.057386,47.429997"/>
      <g id="seates-2" data-name="seates">
        <path class="cls-51" d="M368.030779,190.739532c-.754745,8.977938-1.316337,20.604942-3.253186,29.141935-1.936776,8.536993-5.056025,12.551866-13.810537,12.04314-13.206785-.767519-27.25618-2.933036-40.21067-5.954823-8.587201-2.00308-10.980944-6.897036-11.10831-15.837318-.12744-8.940208,1.693783-20.730979,2.913913-29.779947.844455-6.262864,3.536493-8.597686,8.324052-11.913633,1.893287-1.311316,4.893144-1.56435,6.817589-2.68303,4.866194-2.828707,6.993908-6.037075,8.629583-11.300725.227044-.730601.159927-2.211.401074-2.843843,2.510033-6.588256,6.146942-12.677312,14.063276-11.196839.103-.661713.098127-.624721,0,0,7.916333,1.480547,9.778978,8.396706,10.638348,15.528539.082548.685118-.360833,2.076177-.316015,2.850488.323399,5.57841,1.624895,9.421098,5.597386,13.529741,1.570995,1.624895,4.45626,2.863926,5.948325,4.631102,3.772471,4.468148,5.887485,7.57167,5.365173,13.785212Z"/>
        <path class="cls-51" d="M512.776756,209.483158c-1.215256,8.468696-2.216464,19.332094-4.327565,27.470229-2.111027,8.138135-5.25191,11.978829-13.742535,11.740119-12.808443-.360169-26.62031-1.807711-39.272887-4.155972-8.387034-1.556671-10.726434-6.11475-10.760324-14.693091-.033817-8.578341,2.050334-19.58343,3.49005-28.232431.996482-5.986129,3.879753-8.229838,8.614742-11.320439,1.872539-1.222271,4.969342-1.604443,6.893196-2.637326,4.864791-2.611705,7.154426-5.697063,8.974985-10.76852.252738-.703946.32207-2.027888.52844-2.644783,2.147502-6.421093,6.86189-11.658605,13.990252-10.923057,3.591722.370654.304128-.959491,0,0,7.128436.735622,11.254947,7.255876,10.530696,14.095615-.069553.657061-.308706,1.94091-.305235,2.669296.025399,5.247554,1.163793,8.700613,4.979014,12.470573,1.508826,1.490884,4.289761,2.524948,5.699869,4.169779,3.565584,4.158925,5.548359,6.89866,4.7073,12.760007Z"/>
      </g>
      <path class="cls-22" d="M570.970031,225.238814c-.70247,5.293036-2.065914,10.964774-2.907637,16.308978-.076493.485911-.150181.866901-.411115,1.243461-3.557757,5.133552-5.842224,12.898006-9.649028,17.423376-5.386733,6.403446-7.723475,10.409015-16.787136,9.301928-94.129098-11.497423-189.084856-23.06964-283.409027-34.170198-7.70413-.906625-9.811466-5.366576-12.683662-12.608054-2.575968-6.494559-3.633291-16.657629-5.545701-23.945549-.124117-.473137-.116955-.944576-.06121-1.447542.642515-5.79711,1.128352-12.147026,2.034681-17.788565.417761-2.600408,1.544119-2.867618,3.759771-2.608751,1.264357.147818,2.632453,1.253355,3.703287,1.689796,1.070761.436367,1.496126.822674,2.408731,1.428936.912605.606336.822674,1.767693,1.206101,2.776727,3.428841,9.022535,4.150729,18.009407,15.557704,19.729993,89.975563,13.571606,180.999071,23.682179,271.005939,35.583259,11.404095,1.507866,13.387387-6.092304,19.676019-13.087541.71325-.793435.83781-1.852972,1.9384-2.115236,1.100664-.262263,1.586427-.488642,2.823465-.576211,1.237038-.087495,3.138963-.689253,4.495097-.477936,2.090206.325762,3.166282.919989,2.84532,3.339131Z"/>
      <path class="cls-45" d="M584.557121,70.769863c3.077722,3.509285.170345,6.123271-2.275441,8.919229-1.128972,1.290512-3.506575,2.024722-4.946887,3.066094-.131964.095389-.172151.216515-.284811.33482-4.318225,4.536095-5.149178,10.270812-9.970987,14.726194-4.821922,4.455269-6.254896,8.422757-14.580684,7.121973-83.965224-13.118924-168.695249-32.437769-252.830366-44.284694-8.471411-1.192753-8.74403-5.43794-12.189534-10.957836-3.445504-5.519896-2.428966-10.734774-5.248405-16.094823-.38686-.735339-.631032-1.248631-1.14218-1.852797-.948016-1.12028-2.870802-2.482023-3.421685-3.728509-1.412767-3.196252-3.830332-7.662019.361574-9.663035,16.000111-7.638087,22.31416-14.873284,42.280292-11.659083,74.083303,11.925946,151.984973,28.185243,226.308271,39.243548,20.108482,2.991816,26.026074,11.243212,37.940844,24.828919Z"/>
      <path id="stering_wheek-2" data-name="stering wheek" class="cls-32" d="M482.452421,195.412203c-24.444012-3.022746-31.879234,11.227923-40.216946,31.262044,1.504248.690435,3.082627.540032,4.646386.832272,1.898972-8.176751,5.257595-14.650414,10.758995-20.97626,1.134554,1.898086,2.472377,3.733929,3.543212,5.646412,1.070834,1.91241,1.7149,3.432016,2.298938,5.643976.584038,2.21196,1.090696,4.987432,1.662256,7.306453-.520318,1.396596-.922204,2.761738-1.180701,4.217181,8.693155.961558,17.38727,1.916545,26.073337,2.939534.128474-1.466592.110901-2.886003-.012921-4.365664,1.17605-2.117672,2.457758-4.678061,3.657361-6.664602s2.274572-3.306643,3.832499-4.88074c1.557853-1.574022,3.304871-3.005986,4.928806-4.53076,3.373243,7.388189,4.617738,14.305086,4.461945,22.409774,1.529647.066526,2.990776.578352,4.547742.237676-1.795381-21.686852-4.556898-36.05455-29.00091-39.077297ZM494.900991,212.829598c-1.824177,1.173909-3.113785,1.836803-5.229612,2.581285-2.115753.744408-4.842124,1.475895-7.086276,2.182943-1.217988-.308041-2.370411-.698556-3.609516-.836186s-2.453919-.016761-3.710006.000812c-1.949032-1.217176-4.36943-2.531889-6.199956-3.735184-1.8306-1.203369-2.869833-2.122398-4.30128-3.693467s-2.844582-3.456234-4.237707-5.152897c6.872449-3.365859,13.331567-6.300741,21.124078-5.356682,7.792511.944133,13.039031,5.159025,18.779141,10.096987-1.842783,1.277795-3.704616,2.738406-5.528866,3.912389Z"/>
      <g id="r_light-2" data-name="r light">
        <path class="cls-36" d="M560.945626,406.717225c-2.371507.403229-5.096912,2.297228-7.416266,2.408534-11.838798.568493-19.353162-.727888-26.963705-10.626968-4.755884-6.186035-8.947338-15.337697-11.536038-22.696617-2.970029-8.442964.342157-12.48078,6.281198-17.919737.198341-.181633.493989-.138624.815601-.229158,12.612518-3.55173,25.320989-7.096348,38.023816-10.433255-.333352,19.774113-.154541,39.716201.795394,59.497201Z"/>
        <path class="cls-32" d="M560.971589,406.991086c-2.208839.374443-4.749336,2.140091-6.908957,2.243156-11.023084.526048-18.019076-.70215-25.147032-9.872438-4.454027-5.730428-8.445786-14.240333-10.8778-21.072753-2.790314-7.838911.275893-11.56821,5.776711-16.631144.183665-.169103.459333-.129367.759271-.213806,11.755714-3.311621,23.582207-6.681266,35.406217-9.850764.121127,18.454364.053508,36.942256.99159,55.397749Z"/>
        <path class="cls-20" d="M559.96397,376.511775c-7.282045,1.505334-15.358129,5.109217-22.474119,6.07044-9.490545,1.282045-12.451352-2.116937-15.529794-9.406041-.620549-3.811945,1.957633-8.187004,7.768323-10.184069,9.490319-3.261726,20.315627-5.775244,30.12293-8.779025.129367,7.446407.236383,14.820228.11266,22.298694Z"/>
        <path class="cls-24" d="M560.124719,393.949828c-4.574928,1.083253-9.555906,3.533668-14.047975,4.26325-5.991307.972964-8.46507-.200996-10.858835-6.243946-.52534-3.398594,1.640571-4.56251,5.337811-5.974939,6.038606-2.306937,13.100637-3.965908,19.413443-5.971665.058023,4.649658.113563,9.256081.155557,13.9273Z"/>
        <path class="cls-30" d="M560.833417,404.884635c-2.535418.669413-5.280916,2.092905-7.785177,2.53158-3.339956.584975-5.46574-1.21657-6.18152-3.017892-.635286-1.598752.81086-2.924648,2.827792-3.767003,3.294237-1.375628,7.148388-2.403003,10.60789-3.579048.198453,2.613761.382119,5.204041.531015,7.832364Z"/>
        <path class="cls-12" d="M544.813889,377.811882c-2.310097,1.103008-5.758311,2.069312-8.346785,2.438449-3.178553.453386-5.400026-.097907-7.401527-1.506654-2.477988-1.74412-4.033477-5.650507-3.215579-8.568284.578971-2.065428,1.888639-3.61687,4.625573-4.909651,2.329288-1.100186,5.701642-2.050008,8.290116-2.354687,3.335848-.3926,5.589208.319842,7.654038,1.914222,2.290144,1.768359,3.76946,5.57255,2.940107,8.344558-.579118,1.935628-1.880888,3.369512-4.545943,4.642049Z"/>
        <path class="cls-8" d="M548.497921,394.73224c-1.201558.595247-2.986284,1.187899-4.339673,1.414235-2.590845.433256-4.101083.385535-5.721849-2.279844-.070909-.11661-.161449-.311713-.200711-.437772-.801658-2.573862.144607-3.821527,2.446351-5.022295,1.202235-.627307,3.007507-1.202687,4.372297-1.385223,2.613309-.349382,4.335494-.309417,5.734605,2.396455.06281.121474.153547.311132.193825.434837.858502,2.636655-.18423,3.73991-2.484845,4.879607Z"/>
        <path class="cls-55" d="M553.816541,405.344758c-.820794.419145-1.070384.508325-1.986002.70565-.915505.197325-1.611734.313795-2.502455-.962691-.032161-.046089-.070589-.145724-.096856-.193712-.604982-1.105269.11616-1.776486.936389-2.200598.820342-.424112,1.064401-.513292,1.981374-.703618.917085-.190326,1.877027-.328612,2.498843.983914.023925.050502.081791.141623.097082.193825.338661,1.156209-.107693,1.758085-.928374,2.177231Z"/>
      </g>
      <g id="l_light-2" data-name="l light">
        <path class="cls-36" d="M229.007517,399.10973c2.541739.391714,5.430151,2.960885,7.921205,2.874075,12.715809-.443416,18.07868-3.51967,24.044023-15.630862,3.727719-7.568098,7.898402-19.350227,10.396116-27.877291,2.865722-9.783258.671414-15.301931-5.300368-22.761277-.164066-.204934-.535906-.611406-.897407-.848926-11.720822-7.701019-24.745271-13.316023-37.278317-19.664953-1.578935,27.940958-1.350793,55.985884,1.114748,83.909232Z"/>
        <path class="cls-32" d="M229.045446,399.49738c2.374555.355704,5.071626,2.760174,7.398543,2.672574,11.877066-.447367,16.720775-3.287012,22.242703-14.637578,3.450584-7.092735,7.362533-18.244961,9.633346-26.234123,2.605407-9.166111.69173-14.856441-5.254847-21.490101-.200723-.223915-.440183-.403006-.719979-.579547-11.120986-7.016958-23.241179-12.434948-34.896988-18.574362-.910425,26.278374-.694926,52.60258,1.597223,78.843138Z"/>
        <path class="cls-20" d="M226.836495,355.140665c7.363887,2.421403,14.868995,8.852852,22.315401,10.15533,9.931364,1.737201,13.918044-2.297454,15.850989-12.692667.542078-2.91494-3.043291-9.774905-8.126206-12.547383-8.301969-4.528193-20.401421-11.249308-29.582884-15.923123-.5449,10.253654-.605633,20.575942-.457301,31.007843Z"/>
        <path class="cls-24" d="M227.385346,380.593279c4.254557,1.481515,10.241688,5.10504,14.219562,5.891516,5.3053,1.048823,8.622904-2.169442,9.635942-6.363153s-1.631992-7.966246-5.105491-10.201162c-5.672969-3.650166-13.115538-6.364395-19.212732-9.690353.040865,6.813568.019642,13.525426.462719,20.363152Z"/>
        <path class="cls-30" d="M228.914394,396.540334c2.608229.66851,5.788113,2.806231,8.298583,3.039115,3.348196.310549,4.113485-1.878647,5.007506-4.505503.721971-2.121329-1.139245-3.838573-3.273353-4.987751-3.485353-1.876728-7.463565-3.239713-11.086639-4.945193.294745,3.81498.638483,7.565276,1.053903,11.399333Z"/>
        <path class="cls-12" d="M241.704022,358.151332c2.351865,1.835751,5.474628,3.44731,8.26133,4.146074,5.33544,1.337698,7.6566-1.190721,10.472878-5.312976.153864-.225207.257043-.787326.337868-1.068578,1.534265-5.338905-.22453-9.276513-4.636338-12.792232-2.304227-1.836315-5.436247-3.583789-8.238414-4.393859-5.365129-1.551165-7.850425.954225-10.724952,5.167353-.157137.230174-.272112.812437-.342496,1.10267-1.296612,5.346676.367331,9.636845,4.870124,13.151548Z"/>
        <path class="cls-8" d="M238.862683,381.686353c1.276175.91494,2.860981,1.625219,4.328385,1.958458,2.809956.638031,3.964328-.863352,5.339843-3.070271.075295-.120675.112881-.414794.165265-.587007.862657-2.835967-.228933-5.026923-2.581024-6.784444-1.22865-.918101-2.845515-1.722075-4.327256-2.089067-2.836936-.702602-4.09076.784783-5.449568,3.072755-.074279.12519-.131154.44805-.167071.601343-.767222,3.274506.24801,5.146469,2.691426,6.898233Z"/>
        <path class="cls-55" d="M235.863982,396.84061c.567703.387763,1.271208.698425,1.918158.817407,1.238359.227691,1.666196-.479991,2.14709-1.491562.026302-.055314.036403-.198651.047299-.266524.203764-1.26921-.254219-2.23977-1.333747-2.991251-.563865-.392504-1.280013-.708359-1.934978-.834227-1.254727-.240899-1.708528.45335-2.190664,1.493368-.026415.056782-.031711.201217-.042445.269346-.206366,1.309776.302647,2.261105,1.389287,3.003443Z"/>
      </g>
      <g id="r_mirror-2" data-name="r mirror">
        <path class="cls-41" d="M599.198401,224.502306c-1.692011.295415-4.243466-.030199-5.793566-.74175-5.258777-2.4139-8.375811-4.194587-7.446888-10.7793,2.114276-14.987547,5.128014-31.402627,8.191075-46.218802,1.345723-6.5094,4.752045-7.406131,10.500867-8.400693,1.694448-.293126,4.146742.061283,5.678088.811451,5.194983,2.54481,8.108453,4.442748,7.23786,10.980427-1.981446,14.880707-4.716013,31.171153-7.719562,45.90382-1.319586,6.472704-4.908059,7.442901-10.647873,8.444847Z"/>
        <path class="cls-4" d="M610.454899,159.01358c-4.363375-11.677212-12.932782-14.959046-24.397422-17.780739-.222392,1.23438-.445301,2.468686-.667472,3.703065,9.002378,1.964095,15.850165,3.958536,19.175784,13.237279,1.963061.279688,3.926196.559746,5.889109.840394Z"/>
        <path class="cls-4" d="M599.561449,224.720047c-8.146183,10.1136-18.062569,10.963371-30.407104,10.86015.237676-1.267089.475131-2.533882.713102-3.800897,9.566111.467599,17.360985.081588,23.67605-7.832456,2.005959.258055,4.011993.515445,6.017952.773204Z"/>
      </g>
      <g id="l_mirror-2" data-name="l mirror">
        <path class="cls-41" d="M213.558543,172.712404c1.57321.837662,4.028975,1.33487,5.79017,1.02801,5.974463-1.041226,9.20668-1.939581,10.283421-8.896276,2.450891-15.834734,4.775377-33.838456,6.47359-49.771538.746106-7.00011-2.117894-8.768763-7.581194-11.436878-1.610497-.786494-4.051421-1.02513-5.797037-.641629-5.922557,1.301127-9.286127,2.374472-10.432347,9.229791-2.608899,15.603408-4.963804,33.115386-6.475214,48.866095-.664001,6.919851,2.401274,8.780355,7.738611,11.622426Z"/>
        <path class="cls-4" d="M222.658604,102.789864c7.6458-10.546349,17.237754-12.324822,29.71571-12.377245-.192046,1.351409-.386159,2.702375-.578648,4.053783-9.796699-.28973-17.144721.588025-23.134394,8.987832-2.000939-.221358-4.001729-.443012-6.002668-.664371Z"/>
        <path class="cls-4" d="M213.14979,172.83091c4.685002,12.288938,13.7717,16.952232,25.813141,20.782516.150033-1.383527.302356-2.766685.455712-4.149843-9.576965-2.609933-16.609562-5.834619-20.26781-15.561617-2.0002-.357216-4.000696-.714505-6.001044-1.071056Z"/>
      </g>
      <path class="cls-38" d="M258.909557,49.223705c-.01366-.001551-.027467-.003544-.041052-.005611"/>
      <g id="r_intake-2" data-name="r intake">
        <path class="cls-28" d="M563.649469,288.040823c-1.239036,16.265619-2.205565,32.479875-2.945081,48.782634-.002596.057346-.270475.132302-.324773.144607-7.04284,1.587063-17.314555,4.768979-23.230567,7.043743-5.915899,2.274651-9.066884-.773043-8.397132-5.052887,3.98555-25.466273,11.356436-39.738778,34.75272-51.035498.071005-.034204.149235.060055.144833.117401Z"/>
        <path class="cls-34" d="M562.824725,297.860995c-.776655,10.109047-1.295817,20.22069-1.717672,30.351411-.001468.035559-.065248.058814-.104984.067506-5.155613,1.116442-10.736128,3.202009-15.550148,4.791669-2.943839.972174-4.88288-1.085737-4.423773-3.588305,2.731162-14.890894,7.794321-25.013713,21.720944-31.689222.042219-.020207.078456.031157.075634.066941Z"/>
      </g>
      <g id="l_intake-2" data-name="l intake">
        <path class="cls-28" d="M232.471647,248.986359c-1.625783,18.325674-2.929954,36.713774-4.216289,55.069025-.004515.064571.231642.179376.29102.196873,7.721623,2.271378,17.758197,7.603995,23.917817,11.160241,6.15962,3.556245,8.873849.091212,9.008409-4.688265.800361-28.439011-7.457018-43.650614-28.848335-61.823441-.064797-.055088-.146865.020771-.152622.085568Z"/>
        <path class="cls-34" d="M231.402279,259.31147c-.793814,11.418411-1.636056,22.825307-2.57696,34.235025-.003274.0403.046848.06886.087938.08331,5.334424,1.87797,10.948579,4.746288,15.926397,7.019134,3.043969,1.389739,5.603093-.507309,5.592933-3.209121-.060281-16.075858-7.087317-27.972679-18.946434-38.188855-.036011-.031044-.081052.020207-.083874.060507Z"/>
      </g>
      <g id="lamps-2" data-name="lamps">
        <path class="cls-54" d="M524.843449,421.396951c5.640579-.5167,13.676157-.617264,19.323234-.269425,5.105199.314391,8.64782,2.552341,9.19339,7.509205.547932-.007014.516109-.006867,0,0,.545496,4.956864-2.446314,7.284745-7.477751,7.739424-5.565341.502967-13.549234.714505-19.229463.554577-5.135398-.144643-8.948921-2.442843-9.480905-7.521166-.556719.004873-.523197.003323,0,0-.531984-5.078397,2.572055-7.545458,7.671495-8.012615Z"/>
        <path class="cls-14" d="M527.918471,423.501407c3.797722-.37058,9.898518-.477863,13.712115-.223943,3.813597.253846,6.345412,1.785782,6.749513,5.43864.420566-.00288.395462-.002806,0,0,.404101,3.652857-1.728117,5.241942-5.486928,5.583062-3.758811.341046-9.840483.518989-13.672096.348281-3.831539-.170707-6.457568-1.689722-6.863441-5.409475-.422043.007605-.39657.006128,0,0-.405873-3.719752,1.763041-5.365986,5.560837-5.736565Z"/>
        <path class="cls-54" d="M245.278587,417.540087c5.967522-1.114766,13.12372-1.745837,19.126979-1.857107,5.427195-.100638,8.350264,3.266477,8.8203,8.352479.45047-.053235.420049-.047328,0,0,.47011,5.086076-1.720438,8.949438-6.960017,10.294054-5.795634,1.487414-13.096844,2.154811-19.120113,2.068793-5.445285-.077749-8.587128-3.250012-9.128562-8.476375-.439468.043489-.407424.040979,0,0-.541509-5.226289,1.866337-9.373991,7.261413-10.381844Z"/>
        <path class="cls-14" d="M248.36114,420.002939c4.053857-.778446,9.460452-1.319733,13.552778-1.360564,4.092325-.040757,6.056642,2.296723,6.474033,6.071926.340603-.049396.316458-.047181,0,0,.417391,3.775203-1.114176,6.510508-5.08674,7.437659-3.972638.927077-9.449451,1.600677-13.547536,1.525143-4.098011-.075534-6.272093-2.30455-6.680181-6.171308-.344442.032045-.319559.029682,0,0-.408088-3.866758,1.233789-6.724409,5.287646-7.502855Z"/>
        <path class="cls-7" d="M303.833514,64.15496c2.656659.020388,6.661442.553924,9.280188,1.130843,2.61882.576915,4.00807,2.095725,3.763629,4.655437.265927.049715.248843.046374,0,0-.244519,2.559643-1.863642,3.563576-4.509703,3.308705-2.646129-.254792-6.631008-.838957-9.27236-1.20933-2.641283-.370451-3.986761-1.781537-3.749722-4.318281-.265359-.015569-.248612-.015166,0,0,.237039-2.536744,1.831382-3.587768,4.487968-3.567375Z"/>
        <path class="cls-7" d="M420.758284,83.383192c2.68303.251631,6.790934.999952,9.394517,1.690092,2.603657.690139,3.966658,2.186561,3.554361,4.744366.276366.050873.259014.047402,0,0-.412223,2.557805-2.155919,3.501199-4.828981,3.254294-2.673062-.246979-6.774026-.975956-9.380046-1.660262-2.605946-.684306-3.963409-2.184862-3.559234-4.751159-.275332-.047698-.258055-.044818,0,0,.404175-2.56637,2.136353-3.529035,4.819382-3.277331Z"/>
        <path class="cls-7" d="M536.413378,105.320128c2.600408.132756,6.537679.725285,9.060412,1.316337,2.522807.591052,3.782143,1.991118,3.414517,4.451461.262485.033226.245872.030642,0,0-.367626,2.460268-2.061779,3.553623-4.65532,3.392588-2.593615-.161109-6.489465-.755262-9.022535-1.30792-2.53307-.552584-3.903971-2.012309-3.525565-4.501447-.273412-.02887-.256209-.026507,0,0,.378406-2.489212,2.128083-3.483774,4.728491-3.351018Z"/>
      </g>
      <path class="cls-19" d="M423.378734,434.845842c-20.848303-1.034803-42.742854-3.036332-63.503145-5.115019-6.042908-.605081-6.791008-3.934096-8.381275-8.901223-.34555-1.079473-.290985-2.91155.114888-3.947682,1.867813-4.768141,2.859201-8.069837,8.926844-7.697781,20.845571,1.278459,42.766407,3.265148,63.580525,5.222819,6.058635.569861,7.083101,3.7532,8.674106,8.812916.345771,1.099483.278507,2.870645-.142502,3.925458-1.937219,4.85342-3.200911,8.001761-9.26944,7.700512Z"/>
      <g id="lower_gril-2" data-name="lower gril">
        <path class="cls-19" d="M501.324447,406.921748c-2.121438,3.205784-2.56888,5.392862-7.113964,5.354615-66.739128-.561149-133.402427-12.603255-200.268921-10.191127-4.553649.164284-5.14987-2.555664-7.228557-5.843922-.601094-.950704-.319412-2.012309-.289139-3.396796.046221-2.110658.360981-4.476196.596442-6.885075.235535-2.408953.485689-4.73329.79026-7.487202.304645-2.753912.776527-6.818327,1.111518-9.66793.334991-2.849676.540475-4.942687.947751-7.76246.40735-2.819773.929292-6.139116,1.40937-8.999424.065418-.39022-.009082-.735031.173292-.984521,2.202066-3.013295,3.062174-5.824577,7.480705-5.392197,63.184693,6.182162,126.73561,12.628876,190.075284,16.46994,4.447843.269721,4.687291,2.75561,7.008601,5.720322.192267.245576.050799.525634.098127.866975.346731,2.502281.666733,5.404232.999952,7.84678s.543281,4.181519.884252,6.644371c.340972,2.462779.926634,5.998164,1.29522,8.382899.368586,2.384809.709041,4.39062,1.022398,6.4809.313283,2.090206.864095,4.067295,1.044844,5.922557.11858,1.217028.576064,1.99422-.037435,2.921296Z"/>
        <g id="upper_gril-2" data-name="upper gril">
          <path class="cls-17" d="M523.657653,292.267746c.086535.240925-.131796.507323-.181783.811894-.438065,2.666934-1.055477,5.649735-1.550469,8.269488-.494992,2.619827-.904779,4.719483-1.393569,7.350607-.488716,2.631123-1.161947,6.17153-1.652952,8.710802-.491005,2.539198-.921687,4.846849-1.352221,7.127624-.43046,2.280775-1.181809,6.50305-1.523741,7.991571-.341932,1.488447-.130024,1.947039-.408088,2.3473-2.79046,4.017456-3.404475,7.047955-8.994403,6.552594-73.662376-6.527195-147.778174-12.861457-221.207304-22.185019-5.572282-.707491-6.283907-4.695265-8.010621-9.468648-.172184-.475943.033521-.956316-.05737-2.642199s-.204672-6.535686-.27009-9.081455-.15439-5.187156-.254141-7.951331c-.099678-2.764175-.232877-6.491901-.360464-9.286127s-.228373-4.894251-.351899-7.664185-.297483-5.969147-.362532-8.786705c-.007384-.321775-.169526-.653148-.057739-.882628,2.275754-4.67149,3.068746-9.255264,9.508519-8.473864,76.704762,9.307539,153.834521,18.006749,230.526361,27.15665,6.420207.766042,6.194566,5.200668,7.954506,10.103632Z"/>
          <path class="cls-6" d="M520.558266,308.544237c-.56078,3.040762-1.142529,6.077168-1.727157,9.113426-80.743262-8.741148-161.613815-15.706556-242.021938-27.330237-.118875-3.233177-.229037-6.466797-.37752-9.698793,81.264318,10.443496,162.715218,18.768287,244.126615,27.915604Z"/>
          <path class="cls-6" d="M523.621695,292.286795c-.043268.292093-.057813.449214-.116291.766854-.512122,2.782117-1.060719,5.619167-1.603261,8.415977-82.0579-8.507902-163.907511-18.308514-245.808364-28.185546-.139254-2.977485-.278507-5.995801-.390811-8.954311-.012847-.337723-.004725-.510719-.006202-.820975,82.61041,9.999672,165.200885,19.759232,247.924928,28.778001Z"/>
          <path class="cls-6" d="M517.520236,324.577662c-.558417,2.981177-1.132561,5.959179-1.701167,8.938436-79.537678-7.944686-159.125489-15.429304-238.457979-25.269639-.111639-3.39052-.211169-6.78141-.305088-10.172447,79.948571,10.583636,160.245941,18.302681,240.464233,26.50365Z"/>
        </g>
        <path class="cls-6" d="M497.136874,376.724927c-69.22103-3.305536-138.140812-11.253618-207.304325-15.515248.472473-3.056415.952993-6.173228,1.430782-9.200035.065197-.412961.123748-.590904.202826-.962001,68.097551,6.078792,136.225006,13.505892,204.529518,16.804192.057665.325688.102927.490119.14457.850953.305531,2.644266.647684,5.359193.99663,8.022139Z"/>
        <path class="cls-6" d="M501.420064,406.996395c-71.788434-.631809-142.867236-14.09724-214.772699-10.62299-.168271-1.262437-.352121-2.056389-.261673-3.438366.137924-2.106745.389482-4.617369.608994-6.811756,71.369861-.145825,142.064867,10.795101,213.355281,12.095784.306195,1.888561.752752,4.041231,1.063894,5.842593.204081,1.181514.071399,1.841307.006202,2.934735Z"/>
        <path class="cls-6" d="M499.34145,391.879932c-70.696926-1.5913-140.818157-12.340475-211.572895-13.081044.391401-3.405657.783541-6.811313,1.175902-10.216822,69.918405,1.46482,139.185657,11.905215,209.025501,14.433117.425735,2.959839.902933,5.911481,1.371492,8.864749Z"/>
      </g>
      <path id="logo-2" data-name="logo" class="cls-33" d="M401.663972,350.977942c-4.169557-.131279-8.684221-.628118-12.828527-1.200932-1.764592-.243952-2.200737-1.211122-2.406516-2.826344-.121828-.956463-.034038-2.271028.233172-3.18991.451134-1.551429,1.0128-2.319907,2.774512-2.124834,4.137956.458222,8.665984.934239,12.805712,1.297214,1.762598.154611,2.155919,1.004309,2.378828,2.582171.132018.934534.040757,2.219048-.219956,3.126337-.440133,1.531862-.961927,2.392192-2.737225,2.336299Z"/>
    </g>
  </g>
</svg>