<?xml version="1.0" encoding="UTF-8"?>
<svg id="Layer_2" data-name="Layer 2" xmlns="http://www.w3.org/2000/svg" viewBox="0 0 427.189221 114.992162">
  <defs>
    <style>
      .cls-1 {
        fill: #231f20;
      }

      .cls-2 {
        fill: #0e3052;
      }

      .cls-2, .cls-3, .cls-4, .cls-5, .cls-6, .cls-7 {
        stroke: #231f20;
        stroke-miterlimit: 10;
        stroke-width: .5px;
      }

      .cls-3 {
        fill: #144372;
      }

      .cls-4 {
        fill: #f26b3b;
      }

      .cls-5 {
        fill: #113961;
      }

      .cls-6 {
        fill: none;
      }

      .cls-7 {
        fill: #0a2138;
      }
    </style>
  </defs>
  <g id="CB_radio" data-name="CB radio">
    <rect class="cls-3" x=".25" y=".25" width="330.251375" height="88.362434" rx="28.250916" ry="28.250916"/>
    <rect class="cls-4" x="87.591644" y="14.89501" width="146.563795" height="39.214788" rx="12.537616" ry="12.537616"/>
    <path class="cls-3" d="M413.086431,19.880568v49.093686c0,1.481546-.163095,2.922277-.475681,4.295065-1.957227,8.780353-9.79974,15.345147-19.150926,15.345147h-37.459082c-10.832732,0-19.626607-8.793875-19.626607-19.640212V19.880568c0-10.846254,8.793875-19.626607,19.626607-19.626607h37.459082c10.560879,0,19.191658,8.345404,19.599397,18.824735.02721.258248.02721.530101.02721.801872Z"/>
    <rect class="cls-4" x="10.359857" y="30.370532" width="51.034037" height="28.121371" rx="6.265055" ry="6.265055" transform="translate(80.308094 8.554342) rotate(90)"/>
    <line class="cls-6" x1="21.81619" y1="44.431594" x2="49.937561" y2="44.431594"/>
    <line class="cls-6" x1="35.876876" y1="23.097006" x2="35.876876" y2="39.918066"/>
    <rect class="cls-4" x="29.205376" y="53.895777" width="13.343" height="7.352416" rx="1.638017" ry="1.638017" transform="translate(93.448861 21.695109) rotate(90)"/>
    <g id="Layer_5" data-name="Layer 5">
      <polygon class="cls-5" points="124.002416 76.923572 121.324654 78.208093 119.926976 80.82857 116.957063 80.824046 114.560816 82.578585 111.88698 81.285912 108.96677 81.827004 107.118597 79.502212 104.252808 78.722687 103.596351 75.826229 101.352588 73.880483 102.017866 70.986039 100.840533 68.259449 102.69578 65.940299 102.818062 62.972901 105.495824 61.68838 106.893502 59.067903 109.863415 59.072427 112.259662 57.317889 114.933498 58.610562 117.853708 58.06947 119.701881 60.394262 122.56767 61.173786 123.224127 64.070244 125.46789 66.01599 124.802612 68.910435 125.979945 71.637024 124.124698 73.956175 124.002416 76.923572"/>
      <polygon class="cls-7" points="120.715546 74.759049 118.826038 75.709787 117.812486 77.592403 115.736843 77.63078 114.037506 78.911737 112.186835 78.030151 110.138289 78.45574 108.879137 76.828799 106.887121 76.314727 106.468879 74.264668 104.927937 72.912752 105.433443 70.845615 104.648777 68.923619 105.97791 67.248825 106.104932 65.137425 107.99444 64.186686 109.007992 62.30407 111.083635 62.265693 112.782972 60.984736 114.633644 61.866323 116.682189 61.440734 117.941341 63.067674 119.933357 63.581747 120.351599 65.631805 121.892541 66.983721 121.387035 69.050859 122.171701 70.972854 120.842568 72.647649 120.715546 74.759049"/>
      <polygon class="cls-5" points="175.967851 77.177669 173.290089 78.46219 171.892411 81.082666 168.922498 81.078143 166.526251 82.832681 163.852415 81.540008 160.932206 82.0811 159.084032 79.756308 156.218244 78.976783 155.561786 76.080326 153.318023 74.134579 153.983301 71.240135 152.805968 68.513546 154.661215 66.194395 154.783498 63.226997 157.46126 61.942476 158.858938 59.321999 161.828851 59.326523 164.225097 57.571985 166.898934 58.864658 169.819143 58.323566 171.667316 60.648358 174.533105 61.427882 175.189562 64.32434 177.433326 66.270086 176.768047 69.164531 177.94538 71.89112 176.090133 74.210271 175.967851 77.177669"/>
      <polygon class="cls-7" points="172.680982 75.013145 170.791473 75.963883 169.777921 77.8465 167.702278 77.884876 166.002941 79.165833 164.15227 78.284247 162.103724 78.709836 160.844572 77.082896 158.852556 76.568823 158.434315 74.518764 156.893372 73.166849 157.398879 71.099711 156.614212 69.177716 157.943345 67.502921 158.070367 65.391521 159.959875 64.440782 160.973428 62.558166 163.049071 62.51979 164.748407 61.238832 166.599079 62.120419 168.647625 61.69483 169.906777 63.32177 171.898792 63.835843 172.317034 65.885901 173.857976 67.237817 173.35247 69.304955 174.137137 71.22695 172.808004 72.901745 172.680982 75.013145"/>
      <polygon class="cls-5" points="227.933286 76.923572 225.255524 78.208093 223.857846 80.82857 220.887933 80.824046 218.491686 82.578585 215.81785 81.285912 212.897641 81.827004 211.049468 79.502212 208.183679 78.722687 207.527222 75.826229 205.283458 73.880483 205.948737 70.986039 204.771403 68.259449 206.626651 65.940299 206.748933 62.972901 209.426695 61.68838 210.824373 59.067903 213.794286 59.072427 216.190533 57.317889 218.864369 58.610562 221.784578 58.06947 223.632752 60.394262 226.49854 61.173786 227.154997 64.070244 229.398761 66.01599 228.733483 68.910435 229.910816 71.637024 228.055568 73.956175 227.933286 76.923572"/>
      <polygon class="cls-7" points="224.646417 74.759049 222.756909 75.709787 221.743356 77.592403 219.667713 77.63078 217.968377 78.911737 216.117705 78.030151 214.069159 78.45574 212.810007 76.828799 210.817991 76.314727 210.39975 74.264668 208.858807 72.912752 209.364314 70.845615 208.579647 68.923619 209.90878 67.248825 210.035802 65.137425 211.92531 64.186686 212.938863 62.30407 215.014506 62.265693 216.713842 60.984736 218.564514 61.866323 220.61306 61.440734 221.872212 63.067674 223.864228 63.581747 224.282469 65.631805 225.823412 66.983721 225.317905 69.050859 226.102572 70.972854 224.773439 72.647649 224.646417 74.759049"/>
    </g>
    <rect class="cls-4" x="58.699616" y="24.361894" width="24.632106" height="14.291283" rx="3.102866" ry="3.102866"/>
    <rect class="cls-4" x="58.699616" y="49.952202" width="24.632106" height="14.291283" rx="3.102866" ry="3.102866"/>
    <line class="cls-6" x1="62.779635" y1="31.39937" x2="79.251703" y2="31.39937"/>
    <line class="cls-6" x1="62.779635" y1="57.463819" x2="79.251703" y2="57.463819"/>
    <rect class="cls-4" x="276.222366" y="33.138714" width="22.585007" height="22.585007" rx="5.929537" ry="5.929537"/>
    <rect class="cls-2" x="348.103277" y="10.394078" width="53.251776" height="44.181225" rx="11.566437" ry="11.566437"/>
    <rect class="cls-5" x="348.218447" y="20.770951" width="53.021436" height="7.318872"/>
    <rect class="cls-5" x="348.218447" y="37.112346" width="53.021436" height="7.318872"/>
    <path class="cls-3" d="M416.511516,25.182594v38.508045c0,1.251212-1.380117,2.265152-2.970338,2.265152,0-.288758.020934-2.275949.020934-3.451713V23.543015c0-.215679-.005273-.63637-.005273-.63637.801955,0,1.595494.258867,2.11199.668762s.842687.970751.842687,1.607187Z"/>
    <path class="cls-4" d="M416.511516,61.520287V28.96967c0-.924075.733829-1.681142,1.657455-1.709941l7.005086-.218426c1.151988-.03592,2.009183,1.054425,1.702353,2.165381l-8.298381,30.673951c-.369518,1.847588-2.066513,2.333795-2.066513,1.639666v-.000013Z"/>
    <path class="cls-3" d="M383.252346,88.614467v.081548c0,.801955-.108758,1.508673-.258248,2.02517-.163095.516496-.394133.842687-.638859.842687h-15.249994c-.489286,0-.897024-1.277635-.897024-2.867856v-.081548h17.044126Z"/>
    <polygon class="cls-2" points="370.635058 91.563871 378.825507 91.563871 377.226776 93.535647 372.23379 93.535647 370.635058 91.563871"/>
    <path class="cls-3" d="M292.497181,55.723722v.081548c0,.801955-.068524,1.508673-.162713,2.02517-.102761.516496-.248329.842687-.402522.842687h-9.608477c-.308282,0-.565183-1.277635-.565183-2.867856v-.081548h10.738895Z"/>
    <polygon class="cls-2" points="284.547479 58.673126 289.707989 58.673126 288.700685 60.644902 285.554783 60.644902 284.547479 58.673126"/>
    <path class="cls-7" d="M286.264743,60.644902h1.460309c.170451,2.601169-2.527369,13.881967-4.047052,19.266303-1.978738,7.0108-6.738509,7.533555-6.174146,11.507946.785529,5.531761,11.331584,9.25692,14.066192,9.895935,12.653736,2.956887,14.687474-2.532897,27.114882-.936476,7.628538.97996,13.585796,7.024184,23.282645,9.676686,16.567836,4.532009,19.552458,3.054351,21.921475,1.462908,6.966007-4.67958,9.982846-15.255866,10.040876-17.982557h1.553108c-.000076,1.444368-1.061908,12.285659-10.259832,19.115353-5.093289,3.781898-12.945341,1.838386-24.097648-1.132797-10.55069-2.810901-14.543996-8.479416-22.639139-9.420412-12.082407-1.404485-14.914885,4.000494-27.742556.739222-2.018906-.513281-14.046574-4.456961-14.97927-11.494865-.658022-4.965448,4.781096-5.107672,6.757062-14.049906,1.584642-7.171298,3.38774-13.648222,3.743095-16.647339Z"/>
    <g id="number_5" data-name="number 5">
      <path class="cls-1" d="M156.958254,22.377477v10.409779c0,.965178,1.5.966777,1.5,0v-10.409779c0-.965178-1.5-.966777-1.5,0h0Z"/>
      <path class="cls-1" d="M170.580577,34.002438h-10.409779c-.965178,0-.966777,1.5,0,1.5h10.409779c.965178,0,.966777-1.5,0-1.5h0Z"/>
      <path class="cls-1" d="M170.580577,19.303022h-10.409779c-.965178,0-.966777,1.5,0,1.5h10.409779c.965178,0,.966777-1.5,0-1.5h0Z"/>
      <path class="cls-1" d="M170.580577,48.701854h-10.409779c-.965178,0-.966777,1.5,0,1.5h10.409779c.965178,0,.966777-1.5,0-1.5h0Z"/>
      <path class="cls-1" d="M172.086068,36.872789v10.409779c0,.965178,1.5.966777,1.5,0v-10.409779c0-.965178-1.5-.966777-1.5,0h0Z"/>
    </g>
    <rect class="cls-4" x="242.616525" y="24.490423" width="24.632106" height="14.291283" rx="3.102866" ry="3.102866"/>
    <rect class="cls-4" x="242.616525" y="50.08073" width="24.632106" height="14.291283" rx="3.102866" ry="3.102866"/>
    <line class="cls-6" x1="246.696544" y1="31.527898" x2="263.168612" y2="31.527898"/>
    <line class="cls-6" x1="246.696544" y1="57.592347" x2="263.168612" y2="57.592347"/>
  </g>
</svg>