<?xml version="1.0" encoding="UTF-8"?>
<svg id="Layer_2" data-name="Layer 2" xmlns="http://www.w3.org/2000/svg" viewBox="0 0 643.622483 173.25236">
  <defs>
    <style>
      .cls-1 {
        fill: #0e3052;
      }

      .cls-1, .cls-2, .cls-3, .cls-4, .cls-5, .cls-6 {
        stroke: #231f20;
        stroke-miterlimit: 10;
        stroke-width: .753322px;
      }

      .cls-7 {
        fill: #231f20;
      }

      .cls-2 {
        fill: #144372;
      }

      .cls-3 {
        fill: #f26b3b;
      }

      .cls-4 {
        fill: #113961;
      }

      .cls-5 {
        fill: none;
      }

      .cls-6 {
        fill: #0a2138;
      }
    </style>
  </defs>
  <g id="cbRadio">
    <rect class="cls-2" x=".376661" y=".376661" width="497.571566" height="133.130815" rx="42.564099" ry="42.564099"/>
    <rect class="cls-3" x="131.969508" y="22.441492" width="220.819601" height="59.082762" rx="18.889736" ry="18.889736"/>
    <path class="cls-2" d="M622.374585,29.952958v73.966754c0,2.232164-.245727,4.402834-.716682,6.471138-2.948846,13.228874-14.764729,23.119688-28.853646,23.119688h-56.437537c-16.321081,0-29.570328-13.249247-29.570328-29.590826V29.952958c0-16.341454,13.249247-29.570328,29.570328-29.570328h56.437537c15.911495,0,28.915015,12.573561,29.529332,28.362193.040996.389088.040996.798674.040996,1.208136Z"/>
    <rect class="cls-3" x="15.608626" y="45.757609" width="76.890175" height="42.368922" rx="9.439214" ry="9.439214" transform="translate(120.995784 12.888357) rotate(90)"/>
    <line class="cls-5" x1="32.869252" y1="66.942637" x2="75.238175" y2="66.942637"/>
    <line class="cls-5" x1="54.053714" y1="34.798987" x2="54.053714" y2="60.142353"/>
    <rect class="cls-3" x="44.002132" y="81.2018" width="20.103164" height="11.07748" rx="2.46791" ry="2.46791" transform="translate(140.794254 32.686827) rotate(90)"/>
    <g id="Layer_5" data-name="Layer 5">
      <polygon class="cls-4" points="186.827613 115.896512 182.793177 117.831829 180.687372 121.779957 176.212768 121.773141 172.602475 124.416607 168.573953 122.469008 164.174234 123.284242 161.389693 119.781606 157.071967 118.607139 156.082919 114.243206 152.702365 111.311657 153.704703 106.950757 151.93088 102.842755 154.726079 99.348618 154.910315 94.877803 158.944751 92.942486 161.050556 88.994358 165.52516 89.001174 169.135453 86.357708 173.163975 88.305307 177.563693 87.490073 180.348235 90.992709 184.66596 92.167176 185.655009 96.531109 189.035563 99.462658 188.033225 103.823558 189.807048 107.93156 187.011849 111.425697 186.827613 115.896512"/>
      <polygon class="cls-6" points="181.875468 112.635343 179.02865 114.067769 177.501587 116.904203 174.374329 116.962023 171.814033 118.89197 169.025728 117.563733 165.939296 118.204944 164.042202 115.753723 161.040941 114.979198 160.410799 111.890487 158.089146 109.85363 158.850765 106.739188 157.668551 103.843423 159.671082 101.320102 159.86246 98.138972 162.709277 96.706546 164.236341 93.870112 167.363598 93.812292 169.923895 91.882345 172.7122 93.210583 175.798632 92.569371 177.695726 95.020593 180.696987 95.795117 181.327128 98.883828 183.648782 100.920685 182.887163 104.035128 184.069377 106.930892 182.066845 109.454213 181.875468 112.635343"/>
      <polygon class="cls-4" points="265.121074 116.279345 261.086638 118.214662 258.980833 122.16279 254.506229 122.155974 250.895935 124.79944 246.867414 122.851841 242.467695 123.667074 239.683154 120.164438 235.365428 118.989972 234.37638 114.626038 230.995825 111.694489 231.998163 107.33359 230.22434 103.225588 233.019539 99.731451 233.203775 95.260636 237.238211 93.325319 239.344016 89.377191 243.81862 89.384006 247.428914 86.74054 251.457435 88.688139 255.857154 87.872906 258.641695 91.375542 262.959421 92.550009 263.948469 96.913942 267.329024 99.845491 266.326686 104.206391 268.100509 108.314393 265.30531 111.80853 265.121074 116.279345"/>
      <polygon class="cls-6" points="260.168929 113.018176 257.322111 114.450601 255.795047 117.287036 252.66779 117.344855 250.107493 119.274803 247.319188 117.946565 244.232757 118.587777 242.335662 116.136555 239.334402 115.36203 238.70426 112.27332 236.382607 110.236463 237.144226 107.12202 235.962012 104.226256 237.964543 101.702935 238.15592 98.521804 241.002738 97.089379 242.529802 94.252945 245.657059 94.195125 248.217356 92.265178 251.005661 93.593415 254.092092 92.952204 255.989187 95.403425 258.990447 96.17795 259.620589 99.266661 261.942242 101.303518 261.180623 104.41796 262.362837 107.313725 260.360306 109.837046 260.168929 113.018176"/>
      <polygon class="cls-4" points="343.414534 115.896512 339.380098 117.831829 337.274293 121.779957 332.799689 121.773141 329.189396 124.416607 325.160874 122.469008 320.761156 123.284242 317.976614 119.781606 313.658888 118.607139 312.66984 114.243206 309.289286 111.311657 310.291624 106.950757 308.517801 102.842755 311.313 99.348618 311.497236 94.877803 315.531672 92.942486 317.637477 88.994358 322.112081 89.001174 325.722374 86.357708 329.750896 88.305307 334.150615 87.490073 336.935156 90.992709 341.252882 92.167176 342.24193 96.531109 345.622484 99.462658 344.620146 103.823558 346.393969 107.93156 343.59877 111.425697 343.414534 115.896512"/>
      <polygon class="cls-6" points="338.462389 112.635343 335.615572 114.067769 334.088508 116.904203 330.961251 116.962023 328.400954 118.89197 325.612649 117.563733 322.526217 118.204944 320.629123 115.753722 317.627862 114.979198 316.997721 111.890487 314.676067 109.85363 315.437686 106.739188 314.255472 103.843423 316.258004 101.320102 316.449381 98.138972 319.296199 96.706546 320.823262 93.870112 323.95052 93.812292 326.510816 91.882345 329.299121 93.210582 332.385553 92.569371 334.282647 95.020593 337.283908 95.795117 337.914049 98.883828 340.235703 100.920685 339.474084 104.035127 340.656298 106.930892 338.653767 109.454213 338.462389 112.635343"/>
    </g>
    <rect class="cls-3" x="88.43948" y="36.704725" width="37.111838" height="21.53189" rx="4.674918" ry="4.674918"/>
    <rect class="cls-3" x="88.43948" y="75.260233" width="37.111838" height="21.53189" rx="4.674918" ry="4.674918"/>
    <line class="cls-5" x1="94.58662" y1="47.307702" x2="119.404178" y2="47.307702"/>
    <line class="cls-5" x1="94.58662" y1="86.577572" x2="119.404178" y2="86.577572"/>
    <rect class="cls-3" x="416.169033" y="49.928277" width="34.027587" height="34.027587" rx="8.933708" ry="8.933708"/>
    <rect class="cls-1" x="524.468044" y="15.660185" width="80.231519" height="66.56542" rx="17.426514" ry="17.426514"/>
    <rect class="cls-4" x="524.641564" y="31.294449" width="79.884478" height="11.026942"/>
    <rect class="cls-4" x="524.641564" y="55.915128" width="79.884478" height="11.026942"/>
    <path class="cls-2" d="M627.534972,37.941228v58.017952c0,1.885133-2.079347,3.41278-4.475245,3.41278,0-.435056.031541-3.429047.031541-5.200507v-58.700488c0-.324951-.007944-.958784-.007944-.958784,1.208261,0,2.403842.390021,3.182019,1.007586s1.26963,1.462577,1.26963,2.421461Z"/>
    <path class="cls-3" d="M627.534972,92.68923v-49.042224c0-1.392253,1.105619-2.532884,2.497195-2.576274l10.554177-.329091c1.735637-.054119,3.027125,1.588645,2.564842,3.26246l-12.502713,46.214753c-.556732,2.783659-3.113501,3.516201-3.113501,2.470395v-.000019Z"/>
    <path class="cls-2" d="M577.425211,133.510539v.122863c0,1.208261-.16386,2.273035-.389088,3.051211-.245727.778176-.593819,1.26963-.962534,1.26963h-22.976327c-.73718,0-1.351497-1.924943-1.351497-4.320841v-.122863h25.679446Z"/>
    <polygon class="cls-1" points="558.415438 137.954243 570.755538 137.954243 568.346816 140.92501 560.824159 140.92501 558.415438 137.954243"/>
    <path class="cls-2" d="M440.689401,83.955864v.122863c0,1.208261-.103242,2.273035-.245151,3.051211-.154824.778176-.374144,1.26963-.606458,1.26963h-14.476563c-.464471,0-.85153-1.924943-.85153-4.320841v-.122863h16.179702Z"/>
    <polygon class="cls-1" points="428.712022 88.399568 436.487078 88.399568 434.969429 91.370335 430.229671 91.370335 428.712022 88.399568"/>
    <path class="cls-6" d="M431.299329,91.370335h2.200167c.25681,3.919037-3.807848,20.915195-6.09747,29.027478-2.981256,10.562786-10.152541,11.350393-9.302246,17.338389,1.183513,8.334399,17.072673,13.946891,21.192757,14.90966,19.064688,4.454979,22.128809-3.816176,40.8525-1.410937,11.493499,1.476451,20.46897,10.582952,35.07868,14.579329,24.961846,6.828128,29.458613,4.601823,33.027879,2.204083,10.495299-7.050466,15.040604-22.985173,15.128035-27.093328h2.339982c-.000115,2.17615-1.599918,18.510126-15.457924,28.80005-7.673778,5.697977-19.504032,2.769795-36.3066-1.706722-15.896143-4.235029-21.912638-12.775469-34.109144-14.193217-18.203898-2.11606-22.471436,6.027324-41.798182,1.113745-3.041774-.773332-21.1632-6.715058-22.568442-17.31868-.991406-7.481167,7.203414-7.695448,10.180493-21.16822,2.387493-10.8046,5.104121-20.563025,5.639515-25.08163Z"/>
    <g id="number_5" data-name="number 5">
      <path class="cls-7" d="M236.480361,33.714912v15.683842c0,1.454181,2.259967,1.45659,2.259967,0v-15.683842c0-1.454181-2.259967-1.45659-2.259967,0h0Z"/>
      <path class="cls-7" d="M257.004365,51.229601h-15.683842c-1.454181,0-1.45659,2.259967,0,2.259967h15.683842c1.454181,0,1.45659-2.259967,0-2.259967h0Z"/>
      <path class="cls-7" d="M257.004365,29.0828h-15.683842c-1.454181,0-1.45659,2.259967,0,2.259967h15.683842c1.454181,0,1.45659-2.259967,0-2.259967h0Z"/>
      <path class="cls-7" d="M257.004365,73.376402h-15.683842c-1.454181,0-1.45659,2.259967,0,2.259967h15.683842c1.454181,0,1.45659-2.259967,0-2.259967h0Z"/>
      <path class="cls-7" d="M259.272605,55.554201v15.683842c0,1.454181,2.259967,1.45659,2.259967,0v-15.683842c0-1.454181-2.259967-1.45659-2.259967,0h0Z"/>
    </g>
    <rect class="cls-3" x="365.536963" y="36.898371" width="37.111838" height="21.53189" rx="4.674918" ry="4.674918"/>
    <rect class="cls-3" x="365.536963" y="75.453879" width="37.111838" height="21.53189" rx="4.674918" ry="4.674918"/>
    <line class="cls-5" x1="371.684102" y1="47.501348" x2="396.501661" y2="47.501348"/>
    <line class="cls-5" x1="371.684102" y1="86.771219" x2="396.501661" y2="86.771219"/>
  </g>
</svg>