<?xml version="1.0" encoding="UTF-8"?>
<svg id="Layer_2" data-name="Layer 2" xmlns="http://www.w3.org/2000/svg" viewBox="0 0 195.453818 195.443808">
  <defs>
    <style>
      .cls-1 {
        fill: #45c6ef;
      }

      .cls-1, .cls-2, .cls-3, .cls-4, .cls-5, .cls-6 {
        stroke: #231f20;
        stroke-miterlimit: 10;
      }

      .cls-1, .cls-6 {
        stroke-width: .794788px;
      }

      .cls-2 {
        stroke-width: 1.132103px;
      }

      .cls-3 {
        stroke-width: .957633px;
      }

      .cls-4 {
        stroke-width: .933798px;
      }

      .cls-5 {
        fill: #064f89;
        stroke-width: .674633px;
      }

      .cls-6 {
        fill: #054f88;
      }
    </style>
  </defs>
  <g id="falt_fat_tire" data-name="falt fat tire">
    <path class="cls-3" d="M114.549607,166.715438c-5.388823,1.335874-11.038007,2.02644-16.845702,2.02644-39.216074,0-71.016885-31.800742-71.016885-71.028148,0-39.238669,31.800811-71.03948,71.016885-71.03948,5.286903,0,10.437959.577384,15.385245,1.675491,31.84607,7.019054,55.665567,35.412223,55.665567,69.363989,0,33.41971-23.094934,61.461861-54.20511,69.001708ZM112.692941,30.104557c-4.822771-1.075512-9.849312-1.630231-15.000368-1.630231-38.242481,0-69.250737,31.008256-69.250737,69.273401,0,38.242412,31.008256,69.250737,69.250737,69.250737,5.660516,0,11.162522-.667971,16.426829-1.969849,30.329022-7.358671,52.846572-34.698993,52.846572-67.280889,0-33.11402-23.219449-60.793959-54.273033-67.64317Z"/>
    <path class="cls-5" d="M97.721725,29.392393c-37.842317,0-68.515907,30.67359-68.515907,68.515907s30.67359,68.515907,68.515907,68.515907c37.851936,0,68.525526-30.67359,68.525526-68.515907S135.573661,29.392393,97.721725,29.392393ZM97.731344,163.108968c-36.006923,0-65.200667-29.193744-65.200667-65.200667S61.724421,32.71731,97.731344,32.71731s65.19099,29.184125,65.19099,65.19099-29.184125,65.200667-65.19099,65.200667Z"/>
    <path class="cls-2" d="M136.049802,120.646073l13.109009,40.350527c1.388163,4.272872-3.502736,7.82556-7.136977,5.184211l-34.315683-24.940482c-.968069-.703588-2.172712-1.022499-3.355592-.840875-2.159674.331605-4.370544.505583-6.616159.505583-2.245787,0-4.45674-.173996-6.61654-.505635-1.182699-.181604-2.387167.137201-3.355169.840573l-34.328328,24.943752c-3.634323,2.640783-8.524635-.9119-7.136554-5.184518l13.109856-40.353135c.370073-1.139112.299836-2.384306-.239418-3.453763-1.958246-3.883624-3.353456-8.108856-4.069672-12.559836-.190094-1.181355-.868936-2.228456-1.8369-2.931863l-34.336327-24.951804c-3.633999-2.640785-1.765999-8.388967,2.726183-8.388967h42.448256c1.196607,0,2.359192-.449919,3.208884-1.292471,3.12502-3.098761,6.724313-5.725226,10.676466-7.758054,1.063318-.546928,1.849161-1.514234,2.218762-2.651411l13.119218-40.364867c1.388565-4.2723,7.432849-4.271925,8.820884.000547l13.109707,40.352627c.3695,1.137349,1.155349,2.104849,2.218772,2.651863,3.952032,2.032885,7.551222,4.660115,10.676168,7.76588.849932.844715,2.014114,1.295887,3.212416,1.295887h42.444873c4.492181,0,6.360182,5.748182,2.726183,8.388967l-34.336327,24.951804c-.967963.703407-1.646806,1.750508-1.8369,2.931863-.716215,4.45098-2.111426,8.676212-4.069672,12.559836-.539254,1.069456-.609491,2.31465-.239418,3.453763Z"/>
    <g>
      <polygon class="cls-1" points="97.543868 123.298235 102.155771 125.559571 102.503349 130.684264 98.239023 133.547622 93.627119 131.286286 93.279542 126.161593 97.543868 123.298235"/>
      <polygon class="cls-1" points="77.616468 113.523031 78.723959 118.538682 74.934024 122.005624 70.036597 120.456914 68.929105 115.441263 72.719041 111.974321 77.616468 113.523031"/>
      <polygon class="cls-1" points="72.834346 91.849491 69.603462 95.84257 64.529912 95.041082 62.687246 90.246514 65.918131 86.253435 70.991681 87.054924 72.834346 91.849491"/>
      <polygon class="cls-1" points="86.797756 74.59668 81.661417 74.560317 79.12474 70.093936 81.7244 65.663918 86.860739 65.700281 89.397416 70.166662 86.797756 74.59668"/>
      <polygon class="cls-1" points="108.992144 74.757185 105.818119 70.718761 107.728484 65.950764 112.812873 65.22119 115.986898 69.259613 114.076533 74.02761 108.992144 74.757185"/>
      <polygon class="cls-1" points="122.705407 92.209518 123.883801 87.21005 128.802664 85.730835 132.543134 89.251089 131.364739 94.250557 126.445876 95.729771 122.705407 92.209518"/>
      <polygon class="cls-1" points="117.609654 113.811637 122.253112 111.615825 126.47647 114.539273 126.056369 119.658531 121.412911 121.854343 117.189553 118.930896 117.609654 113.811637"/>
    </g>
    <polygon class="cls-6" points="101.739949 106.2266 92.368233 105.44763 88.356983 96.942001 93.717449 89.215342 103.089164 89.994312 107.100414 98.499941 101.739949 106.2266"/>
    <path class="cls-4" d="M168.826884,168.736858h-.000024c-1.693795,0-2.531391-2.031054-1.350474-3.245293,17.028728-17.509234,27.510532-41.41245,27.510532-67.774665C194.986919,44.006877,151.45695.476909,97.726909.466899h-.01001C44.006938.466899.466899,44.006877.466899,97.716899c0,26.361779,10.481511,50.26464,27.501369,67.773795,1.18088,1.214828.342871,3.246163-1.35132,3.246163h-.000024c-10.913152,0-19.76001,8.846858-19.76001,19.76001v.26001c0,3.435229,2.784803,6.220032,6.220032,6.220032h169.309998c3.429667,0,6.209961-2.780294,6.209961-6.209961v-.260071c0-10.91868-8.851339-19.77002-19.77002-19.77002ZM97.69694,166.996867c-38.25,0-69.26001-31.01001-69.26001-69.25,0-38.26001,31.01001-69.269958,69.26001-69.269958,5.149963,0,10.169983.549988,15,1.630005,31.049988,6.849976,54.269958,34.529968,54.269958,67.639954,0,32.580017-22.519958,59.920044-52.849976,67.280029-5.26001,1.299988-10.76001,1.969971-16.419983,1.969971Z"/>
  </g>
</svg>