<?xml version="1.0" encoding="UTF-8"?>
<svg id="Layer_2" data-name="Layer 2" xmlns="http://www.w3.org/2000/svg" viewBox="0 0 225.236409 252.954301">
  <defs>
    <style>
      .cls-1 {
        fill: #f2571f;
        stroke: #002846;
        stroke-miterlimit: 10;
      }

      .cls-2 {
        fill: #d15c33;
      }

      .cls-3 {
        fill: #f26b3b;
      }

      .cls-4 {
        fill: #c7c7c6;
      }
    </style>
  </defs>
  <g id="Gas_pump" data-name="Gas pump">
    <rect class="cls-2" x="0" y="218.172656" width="189.902703" height="34.781645" rx="17.390805" ry="17.390805"/>
    <path class="cls-4" d="M114.061051,119.255987c-5.228645,0-9.469855,4.24121-9.469855,9.469855,0,5.244849,4.24121,9.486058,9.469855,9.486058,5.228744,0,9.469953-4.24121,9.469953-9.486058,0-5.228645-4.24121-9.469855-9.469953-9.469855ZM141.289032,119.255987c-5.244849,0-9.486058,4.24121-9.486058,9.469855,0,5.244849,4.24121,9.486058,9.486058,9.486058,5.228645,0,9.469953-4.24121,9.469953-9.486058,0-5.228645-4.241308-9.469855-9.469953-9.469855Z"/>
    <path class="cls-1" d="M150.758986,128.725841c0,5.244849-4.241308,9.486058-9.469953,9.486058-5.244849,0-9.486058-4.24121-9.486058-9.486058,0-5.228645,4.24121-9.469855,9.486058-9.469855,5.228645,0,9.469953,4.24121,9.469953,9.469855Z"/>
    <path class="cls-1" d="M123.531005,128.725841c0,5.244849-4.24121,9.486058-9.469953,9.486058-5.228645,0-9.469855-4.24121-9.469855-9.486058,0-5.228645,4.24121-9.469855,9.469855-9.469855,5.228744,0,9.469953,4.24121,9.469953,9.469855Z"/>
    <path class="cls-3" d="M219.120259,180.05756c-9.567077-19.927243-10.538308-22.420236-17.240103-36.115097-2.411974-3.804205-8.255766-35.516154-9.761224-44.629923,1.197885-.194246,2.347258-.388493,2.379567-.404696.113327-.016204.356184-.064716.582739-.242857.12953-.097123.242857-.21045.33998-.356085l.12953-.194246-1.570273-9.728916-6.50745-7.171207c-.178141-.145734-.307573-.323777-.388493-.534227l-5.050701-12.254217c-.097123-.226654-.242759-.4209-.437005-.566535l-6.378018-5.00209c-.615146-.469412-1.505459-.356085-1.958766.275166l-.12953.161938c-.178043.242759-.275166.534227-.275166.825596,0,.339882.12953.696066.388493.971232l4.37074,4.500271c.145734.145635.242857.323678.323777.518023l3.496533,10.343963c.21045.647554-.08092,1.359823-.679862,1.6836l-3.901229,2.023482c-.356184.178043-.598943.485616-.696066.857905l-3.140447,11.234374c-.032407.113327-.048611.242857-.048611.356184,0,.647455.453307,1.246398,1.100762,1.375928l11.315294,2.363462c.178141.032309.33998.048512.518023.016105.032407,0,3.431817-.582739,3.448021-.582739,0,0,.032407,0,.097123-.016204,1.392132,8.077822,6.297099,37.232063,9.081362,44.047184,1.003639,3.059528,11.768601,24.20086,17.822842,37.911925,2.622424,5.92481,10.149816,28.749643,1.489354,36.098992-6.442833,5.487607-27.487042,1.796828-32.505237-8.935727-3.286182-7.05788,2.104401-17.984681,7.575903-36.277035,3.674674-12.335136,3.577551-23.261937-2.994713-27.778313-6.588468-4.516376-14.018736-4.079371-19.004623-2.201524V56.657487c0-31.291049-25.366338-56.657487-56.657487-56.657487h-38.624194C44.339955,0,18.973617,25.366437,18.973617,56.657487v102.857683c0,31.291148,25.366338,56.657487,56.657487,56.657487h38.624194c31.291148,0,56.657487-25.366338,56.657487-56.657487v-13.727268c5.471502-1.991173,12.885567-1.18178,17.450553,1.942463,1.699705,1.149373,6.782714,5.730563,1.165478,24.945537-5.973322,20.46147-10.149717,29.526629-7.187411,37.151143,4.306024,11.104844,29.105827,18.664543,38.381436,9.469855,10.392574-10.311655-.226654-36.374158-1.602582-39.239341ZM183.264124,97.920408l-6.879838-1.634989c-.534128-.12953-.841701-.663757-.712269-1.18178l2.298746-8.903319c.08092-.275166.275166-.517924.517924-.631251l2.638628-1.246496c.566634-.275166,1.246496.08092,1.343619.712269l1.958766,11.784805c.113327.679862-.50182,1.246398-1.165577,1.100762ZM114.061051,138.2119c-5.228645,0-9.469855-4.24121-9.469855-9.486058,0-5.228645,4.24121-9.469855,9.469855-9.469855,5.228744,0,9.469953,4.24121,9.469953,9.469855,0,5.244849-4.24121,9.486058-9.469953,9.486058ZM141.289032,138.2119c-5.244849,0-9.486058-4.24121-9.486058-9.486058,0-5.228645,4.24121-9.469855,9.486058-9.469855,5.228645,0,9.469953,4.24121,9.469953,9.469855,0,5.244849-4.241308,9.486058-9.469953,9.486058ZM150.758986,78.818662c0,16.171748-13.096017,29.267666-29.251463,29.267666h-53.112343c-16.155545,0-29.251463-13.095918-29.251463-29.267666v-19.943348c0-16.155545,13.095918-29.251463,29.251463-29.251463h53.112343c16.155446,0,29.251463,13.095918,29.251463,29.251463v19.943348Z"/>
  </g>
</svg>