<?xml version="1.0" encoding="UTF-8"?>
<svg id="Layer_2" data-name="Layer 2" xmlns="http://www.w3.org/2000/svg" viewBox="0 0 219.655376 279.339994">
  <defs>
    <style>
      .cls-1 {
        fill: #f26b3b;
      }
    </style>
  </defs>
  <g id="gasPump">
    <path class="cls-1" d="M212.166253,181.959961c-17.48999-38.179993-25.130005-45.359985-32.72998-86.769958-.380005-2.410034,2.419983-1.800049,3.570007-2.860046.22998-.200012.299988-.539978.26001-.839966-2.01001-13.110046-.590027-10.280029-9.820007-20.27002-.220032-.179993-.380005-.390015-.47998-.650024l-6.180054-15c-.119995-.269958-.299988-.509949-.529968-.690002-1.419983-.469971-8.669983-8.629944-10.200012-5.779968-.390015.340027-.52002.73999-.460022,1.200012.309998,2.22998,5.200012,5.529968,5.780029,6.700012.179993.179993.299988.399963.400024.629944l4.279968,12.660034c.960022,2.279968-4.48999,3.599976-5.609985,4.539978-.919983-.559998-4.369995,14.340027-4.690002,14.790039-.039978.149963-.059998.289978-.059998.440002,0,.789978.549988,1.539978,1.349976,1.679993l13.840027,2.899963c.549988.27002,4.390015-.72998,4.969971-.719971,5.809998,35.529968,14.540039,51.48999,32.929993,90.080017,3.210022,7.25,12.420044,35.179993,1.820007,44.169983-7.880005,6.719971-33.639954,2.200012-39.779968-10.929993-4.02002-8.640015,2.579956-22.01001,9.269958-44.400024,8.940002-25.169983-.73999-40.570007-23.529968-37.450012-1.150024.160034-2.190002-.690002-2.27002-1.849976-.789978-11.820007.23999-27.299988.790039-43.5.440002-13.25.569946-26.970032-.890015-39.580017-1.47998-12.830017-4.600037-24.51001-10.669983-33.339966-1.440002-2.090027-.01001-4.940002,2.539978-4.940002h3.98999c1.656854,0,3-1.343146,3-3V3c0-1.656854-1.343146-3-3-3H28.416253c-1.656854,0-3,1.343146-3,3v6.179993c0,1.656854,1.343146,3,3,3h5.800049c2.659973,0,4.069946,3.070007,2.389954,5.130005-6.169983,7.549988-9.929993,18.25-10.039978,33.299988v173.039978c0,8.679993-7.039978,13.119995-15.72998,13.119995-12.190002-.190002-11.050049,10.450012-10.570007,22.890015.419983,10.859985-.299988,19.679993,10.570007,19.679993h159.359985c12.25.02002,11.409973-10.700012,11.409973-21.419983,0-10.679993,1.140015-21.309998-11.409973-21.150024-8.679993.119995-15.72998-4.429993-15.72998-13.119995v-82.469971c0-1.059998.829956-1.929993,1.889954-2,17.650024-1.030029,28.360046,1.440002,19.600037,33.73999-7.309998,25.039978-12.420044,36.130005-8.790039,45.459961,5.27002,13.590027,35.619995,22.840027,46.970032,11.590027,12.709961-12.619995-.280029-44.51001-1.970032-48.01001ZM168.296258,91.659973c-.919983-.640015-10.159973-1.26001-9.289978-3.440002.299988-.460022,2.599976-11.849976,3.440002-11.669983,1.099976-.23999,4.419983-3.01001,4.880005-.650024l2.390015,14.419983c.139954.830017-.610046,1.52002-1.420044,1.340027ZM36.331,233.756048c-2.207174.417039-4.101675-1.47762-3.684544-3.68479.231624-1.225592,1.234245-2.22802,2.459893-2.459342,2.206775-.416494,4.100706,1.477484,3.684127,3.68427-.231371,1.225666-1.23385,2.228284-2.459477,2.459862ZM36.323249,155.298787c-2.208678.415163-4.101685-1.502371-3.674016-3.709847.237027-1.22345,1.243056-2.220446,2.468404-2.447457,2.206392-.408762,4.09633,1.491095,3.670278,3.699699-.236312,1.225017-1.238538,2.227131-2.464666,2.457605ZM80.096258,121.609985h-14.35c-1.491169,0-2.7-1.208831-2.7-2.7v-13.06001c0-1.289978,1.059998-2.359985,2.359985-2.359985h15.030029c1.299988,0,2.359985,1.070007,2.359985,2.359985v13.06001c0,1.491169-1.208831,2.7-2.7,2.7ZM115.206292,121.129944c0,.870056-.710022,1.580017-1.590027,1.580017h-15.099976c-.880005,0-1.619995-.709961-1.590027-1.580017.030029-.959961-.130005-3.869995-.059998-5.679993.039978-.98999.700012-1.639954,1.650024-1.599976h15.099976c.929993-.039978,1.650024.580017,1.679993,1.559998.040039,1.969971,0,4.76001-.089966,5.719971ZM115.206292,109.659973c0,.880005-.710022,1.590027-1.590027,1.590027h-15.099976c-1.130005.059998-1.530029-.920044-1.650024-2.200012-.159973-1.820007-.02002-4.340027.059998-5.080017.100037-.859985.710022-1.580017,1.590027-1.580017h15.099976c1-.049988,1.73999.679993,1.720032,1.75-.030029,1.530029-.070007,4.570007-.130005,5.52002ZM118.966302,86.859985h-56.900024c-12.830017-.190002-20.099976-9.26001-20.099976-20.23999,0-9.890015.759949-21.869995.759949-29.280029,0-9.640015,9.700012-17.460022,19.340027-17.460022h56.900024c10.359985.160034,17.349976,7.130005,17.349976,18.190002,0,11.830017.109985,22.470032.109985,31.340027-.51001,9.859985-7.820007,17.450012-17.459961,17.450012ZM143.182488,233.751727c-2.206982.416742-4.101152-1.477577-3.684351-3.684457.23148-1.225639,1.234029-2.228189,2.459668-2.459668,2.20688-.416802,4.1012,1.477368,3.684457,3.684351-.23145,1.225712-1.234063,2.228325-2.459775,2.459775ZM143.174828,155.298837c-2.208575.414949-4.101348-1.502358-3.673893-3.709639.236921-1.223408,1.242789-2.220429,2.468041-2.447622,2.206583-.409157,4.097005,1.490989,3.670697,3.699873-.23642,1.224989-1.238704,2.22702-2.464846,2.457389Z"/>
  </g>
</svg>