<?xml version="1.0" encoding="UTF-8"?>
<svg id="Layer_2" data-name="Layer 2" xmlns="http://www.w3.org/2000/svg" viewBox="0 0 637.950012 318.919983">
  <defs>
    <style>
      .cls-1 {
        fill: #45c7f0;
      }

      .cls-2 {
        fill: #074f89;
      }
    </style>
  </defs>
  <g id="half_of_big_wheel" data-name="half of big wheel">
    <path d="M547.220032,272.130005c-3.51001-17.26001-8.940002-33.820007-16.050049-49.460022-29.909973-65.830017-89.559998-115.299988-161.809998-131.220032-7.969971-1.779968-16.099976-3.129944-24.369995-4.049988-8.559998-.959961-17.269958-1.450012-26.089966-1.450012-8.75,0-17.390015.480042-25.890015,1.430054-83.099976,9.190002-153.039978,62.129944-186.27002,135.289978-7.099976,15.630005-12.519958,32.190002-16.039978,49.429993-3.090027,15.130005-4.710022,30.780029-4.710022,46.820007h5.76001c.01001-14.72998,1.419983-29.130005,4.099976-43.080017,3.590027-18.630005,9.450012-36.459961,17.280029-53.169983,26.090027-55.619995,74.049988-98.929993,132.789978-118.849976,9.980042-3.380005,20.27002-6.090027,30.809998-8.060059,1.410034-.269958,2.830017-.519958,4.25-.759949,1.100037-.190002,2.200012-.360046,3.300049-.530029,1.880005-.289978,3.769958-.549988,5.659973-.789978.01001-.01001.01001,0,.01001,0,.349976-.049988.700012-.090027,1.049988-.130005,2.48999-.309998,5-.580017,7.52002-.799988,6.700012-.600037,13.48999-.900024,20.349976-.900024,4.390015,0,8.75.119995,13.080017.369995.880005.039978,1.75.100037,2.630005.160034,1.039978.069946,2.070007.139954,3.109985.22998.789978.059998,1.580017.130005,2.369995.210022.619995.049988,1.22998.109985,1.840027.179993.839966.079956,1.669983.169983,2.51001.259949.839966.090027,1.689941.190002,2.529968.300049.02002,0,.039978,0,.059998.01001,7.130005.879944,14.160034,2.089966,21.059998,3.629944,69.530029,15.330017,127.090027,62.52002,156.609985,125.470032,7.850037,16.73999,13.720032,34.599976,17.309998,53.27002,2.670044,13.919983,4.070007,28.279968,4.080017,42.97998h5.869995c0-16.030029-1.619995-31.679993-4.709961-46.789978Z"/>
    <path class="cls-2" d="M542.460022,275.589966c-3.619995-18.549988-9.5-36.279968-17.340027-52.919983-32.609985-69.26001-99.099976-119.419983-178.130005-129.109985-.01001,0-.029968-.01001-.049988,0-.840027-.110046-1.690002-.210022-2.529968-.300049-.840027-.089966-1.670044-.179993-2.51001-.259949-.610046-.070007-1.230042-.130005-1.840027-.179993-.789978-.080017-1.580017-.150024-2.369995-.210022-1.039978-.090027-2.070007-.160034-3.109985-.22998-.880005-.059998-1.75-.120056-2.630005-.160034-4.330017-.25-8.690002-.369995-13.080017-.369995-6.859985,0-13.649963.299988-20.349976.900024-2.52002.22998-5.02002.48999-7.52002.799988v.01001c-.349976.029968-.700012.079956-1.049988.119995,0,0,0-.01001-.01001,0-1.890015.23999-3.779968.51001-5.659973.789978-1.100037.169983-2.200012.340027-3.300049.530029-1.419983.23999-2.839966.48999-4.25.759949-10.539978,1.970032-20.829956,4.680054-30.809998,8.060059-58.839966,19.909973-106.899963,63.209961-133.089966,118.849976-7.830017,16.630005-13.710022,34.369995-17.340027,52.909973-2.75,14.030029-4.209961,28.52002-4.25,43.340027h13.920044c.039978-11.660034,1-23.099976,2.839966-34.25,3.599976-21.97998,10.559998-42.830017,20.330017-62,30.609985-60.090027,88.799988-103.780029,157.890015-114.410034,10.679993-1.639954,21.629944-2.48999,32.769958-2.48999,11.150024,0,22.090027.850037,32.780029,2.5,69.079956,10.619995,127.26001,54.309998,157.859985,114.400024,9.77002,19.179993,16.72998,40.029968,20.330017,62.01001,1.839966,11.140015,2.799988,22.579956,2.839966,34.23999h13.910034c-.040039-14.820007-1.5-29.309998-4.25-43.330017Z"/>
    <path d="M577.429993,250.179993l-30.209961,21.950012-4.76001,3.459961-.480042.350037-12.019958,8.73999-47.130005,34.23999H155.130005l-47.130005-34.25-12.150024-8.830017-.359985-.26001-4.789978-3.47998-30.169983-21.919983c-11.910034-8.660034-5.790039-27.51001,8.949951-27.51001h139.210022c3.929993,0,7.73999-1.47998,10.530029-4.23999,10.25-10.170044,22.049988-18.780029,35.009949-25.450012,3.490051-1.789978,6.070007-4.960022,7.280029-8.690002l24.710022-76.030029,4.779968-14.699951v-.01001l2.01001-6.169983,11.529968-35.480042c4.550049-14.01001,24.370056-14.01001,28.920044.01001l11.529968,35.48999,2,6.160034.01001.01001,4.77002,14.699951,24.690002,75.980042c1.209961,3.72998,3.789978,6.899963,7.279968,8.699951,12.960022,6.660034,24.76001,15.280029,35.01001,25.470032,2.789978,2.77002,6.609985,4.25,10.539978,4.25h139.200012c14.73999,0,20.859985,18.849976,8.940002,27.51001Z"/>
    <g>
      <polygon class="cls-1" points="237.338355 299.702606 226.742106 312.798604 210.102515 310.169982 204.059172 294.445362 214.655421 281.349364 231.295012 283.977986 237.338355 299.702606"/>
      <polygon class="cls-1" points="283.134229 243.120151 266.288712 243.000891 257.969236 228.352616 266.495276 213.823601 283.340793 213.94286 291.660269 228.591135 283.134229 243.120151"/>
      <polygon class="cls-1" points="355.922933 243.647434 345.513167 230.402721 351.778541 214.765242 368.453682 212.372476 378.863449 225.617189 372.598074 241.254668 355.922933 243.647434"/>
      <polygon class="cls-1" points="400.898938 300.884583 404.763688 284.487957 420.895958 279.636615 433.163478 291.1819 429.298729 307.578526 413.166459 312.429868 400.898938 300.884583"/>
    </g>
    <polygon class="cls-2" points="348.48999 318.919983 289.429993 318.919983 288.25 316.409973 305.830017 291.070007 336.559998 293.619995 348.48999 318.919983"/>
    <path d="M318.97998,0h-.039978C142.809998,0,.01001,142.789978,0,318.919983h91.75c.01001-14.72998,1.419983-29.130005,4.099976-43.080017,3.590027-18.630005,9.450012-36.459961,17.280029-53.169983,26.090027-55.619995,74.049988-98.929993,132.789978-118.849976,9.980042-3.380005,20.27002-6.090027,30.809998-8.060059,1.410034-.269958,2.830017-.519958,4.25-.759949,1.100037-.190002,2.200012-.360046,3.300049-.530029,1.880005-.289978,3.769958-.549988,5.659973-.789978.01001-.01001.01001,0,.01001,0,.349976-.049988.700012-.090027,1.049988-.130005,2.48999-.309998,5-.580017,7.52002-.799988,6.700012-.600037,13.48999-.900024,20.349976-.900024,4.390015,0,8.75.119995,13.080017.369995.880005.039978,1.75.100037,2.630005.160034,1.039978.069946,2.070007.139954,3.109985.22998.789978.059998,1.580017.130005,2.369995.210022.619995.049988,1.22998.109985,1.840027.179993.839966.079956,1.669983.169983,2.51001.259949.839966.090027,1.689941.190002,2.529968.300049.02002,0,.039978,0,.059998.01001,7.130005.879944,14.160034,2.089966,21.059998,3.629944,69.530029,15.330017,127.090027,62.52002,156.609985,125.470032,7.850037,16.73999,13.720032,34.599976,17.309998,53.27002,2.670044,13.919983,4.070007,28.279968,4.080017,42.97998h91.890015C637.940002,142.789978,495.179993.029968,318.97998,0Z"/>
  </g>
</svg>