<?xml version="1.0" encoding="UTF-8"?>
<svg id="Layer_2" data-name="Layer 2" xmlns="http://www.w3.org/2000/svg" viewBox="0 0 167.100785 319.372085">
  <defs>
    <style>
      .cls-1 {
        fill: #0b243d;
        stroke-width: .830766px;
      }

      .cls-1, .cls-2 {
        stroke: #1c3664;
        stroke-miterlimit: 10;
      }

      .cls-2 {
        fill: #1a4572;
        stroke-width: .893809px;
      }
    </style>
  </defs>
  <g id="hammer">
    <rect class="cls-2" x="62.768189" y=".446904" width="41.567732" height="318.478277" rx="5" ry="5"/>
    <path class="cls-1" d="M166.685402,37.496957v32.346785c0,1.119454-.882663,2.039471-2.001238,2.083819-.010188.000404-.020464.000811-.030834.00122-.94354.037238-1.805405-.561639-2.072412-1.467378-4.062836-13.781933-15.119487-30.820467-31.912144-32.661024-2.961729-.32462-5.553441,1.995553-5.553441,4.975019v24.111575c0,2.761424-2.238577,5-5,5H46.985451c-2.761424,0-5-2.238576-5-5v-10.890015c0-2.761424-2.238576-5-5-5h-10.790039c-2.761424,0-5,2.238576-5,5v10.890015c0,2.761424-2.238576,5-5,5h-.780029c-8.284271,0-15-6.715729-15-15V18.106943c0-8.284271,6.715729-15,15-15h.780029c2.761424,0,5,2.238576,5,5v10.890015c0,2.761424,2.238576,5,5,5h10.790039c2.761424,0,5-2.238576,5-5v-10.890015c0-2.761424,2.238576-5,5-5h78.129883c22.97998,0,41.570068,15.380005,41.570068,34.390015Z"/>
  </g>
</svg>