<?xml version="1.0" encoding="UTF-8"?>
<svg id="Layer_2" data-name="Layer 2" xmlns="http://www.w3.org/2000/svg" viewBox="0 0 405.956118 228.845911">
  <defs>
    <style>
      .cls-1 {
        stroke-width: .92114px;
      }

      .cls-1, .cls-2, .cls-3 {
        fill: #1c3664;
      }

      .cls-1, .cls-2, .cls-3, .cls-4, .cls-5, .cls-6, .cls-7, .cls-8 {
        stroke: #1c3664;
      }

      .cls-1, .cls-2, .cls-3, .cls-4, .cls-5, .cls-6, .cls-7, .cls-8, .cls-9 {
        stroke-miterlimit: 10;
      }

      .cls-2 {
        stroke-width: .586346px;
      }

      .cls-3 {
        stroke-width: .607209px;
      }

      .cls-4, .cls-5, .cls-9 {
        fill: #0b243d;
      }

      .cls-4, .cls-7 {
        stroke-width: .966621px;
      }

      .cls-5 {
        stroke-width: .884134px;
      }

      .cls-6 {
        stroke-width: 2.20085px;
      }

      .cls-6, .cls-7, .cls-8 {
        fill: #1a4572;
      }

      .cls-8 {
        stroke-width: .944891px;
      }

      .cls-9 {
        stroke: #231f20;
        stroke-width: .983622px;
      }
    </style>
  </defs>
  <g id="jack">
    <path class="cls-8" d="M196.283359,8.500388v3.01001l-3.900146,5.960022c-.289795.059998-.589844.089966-.899902.089966H50.393222c-.189941,0-.369873-.009949-.560059-.029968h-.009766c-3.630127-2.320007-5.140137-7.01001-3.350098-11.080017,1.459961-3.349976,4.73999-5.349976,8.179932-5.349976h132.830078c3.439941,0,6.719971,2,8.179932,5.349976.290039.669983.5,1.359985.620117,2.049988Z"/>
    <path class="cls-9" d="M184.523349,66.850425c-1.460205,3.349976-4.73999,5.349976-8.179932,5.349976-1.190186,0-2.400146-.23999-3.560059-.75l-51.720215-22.630005-22.25-9.73999-47.75-20.890015c-.429932-.190002-.849854-.409973-1.22998-.659973h-.009766c-3.630127-2.320007-5.140137-7.01001-3.350098-11.080017,1.459961-3.349976,4.73999-5.349976,8.179932-5.349976,1.190186,0,2.400146.23999,3.560059.75l35.909912,15.709961,26.939941,11.790039h.010254l22.25,9.72998,36.609863,16.02002c4.51001,1.97998,6.570068,7.23999,4.590088,11.75Z"/>
    <path class="cls-9" d="M196.283359,11.510398c-.400146,2.390015-1.780029,4.580017-3.900146,5.960022-.409912.279968-.849854.52002-1.320068.719971l-47.739746,20.890015-22.260254,9.73999-51.709961,22.630005c-1.159912.51001-2.379883.75-3.569824.75-3.439941,0-6.720215-2-8.180176-5.349976-1.969971-4.51001.080078-9.77002,4.600098-11.75l36.609863-16.02002,22.25-9.72998,26.940186-11.790039L183.913242,1.850425c1.160156-.51001,2.380127-.75,3.570068-.75,3.439941,0,6.719971,2,8.179932,5.349976.290039.669983.5,1.359985.620117,2.049988.169922,1.01001.169922,2.030029,0,3.01001Z"/>
    <rect class="cls-9" x="51.286426" y="81.240384" width="150.693306" height="17.836286" rx="8.918134" ry="8.918134" transform="translate(206.512216 223.514518) rotate(-156.370858)"/>
    <rect class="cls-9" x="40.152071" y="81.240384" width="150.693306" height="17.836287" rx="8.918134" ry="8.918134" transform="translate(-26.453366 53.852611) rotate(-23.629142)"/>
    <path class="cls-7" d="M351.533359,173.920432v9.609985c0,13.809998-11.189941,25-25,25H25.463291c-13.800049,0-24.97998-11.179993-24.97998-24.97998v-46.700012c0-9.030029,4.790039-16.940002,11.97998-21.330017,3.790039-2.320007,8.23999-3.659973,13.02002-3.659973h206.47998c.77002,0,1.540039.039978,2.300049.130005,1.949951.219971,3.839844.709961,5.649902,1.469971l12.449951,5.210022,19.870117,8.329956.389893.160034,25.920166,10.849976.399902.160034,39.929932,16.72998c7.670166,3.210022,12.660156,10.710022,12.660156,19.02002Z"/>
    <path class="cls-5" d="M303.993432,124.759278l-10.909912,10.909973-26.309814-11.01001,18.559814-18.559998c1.959961-1.950012,5.120117-1.950012,7.070068,0l11.589844,11.590027c1.950195,1.950012,1.950195,5.119995,0,7.070007Z"/>
    <rect class="cls-6" x="304.386741" y="-30.63903" width="20.970642" height="245.883558" rx="9.057736" ry="9.057736" transform="translate(603.985677 -62.86661) rotate(135.43906)"/>
    <circle class="cls-3" cx="55.067792" cy="10.211868" r="5.779385"/>
    <circle class="cls-3" cx="187.064011" cy="10.211868" r="5.779385"/>
    <circle class="cls-3" cx="121.065901" cy="39.085718" r="5.779385"/>
    <circle class="cls-3" cx="120.940723" cy="87.777679" r="5.779385"/>
    <circle class="cls-3" cx="176.409355" cy="63.510425" r="5.779385"/>
    <circle class="cls-3" cx="66.626562" cy="63.510425" r="5.779385"/>
    <path class="cls-4" d="M92.794635,224.402579v1.960022c0,1.109985-.900146,2-2,2H22.914508c-1.104569,0-2-.895431-2-2v-1.960022c0-1.104569.895431-2,2-2h12.590088c1.656854,0,2.999999-1.343146,2.999997-3l-.000006-6.303925c-.000001-1.270101-.478838-2.496067-1.351588-3.418815-.243875-.257846-.522714-.571056-1.048549-1.147255h41.540039c-.421763.421763-.715302.714086-.964697.9619-.944773.938782-1.475244,2.214383-1.475244,3.546264v6.361831c0,1.656854,1.343146,3,3,3h12.590088c1.099854,0,2,.890015,2,2Z"/>
    <path class="cls-4" d="M328.642767,224.402579v1.960022c0,1.109985-.900146,2-2,2h-67.880127c-1.104569,0-2-.895431-2-2v-1.960022c0-1.104569.895431-2,2-2h12.590088c1.656854,0,2.999999-1.343146,2.999997-3l-.000006-6.303925c-.000001-1.270101-.478838-2.496067-1.351588-3.418815-.243875-.257846-.522714-.571056-1.048549-1.147255h41.540039c-.421763.421763-.715302.714086-.964697.9619-.944773.938782-1.475244,2.214383-1.475244,3.546264v6.361831c0,1.656854,1.343146,3,3,3h12.590088c1.099854,0,2,.890015,2,2Z"/>
    <path class="cls-1" d="M256.76264,139.102944v38.090027c0,10.460275-8.479728,18.940002-18.940002,18.940002H30.01264c-10.460241,0-18.939941-8.479701-18.939941-18.939941v-38.090088c0-10.469971,8.47998-18.949951,18.939941-18.949951h201.949951c.77002,0,1.540039.039978,2.300049.130005,1.949951.219971,3.839844.709961,5.649902,1.469971l7.043188,2.947414c5.783151,2.420117,9.761631,7.995124,9.806415,14.264079.000329.046121.000494.092282.000494.138482Z"/>
    <path class="cls-2" d="M344.793725,173.113015v6.389954c0,9.184498-7.445507,16.630005-16.630005,16.630005h-36.410034c-13.796062,0-24.97998-11.183918-24.97998-24.97998v-13.48999c0-.0903.000479-.180489.001435-.270562.131728-12.416326,13.030099-20.619197,24.48379-15.823839l.774785.324382.26001.099976,17.25,7.220032.26001.109985,26.569824,11.130005c5.100098,2.140015,8.420166,7.130005,8.420166,12.660034Z"/>
  </g>
</svg>