<svg width="306" height="173" viewBox="0 0 306 173" fill="none" xmlns="http://www.w3.org/2000/svg">
<path d="M146.632 8.32377V10.5705L143.721 15.0192C143.505 15.064 143.281 15.0863 143.049 15.0863H37.7371C37.5953 15.0863 37.461 15.0789 37.319 15.064H37.3117C34.6021 13.3323 33.475 9.83155 34.8111 6.79362C35.9009 4.29313 38.3492 2.80029 40.9168 2.80029H140.064C142.631 2.80029 145.08 4.29313 146.169 6.79362C146.386 7.29371 146.543 7.80874 146.632 8.32377Z" fill="#1A4572" stroke="#1C3664" stroke-width="0.944891" stroke-miterlimit="10"/>
<path d="M137.854 51.8774C136.764 54.3778 134.316 55.8707 131.749 55.8707C130.86 55.8707 129.957 55.6916 129.091 55.3109L90.4864 38.4194L73.8786 31.1493L38.2371 15.5566C37.9162 15.4148 37.6027 15.2506 37.319 15.064H37.3117C34.6021 13.3323 33.475 9.83155 34.8111 6.79362C35.9009 4.29313 38.3492 2.80029 40.9168 2.80029C41.8052 2.80029 42.7083 2.97943 43.5741 3.36011L70.3779 15.0863L90.4864 23.8866H90.4941L107.102 31.1493L134.428 43.1069C137.795 44.5848 139.332 48.511 137.854 51.8774Z" fill="#0B243D" stroke="#231F20" stroke-width="0.983622" stroke-miterlimit="10"/>
<path d="M146.632 10.5705C146.334 12.3545 145.304 13.9891 143.721 15.0192C143.415 15.2281 143.087 15.4073 142.736 15.5566L107.102 31.1493L90.4865 38.4194L51.8891 55.3109C51.0234 55.6916 50.1128 55.8707 49.2246 55.8707C46.6569 55.8707 44.2085 54.3778 43.1187 51.8774C41.6483 48.511 43.1785 44.5848 46.5523 43.1069L73.8786 31.1493L90.4865 23.8866L110.595 15.0863L137.399 3.36011C138.265 2.97943 139.176 2.80029 140.064 2.80029C142.631 2.80029 145.08 4.29313 146.169 6.79362C146.386 7.29371 146.543 7.80874 146.632 8.32377C146.759 9.07766 146.759 9.83902 146.632 10.5705Z" fill="#0B243D" stroke="#231F20" stroke-width="0.983622" stroke-miterlimit="10"/>
<path d="M46.5494 55.4997L137.402 95.2473C140.77 96.7209 144.695 95.185 146.169 91.8168L146.169 91.8168C147.642 88.4487 146.107 84.5237 142.738 83.0502L51.8856 43.3025C48.5175 41.829 44.5925 43.3649 43.119 46.733C41.6454 50.1012 43.1813 54.0261 46.5494 55.4997Z" fill="#0B243D"/>
<path d="M137.402 95.2473L46.5494 55.4997C43.1813 54.0261 41.6454 50.1012 43.119 46.733L43.119 46.733C44.5925 43.3649 48.5175 41.829 51.8856 43.3025L142.738 83.0502C146.107 84.5237 147.642 88.4487 146.169 91.8168L146.169 91.8168C144.695 95.185 140.77 96.7209 137.402 95.2473Z" stroke="#231F20" stroke-width="0.983622" stroke-miterlimit="10"/>
<path d="M129.091 43.3025L38.2386 83.0502C34.8704 84.5237 33.3346 88.4487 34.8081 91.8168L34.8081 91.8168C36.2817 95.185 40.2066 96.7209 43.5748 95.2473L134.428 55.4997C137.796 54.0261 139.332 50.1012 137.858 46.733C136.384 43.3648 132.46 41.829 129.091 43.3025Z" fill="#0B243D"/>
<path d="M38.2386 83.0502L129.091 43.3025C132.46 41.829 136.384 43.3648 137.858 46.733L137.858 46.733C139.332 50.1012 137.796 54.0261 134.428 55.4997L43.5748 95.2473C40.2066 96.7209 36.2817 95.185 34.8081 91.8168L34.8081 91.8168C33.3346 88.4487 34.8704 84.5237 38.2386 83.0502Z" stroke="#231F20" stroke-width="0.983622" stroke-miterlimit="10"/>
<path d="M262.514 131.796V138.969C262.514 149.278 254.161 157.63 243.853 157.63H19.1289C8.82825 157.63 0.483337 149.285 0.483337 138.984V104.127C0.483337 97.3864 4.05872 91.4823 9.42543 88.2055C12.2544 86.4738 15.5759 85.4736 19.1438 85.4736H173.264C173.839 85.4736 174.414 85.5035 174.981 85.5707C176.437 85.7349 177.847 86.1006 179.198 86.6679L188.491 90.5567L203.323 96.7744L203.614 96.8938L222.961 104.992L223.26 105.112L253.064 117.599C258.789 119.996 262.514 125.594 262.514 131.796Z" fill="#1A4572" stroke="#1C3664" stroke-width="0.966621" stroke-miterlimit="10"/>
<path d="M227.029 95.1016L218.886 103.245L199.248 95.027L213.101 81.1734C214.564 79.7179 216.923 79.7179 218.378 81.1734L227.029 89.8245C228.485 91.28 228.485 93.6461 227.029 95.1016Z" fill="#0B243D" stroke="#1C3664" stroke-width="0.884134" stroke-miterlimit="10"/>
<path d="M298.779 137.007L300.298 135.511C302.958 132.891 302.991 128.611 300.371 125.95L181.08 4.81718C178.46 2.15673 174.18 2.12395 171.519 4.74392L170.001 6.23928C167.34 8.85925 167.307 13.1399 169.927 15.8003L289.218 136.934C291.838 139.594 296.119 139.627 298.779 137.007Z" fill="#1A4572" stroke="#1C3664" stroke-width="2.20085" stroke-miterlimit="10"/>
<path d="M41.2263 13.915C43.6087 13.915 45.5401 11.9837 45.5401 9.6012C45.5401 7.21873 43.6087 5.28735 41.2263 5.28735C38.8438 5.28735 36.9124 7.21873 36.9124 9.6012C36.9124 11.9837 38.8438 13.915 41.2263 13.915Z" fill="#1A4572" stroke="#1C3664" stroke-width="0.607209" stroke-miterlimit="10"/>
<path d="M139.751 13.915C142.133 13.915 144.065 11.9837 144.065 9.6012C144.065 7.21873 142.133 5.28735 139.751 5.28735C137.368 5.28735 135.437 7.21873 135.437 9.6012C135.437 11.9837 137.368 13.915 139.751 13.915Z" fill="#1A4572" stroke="#1C3664" stroke-width="0.607209" stroke-miterlimit="10"/>
<path d="M90.4885 35.467C92.8709 35.467 94.8023 33.5357 94.8023 31.1532C94.8023 28.7707 92.8709 26.8394 90.4885 26.8394C88.106 26.8394 86.1746 28.7707 86.1746 31.1532C86.1746 33.5357 88.106 35.467 90.4885 35.467Z" fill="#1A4572" stroke="#1C3664" stroke-width="0.607209" stroke-miterlimit="10"/>
<path d="M90.3951 71.8116C92.7775 71.8116 94.7089 69.8803 94.7089 67.4978C94.7089 65.1153 92.7775 63.184 90.3951 63.184C88.0126 63.184 86.0812 65.1153 86.0812 67.4978C86.0812 69.8803 88.0126 71.8116 90.3951 71.8116Z" fill="#1A4572" stroke="#1C3664" stroke-width="0.607209" stroke-miterlimit="10"/>
<path d="M131.798 53.6981C134.18 53.6981 136.112 51.7667 136.112 49.3843C136.112 47.0018 134.18 45.0704 131.798 45.0704C129.415 45.0704 127.484 47.0018 127.484 49.3843C127.484 51.7667 129.415 53.6981 131.798 53.6981Z" fill="#1A4572" stroke="#1C3664" stroke-width="0.607209" stroke-miterlimit="10"/>
<path d="M49.8539 53.6981C52.2364 53.6981 54.1678 51.7667 54.1678 49.3843C54.1678 47.0018 52.2364 45.0704 49.8539 45.0704C47.4715 45.0704 45.5401 47.0018 45.5401 49.3843C45.5401 51.7667 47.4715 53.6981 49.8539 53.6981Z" fill="#1A4572" stroke="#1C3664" stroke-width="0.607209" stroke-miterlimit="10"/>
<path d="M69.3863 169.477V170.94C69.3863 171.769 68.7144 172.433 67.8935 172.433H17.2264C16.4019 172.433 15.7336 171.765 15.7336 170.94V169.477C15.7336 168.653 16.4019 167.984 17.2264 167.984H26.6239C27.8606 167.984 28.8632 166.982 28.8632 165.745L28.8632 161.04C28.8632 160.092 28.5057 159.177 27.8543 158.488C27.6723 158.295 27.4641 158.062 27.0716 157.632H58.0779C57.7631 157.946 57.544 158.165 57.3579 158.35C56.6527 159.05 56.2567 160.002 56.2567 160.997V165.745C56.2567 166.982 57.2593 167.984 58.496 167.984H67.8935C68.7144 167.984 69.3863 168.649 69.3863 169.477Z" fill="#0B243D" stroke="#1C3664" stroke-width="0.966621" stroke-miterlimit="10"/>
<path d="M245.428 169.477V170.94C245.428 171.769 244.756 172.433 243.935 172.433H193.268C192.444 172.433 191.775 171.765 191.775 170.94V169.477C191.775 168.653 192.444 167.984 193.268 167.984H202.665C203.902 167.984 204.905 166.982 204.905 165.745V161.04C204.905 160.092 204.547 159.177 203.896 158.488C203.714 158.295 203.506 158.062 203.113 157.632H234.119C233.805 157.946 233.586 158.165 233.399 158.35C232.694 159.05 232.298 160.002 232.298 160.997V165.745C232.298 166.982 233.301 167.984 234.538 167.984H243.935C244.756 167.984 245.428 168.649 245.428 169.477Z" fill="#0B243D" stroke="#1C3664" stroke-width="0.966621" stroke-miterlimit="10"/>
<path d="M191.775 105.808V134.239C191.775 142.047 185.446 148.376 177.638 148.376H22.5246C14.7169 148.376 8.38745 142.047 8.38745 134.239V105.808C8.38745 97.993 14.7171 91.6633 22.5246 91.6633H173.264C173.839 91.6633 174.413 91.6932 174.981 91.7604C176.436 91.9246 177.847 92.2903 179.198 92.8576L184.455 95.0576C188.772 96.864 191.741 101.025 191.775 105.705C191.775 105.739 191.775 105.773 191.775 105.808Z" fill="#0B243D" stroke="#1C3664" stroke-width="0.92114" stroke-miterlimit="10"/>
<path d="M257.483 131.194V135.963C257.483 142.819 251.926 148.376 245.07 148.376H217.893C207.596 148.376 199.248 140.028 199.248 129.731V119.662C199.248 119.594 199.248 119.527 199.249 119.46C199.347 110.192 208.975 104.069 217.524 107.648L218.102 107.891L218.296 107.965L231.172 113.354L231.366 113.436L251.198 121.744C255.005 123.341 257.483 127.066 257.483 131.194Z" fill="#0B243D" stroke="#1C3664" stroke-width="0.586346" stroke-miterlimit="10"/>
<path d="M30.2365 131.288C29.3405 131.288 28.6578 131.054 28.1885 130.584C27.7191 130.115 27.4845 129.422 27.4845 128.504V111.064C27.4845 110.126 27.7191 109.411 28.1885 108.92C28.6578 108.408 29.2765 108.152 30.0445 108.152C30.7271 108.152 31.2605 108.28 31.6445 108.536C32.0285 108.792 32.4551 109.219 32.9245 109.816L43.0685 122.488H42.1725V110.904C42.1725 110.008 42.3965 109.326 42.8445 108.856C43.3138 108.387 43.9965 108.152 44.8925 108.152C45.7885 108.152 46.4605 108.387 46.9085 108.856C47.3778 109.326 47.6125 110.008 47.6125 110.904V128.632C47.6125 129.443 47.3991 130.094 46.9725 130.584C46.5458 131.054 45.9698 131.288 45.2445 131.288C44.5191 131.288 43.9431 131.16 43.5165 130.904C43.1111 130.627 42.6738 130.2 42.2045 129.624L32.0605 116.92H32.9565V128.504C32.9565 129.422 32.7218 130.115 32.2525 130.584C31.8045 131.054 31.1325 131.288 30.2365 131.288ZM62.6145 131.352C60.3318 131.352 58.3265 130.872 56.5985 129.912C54.8705 128.931 53.5265 127.566 52.5665 125.816C51.6278 124.067 51.1585 122.03 51.1585 119.704C51.1585 117.955 51.4251 116.366 51.9585 114.936C52.5131 113.507 53.2918 112.28 54.2945 111.256C55.3185 110.232 56.5345 109.454 57.9425 108.92C59.3505 108.366 60.9078 108.088 62.6145 108.088C64.8971 108.088 66.8918 108.568 68.5985 109.528C70.3265 110.488 71.6705 111.843 72.6305 113.592C73.5905 115.32 74.0705 117.358 74.0705 119.704C74.0705 121.454 73.7931 123.043 73.2385 124.472C72.7051 125.902 71.9265 127.139 70.9025 128.184C69.8998 129.208 68.6945 129.998 67.2865 130.552C65.8785 131.086 64.3211 131.352 62.6145 131.352ZM62.6145 126.424C63.7451 126.424 64.7051 126.158 65.4945 125.624C66.2838 125.091 66.8918 124.323 67.3185 123.32C67.7451 122.318 67.9585 121.112 67.9585 119.704C67.9585 117.592 67.4891 115.95 66.5505 114.776C65.6118 113.603 64.2998 113.016 62.6145 113.016C61.5051 113.016 60.5451 113.283 59.7345 113.816C58.9451 114.328 58.3371 115.086 57.9105 116.088C57.4838 117.07 57.2705 118.275 57.2705 119.704C57.2705 121.816 57.7398 123.47 58.6785 124.664C59.6171 125.838 60.9291 126.424 62.6145 126.424ZM86.8092 131.288C85.9985 131.288 85.3372 131.118 84.8252 130.776C84.3345 130.435 83.9185 129.891 83.5772 129.144L75.8332 112.056C75.4919 111.31 75.3852 110.638 75.5132 110.04C75.6412 109.443 75.9399 108.984 76.4092 108.664C76.8785 108.323 77.4652 108.152 78.1692 108.152C79.0439 108.152 79.6945 108.344 80.1212 108.728C80.5692 109.112 80.9532 109.678 81.2732 110.424L87.8012 125.528H86.0092L92.5372 110.392C92.8572 109.646 93.2412 109.091 93.6892 108.728C94.1372 108.344 94.7665 108.152 95.5772 108.152C96.2385 108.152 96.7932 108.323 97.2412 108.664C97.6892 108.984 97.9665 109.443 98.0732 110.04C98.2012 110.638 98.0945 111.31 97.7532 112.056L89.9772 129.144C89.6572 129.891 89.2519 130.435 88.7612 130.776C88.2705 131.118 87.6199 131.288 86.8092 131.288ZM103.775 131C102.773 131 102.005 130.744 101.471 130.232C100.959 129.699 100.703 128.942 100.703 127.96V111.48C100.703 110.499 100.959 109.752 101.471 109.24C102.005 108.707 102.773 108.44 103.775 108.44H114.623C115.391 108.44 115.967 108.632 116.351 109.016C116.735 109.4 116.927 109.955 116.927 110.68C116.927 111.427 116.735 112.003 116.351 112.408C115.967 112.792 115.391 112.984 114.623 112.984H106.335V117.272H113.919C114.666 117.272 115.231 117.464 115.615 117.848C116.021 118.232 116.223 118.798 116.223 119.544C116.223 120.291 116.021 120.856 115.615 121.24C115.231 121.624 114.666 121.816 113.919 121.816H106.335V126.456H114.623C115.391 126.456 115.967 126.659 116.351 127.064C116.735 127.448 116.927 128.003 116.927 128.728C116.927 129.475 116.735 130.04 116.351 130.424C115.967 130.808 115.391 131 114.623 131H103.775ZM123.335 131C122.397 131 121.661 130.744 121.127 130.232C120.615 129.699 120.359 128.963 120.359 128.024V111.384C120.359 110.424 120.615 109.688 121.127 109.176C121.639 108.664 122.365 108.408 123.303 108.408C124.263 108.408 124.989 108.664 125.479 109.176C125.991 109.688 126.247 110.424 126.247 111.384V126.104H134.055C134.866 126.104 135.485 126.318 135.911 126.744C136.359 127.15 136.583 127.747 136.583 128.536C136.583 129.326 136.359 129.934 135.911 130.36C135.485 130.787 134.866 131 134.055 131H123.335ZM143.084 131.288C142.146 131.288 141.42 131.032 140.908 130.52C140.396 129.987 140.14 129.251 140.14 128.312V113.24H135.116C134.327 113.24 133.719 113.038 133.292 112.632C132.887 112.206 132.684 111.608 132.684 110.84C132.684 110.051 132.887 109.454 133.292 109.048C133.719 108.643 134.327 108.44 135.116 108.44H151.052C151.842 108.44 152.439 108.643 152.844 109.048C153.271 109.454 153.484 110.051 153.484 110.84C153.484 111.608 153.271 112.206 152.844 112.632C152.439 113.038 151.842 113.24 151.052 113.24H146.028V128.312C146.028 129.251 145.783 129.987 145.292 130.52C144.802 131.032 144.066 131.288 143.084 131.288ZM164.209 131.288C163.271 131.288 162.545 131.032 162.033 130.52C161.521 129.987 161.265 129.23 161.265 128.248V119.48L162.481 122.712L155.121 112.12C154.759 111.608 154.599 111.043 154.641 110.424C154.705 109.784 154.961 109.251 155.409 108.824C155.879 108.376 156.54 108.152 157.393 108.152C157.991 108.152 158.535 108.302 159.025 108.6C159.516 108.878 159.975 109.358 160.401 110.04L164.881 116.632H163.729L168.209 110.008C168.657 109.326 169.116 108.846 169.585 108.568C170.055 108.291 170.609 108.152 171.249 108.152C172.06 108.152 172.689 108.355 173.137 108.76C173.585 109.166 173.82 109.678 173.841 110.296C173.884 110.915 173.692 111.544 173.265 112.184L165.969 122.712L167.153 119.48V128.248C167.153 130.275 166.172 131.288 164.209 131.288Z" fill="#FF6B35"/>
</svg>
