<?xml version="1.0" encoding="UTF-8"?>
<svg id="Layer_2" data-name="Layer 2" xmlns="http://www.w3.org/2000/svg" viewBox="0 0 53.008942 288.472419">
  <defs>
    <style>
      .cls-1 {
        fill: #0b243d;
        stroke-width: .589329px;
      }

      .cls-1, .cls-2 {
        stroke: #1c3664;
        stroke-miterlimit: 10;
      }

      .cls-2 {
        fill: #1a4572;
        stroke-width: .738922px;
      }
    </style>
  </defs>
  <g id="key">
    <path class="cls-1" d="M28.209549.347391C13.059647-.60256.469559,11.407389.469559,26.367411c0,8.130005,3.719971,15.400024,9.570068,20.179993,1.189941.970032,1.909912,2.390015,1.909912,3.929993v192.809998c4.160156-2.789978,9.169922-4.419983,14.550049-4.419983,5.409912,0,10.439941,1.640015,14.619873,4.460022V50.467447c0-1.52002.720215-2.950012,1.900146-3.910034,6.02002-4.919983,9.800049-12.47998,9.570068-20.909973C52.229569,12.297403,41.539627,1.187418,28.209549.347391ZM32.154517,40.517196h-11.240032c-1.785875,0-3.436163-.952516-4.329493-2.498902l-5.621764-9.731483c-.893801-1.547202-.894023-3.453775-.000583-5.001186l5.622541-9.738071c.893177-1.546956,2.543785-2.499912,4.330076-2.499912h11.238478c1.786292,0,3.436899.952956,4.330076,2.499912l5.622541,9.738071c.89344,1.547411.893218,3.453983-.000583,5.001186l-5.621764,9.731483c-.89333,1.546387-2.543618,2.498902-4.329493,2.498902Z"/>
    <path class="cls-2" d="M52.639481,265.007425l-.000285.123534c-.010075,4.370109-5.796799,5.910502-7.978184,2.123747l-1.271531-2.207302.02002-.039978-3.889893-6.73999-3.117222-5.40724c-.892741-1.54858-2.544259-2.502794-4.331739-2.502794h-11.135272c-1.785785,0-3.436004.95242-4.329367,2.498683l-3.12644,5.411351-2.446561,4.23914c-.893107,1.54748-.892597,3.453926.001339,5.000928l6.125154,10.599898-.029785.049988,1.959953,3.393779c2.216405,3.837841-2.107218,8.192416-5.918004,5.929809-7.666603-4.55195-12.802203-12.913543-12.802203-22.473551,0-9.049988,4.600098-17.02002,11.580078-21.720032,4.160156-2.789978,9.169922-4.419983,14.550049-4.419983,5.409912,0,10.439941,1.640015,14.619873,4.460022,6.950195,4.700012,11.52002,12.659973,11.52002,21.679993Z"/>
  </g>
</svg>