<?xml version="1.0" encoding="UTF-8"?>
<svg id="Layer_2" data-name="Layer 2" xmlns="http://www.w3.org/2000/svg" viewBox="0 0 286.914186 162.097994">
  <defs>
    <style>
      .cls-1 {
        fill: #45c6ef;
      }

      .cls-1, .cls-2, .cls-3, .cls-4, .cls-5, .cls-6, .cls-7 {
        stroke: #231f20;
        stroke-miterlimit: 10;
      }

      .cls-1, .cls-5, .cls-7 {
        stroke-width: .570699px;
      }

      .cls-2 {
        stroke-width: .68763px;
      }

      .cls-3 {
        stroke-width: .670515px;
      }

      .cls-4 {
        stroke-width: .812909px;
      }

      .cls-5 {
        fill: #f16b3b;
      }

      .cls-6 {
        fill: #064f89;
        stroke-width: .4883px;
      }

      .cls-7 {
        fill: #054f88;
      }
    </style>
  </defs>
  <g id="Layer_19" data-name="Layer 19">
    <path class="cls-2" d="M228.821769,134.395965c-3.869454.959226-7.925861,1.455089-12.096087,1.455089-28.159172,0-50.993801-22.83458-50.993801-51.001888,0-28.175396,22.834629-51.010025,50.993801-51.010025,3.79627,0,7.494995.414591,11.047402,1.203089,22.867128,5.040044,39.97076,25.42781,39.97076,49.806936,0,23.997083-16.583359,44.132799-38.922076,49.5468ZM227.488587,36.302278c-3.462999-.772273-7.072316-1.170591-10.771041-1.170591-27.460082,0-49.725616,22.265534-49.725616,49.74189,0,27.460033,22.265534,49.725616,49.725616,49.725616,4.064544,0,8.015269-.479638,11.795314-1.414453,21.777808-5.283907,37.946576-24.915674,37.946576-48.311162,0-23.777582-16.672767-43.653211-38.970849-48.571299Z"/>
    <path class="cls-6" d="M216.74003,35.171229c-27.390321,0-49.591907,22.201586-49.591907,49.591907s22.201586,49.591907,49.591907,49.591907c27.397283,0,49.598869-22.201586,49.598869-49.591907s-22.201586-49.591907-49.598869-49.591907ZM216.746992,131.955468c-26.06186,0-47.192332-21.130472-47.192332-47.192332s21.130472-47.185327,47.192332-47.185327,47.185327,21.123509,47.185327,47.185327-21.123509,47.192332-47.185327,47.192332Z"/>
    <path class="cls-4" d="M244.260023,101.315776l9.412947,28.973768c.996773,3.068144-2.515146,5.619158-5.124719,3.722532l-24.640438-17.908558c-.695124-.505213-1.56012-.734207-2.409489-.603792-1.550758.238109-3.138277.363035-4.750745.363035-1.612591,0-3.20017-.124938-4.751019-.363072-.849239-.130401-1.71411.098517-2.409185.603575l-24.649518,17.910905c-2.609632,1.896219-6.121129-.654791-5.124415-3.722753l9.413555-28.975641c.265731-.817942.215298-1.712055-.171914-2.47998-1.406122-2.788643-2.407955-5.822578-2.922235-9.018612-.136497-.848274-.623941-1.600147-1.318989-2.10523l-24.655261-17.916688c-2.6094-1.89622-1.268079-6.023713,1.95754-6.023713h30.480046c.859226,0,1.694022-.323065,2.304145-.928061,2.243926-2.225071,4.828405-4.111009,7.666255-5.570685.763518-.392723,1.327794-1.087299,1.593186-1.903851l9.420278-28.984065c.997062-3.067733,5.33717-3.067464,6.333851.000393l9.413449,28.975276c.26532.816676.8296,1.51139,1.593193,1.904175,2.837764,1.459716,5.422168,3.346204,7.666042,5.576304.610295.606549,1.446238.930514,2.306681.930514h30.477617c3.225619,0,4.56694,4.127493,1.95754,6.023713l-24.655261,17.916688c-.695048.505083-1.182492,1.256956-1.318989,2.10523-.51428,3.196034-1.516113,6.229969-2.922235,9.018612-.387212.767925-.437646,1.662039-.171914,2.47998Z"/>
    <g>
      <polygon class="cls-1" points="216.611109 103.220246 219.922694 104.844003 220.172273 108.523798 217.110266 110.579837 213.798681 108.956081 213.549102 105.276285 216.611109 103.220246"/>
      <polygon class="cls-1" points="202.301583 96.20148 203.096819 99.802978 200.375449 102.292421 196.858843 101.180367 196.063606 97.57887 198.784976 95.089426 202.301583 96.20148"/>
      <polygon class="cls-1" points="198.868002 80.638471 196.548059 83.505709 192.904988 82.930198 191.581859 79.487451 193.901801 76.620213 197.544873 77.195724 198.868002 80.638471"/>
      <polygon class="cls-1" points="208.894305 68.250038 205.206148 68.223927 203.384682 65.016834 205.251373 61.835852 208.93953 61.861962 210.760996 65.069055 208.894305 68.250038"/>
      <polygon class="cls-1" points="224.831063 68.36521 222.551949 65.465413 223.92369 62.041744 227.574545 61.517872 229.853659 64.417669 228.481918 67.841338 224.831063 68.36521"/>
      <polygon class="cls-1" points="234.678237 80.896716 235.524385 77.306839 239.056384 76.244686 241.742235 78.772411 240.896086 82.362288 237.364088 83.42444 234.678237 80.896716"/>
      <polygon class="cls-1" points="231.019029 96.408213 234.353273 94.831507 237.385863 96.930694 237.084209 100.606587 233.749965 102.183293 230.717375 100.084106 231.019029 96.408213"/>
    </g>
    <polygon class="cls-7" points="219.623771 90.961847 212.894394 90.402506 210.014109 84.295024 213.863201 78.746883 220.592578 79.306224 223.472863 85.413706 219.623771 90.961847"/>
    <path class="cls-3" d="M216.741907,15.020282h-.008087c-38.564394,0-69.828883,31.264489-69.828883,69.828883,0,38.572531,31.264489,69.836971,69.828883,69.836971h.008087c38.580668-.008087,69.83702-31.26444,69.83702-69.836971,0-38.564394-31.256352-69.820746-69.83702-69.828883ZM228.51286,133.184739c-3.780046.934815-7.73077,1.414453-11.795314,1.414453-27.460082,0-49.725616-22.265583-49.725616-49.725616,0-27.476356,22.265534-49.74189,49.725616-49.74189,3.698725,0,7.308042.398317,10.771041,1.170591,22.298082,4.918088,38.970849,24.793718,38.970849,48.571299,0,23.395489-16.168767,43.027255-37.946576,48.311162Z"/>
    <path class="cls-5" d="M216.743486,154.950595c-18.835082,10.982405-50.790524,5.66595-55.147703,4.94245-12.705768-2.113543-23.045993-8.82004-30.849898-11.89281-20.078857-11.120636-15.843584-12.55945-30.817399-18.201039-26.882899-10.128861-38.239211,4.349042-60.805566-11.023041,24.915382.609674,34.97789-4.324864,43.407607-9.620192,9.674308-7.325732,12.130322-15.327948,12.553054-18.799116.585271-4.901814-1.170591-14.68113-7.251182-19.973174-5.706586-4.63359-13.916994-9.275267-31.272577-10.340176-15.155369.168477-36.293303,5.520074-55.489161,23.094716,7.909586-14.502265,23.720672-39.165939,59.366751-43.035392,5.66595-.617819,13.62671-1.060663,30.795339,3.938746,7.717552,2.572517,18.960406.952784,28.202412-1.238619,17.176766-3.885678,32.584529-15.495302,32.08053-20.445889-.804772-7.950272-25.102627-7.072316-45.433483.203227,11.559589-13.949542,70.747474-38.190488,110.661275-7.275543-38.564394,0-69.828834,31.26444-69.828834,69.828834,0,38.572531,31.26444,69.83702,69.828834,69.83702Z"/>
  </g>
</svg>