<?xml version="1.0" encoding="UTF-8"?>
<svg id="Layer_2" data-name="Layer 2" xmlns="http://www.w3.org/2000/svg" viewBox="0 0 286.914186 162.097994">
  <defs>
    <style>
      .cls-1 {
        fill: #45c6ef;
      }

      .cls-1, .cls-2, .cls-3, .cls-4, .cls-5, .cls-6, .cls-7 {
        stroke: #231f20;
        stroke-miterlimit: 10;
      }

      .cls-1, .cls-5, .cls-7 {
        stroke-width: .570699px;
      }

      .cls-2 {
        stroke-width: .68763px;
      }

      .cls-3 {
        stroke-width: .670515px;
      }

      .cls-4 {
        stroke-width: .812909px;
      }

      .cls-5 {
        fill: #f16b3b;
      }

      .cls-6 {
        fill: #064f89;
        stroke-width: .4883px;
      }

      .cls-7 {
        fill: #054f88;
      }
    </style>
  </defs>
  <g id="logo">
    <g id="wheel">
      <path class="cls-2" d="M228.821769,134.395965c-3.725399.923516-7.624089,1.417526-11.630806,1.453029-27.884849.247083-51.082793-22.420285-51.45444-50.303751-.37979-28.494421,22.598453-51.706102,50.98916-51.706102,3.79627,0,7.494995.414591,11.047402,1.203089,22.867128,5.040044,39.97076,25.42781,39.97076,49.806936,0,23.997083-16.583359,44.132799-38.922076,49.5468ZM227.488587,36.302278c-3.462999-.772273-7.072316-1.170591-10.771041-1.170591-29.150229,0-52.44679,25.090735-49.468588,54.87058,2.541224,25.410385,24.458458,44.854732,49.994269,44.594247,3.8796-.039575,7.652748-.517309,11.269633-1.411774,21.777808-5.283907,37.946576-24.915674,37.946576-48.311162,0-23.777582-16.672767-43.653211-38.970849-48.571299Z"/>
      <path class="cls-6" d="M219.336315,35.237492c-29.439623-1.500428-53.621852,22.681468-52.121977,52.120977,1.283793,25.198258,21.766677,45.6665,46.965851,46.932187,29.424304,1.477905,53.581243-22.685224,52.093468-52.103693-1.27416-25.194559-21.743285-45.665424-46.937342-46.949472ZM219.20558,131.892999c-28.002442,1.420826-51.009277-21.586009-49.588451-49.588451,1.21638-23.973112,20.697689-43.448097,44.670812-44.66427,28.003223-1.420623,51.002532,21.578686,49.581909,49.581909-1.216173,23.973123-20.691158,43.454432-44.66427,44.670812Z"/>
      <path class="cls-4" d="M244.276817,101.367464l9.396153,28.92208c.996773,3.068144-2.515146,5.619158-5.12472,3.722532l-24.640438-17.908558c-.695126-.505214-1.560124-.734209-2.409496-.603792-1.550755.23811-3.138272.363035-4.750738.363035-1.612589,0-3.200166-.124938-4.751011-.363072-.849242-.130402-1.714115.098517-2.409192.603575l-24.649518,17.910905c-2.609633,1.896219-6.12113-.654791-5.124416-3.722753l9.396762-28.923952c.273514-.841898.230636-1.764955-.167231-2.555717-1.387231-2.757123-2.379426-5.753551-2.896232-8.908999-.142071-.867436-.593662-1.653612-1.304733-2.170339l-24.683409-17.937144c-2.6094-1.89622-1.268079-6.023713,1.957541-6.023713h30.547993c.855416,0,1.661238-.359695,2.269561-.961093,2.221027-2.195739,4.774269-4.059806,7.575569-5.50809.76839-.397261,1.366434-1.059383,1.633807-1.882031l9.436979-29.035447c.997062-3.067733,5.337171-3.067464,6.333852.000393l9.430209,29.026861c.267269.822674.865275,1.484825,1.633649,1.882099,2.8013,1.448362,5.354542,3.313054,7.575569,5.513794.608345.602788,1.414892.963514,2.271302.963514h30.546252c3.225619,0,4.56694,4.127493,1.957541,6.023714l-24.683409,17.937144c-.711071.516727-1.162663,1.302903-1.304733,2.170339-.516806,3.155448-1.509001,6.151875-2.896232,8.908999-.397867.790761-.440745,1.713819-.167231,2.555717Z"/>
      <g>
        <polygon class="cls-1" points="216.611109 103.220246 219.922694 104.844003 220.172273 108.523798 217.110266 110.579837 213.798681 108.956081 213.549102 105.276285 216.611109 103.220246"/>
        <polygon class="cls-1" points="202.301583 96.20148 203.096819 99.802978 200.375449 102.292421 196.858843 101.180367 196.063606 97.57887 198.784976 95.089426 202.301583 96.20148"/>
        <polygon class="cls-1" points="198.868002 80.638471 196.548059 83.505709 192.904988 82.930198 191.581859 79.487451 193.901801 76.620213 197.544873 77.195724 198.868002 80.638471"/>
        <polygon class="cls-1" points="208.894305 68.250038 205.206148 68.223927 203.384682 65.016834 205.251373 61.835852 208.93953 61.861962 210.760996 65.069055 208.894305 68.250038"/>
        <polygon class="cls-1" points="224.831063 68.36521 222.551949 65.465413 223.92369 62.041744 227.574545 61.517872 229.853659 64.417669 228.481918 67.841338 224.831063 68.36521"/>
        <polygon class="cls-1" points="234.678237 80.896716 235.524385 77.306839 239.056384 76.244686 241.742235 78.772411 240.896086 82.362288 237.364088 83.42444 234.678237 80.896716"/>
        <polygon class="cls-1" points="231.019029 96.408213 234.353273 94.831507 237.385863 96.930694 237.084209 100.606587 233.749965 102.183293 230.717375 100.084106 231.019029 96.408213"/>
      </g>
      <polygon class="cls-7" points="219.623771 90.961847 212.894394 90.402506 210.014109 84.295024 213.863201 78.746883 220.592578 79.306224 223.472863 85.413706 219.623771 90.961847"/>
      <path class="cls-3" d="M216.741907,15.020282h-.008087c-38.564394,0-69.828883,31.264489-69.828883,69.828883,0,38.572531,31.264489,69.836971,69.828883,69.836971h.008087c38.580668-.008087,69.83702-31.26444,69.83702-69.836971,0-38.564394-31.256352-69.820746-69.83702-69.828883ZM228.51286,133.184739c-3.616885.894465-7.390033,1.372199-11.269633,1.411774-25.535811.260485-47.453046-19.183862-49.994269-44.594247-2.978201-29.779845,20.31836-54.87058,49.468588-54.87058,3.698725,0,7.308042.398317,10.771041,1.170591,22.298082,4.918088,38.970849,24.793718,38.970849,48.571299,0,23.395489-16.168767,43.027255-37.946576,48.311162Z"/>
    </g>
    <path id="fire" class="cls-5" d="M216.743486,154.950595c-18.835082,10.982405-50.790524,5.66595-55.147703,4.94245-12.705768-2.113543-23.045993-8.82004-30.849898-11.89281-20.078857-11.120636-15.843584-12.55945-30.817399-18.201039-26.882899-10.128861-38.239211,4.349042-60.805566-11.023041,24.915382.609674,34.97789-4.324864,43.407607-9.620192,9.674308-7.325732,12.130322-15.327948,12.553054-18.799116.585271-4.901814-1.170591-14.68113-7.251182-19.973174-5.706586-4.63359-13.916994-9.275267-31.272577-10.340176-15.155369.168477-36.293303,5.520074-55.489161,23.094716,7.909586-14.502265,23.720672-39.165939,59.366751-43.035392,5.66595-.617819,13.62671-1.060663,30.795339,3.938746,7.717552,2.572517,18.960406.952784,28.202412-1.238619,17.176766-3.885678,32.584529-15.495302,32.08053-20.445889-.804772-7.950272-25.102627-7.072316-45.433483.203227,11.559589-13.949542,70.747474-38.190488,110.661275-7.275543-38.564394,0-69.828834,31.26444-69.828834,69.828834,0,38.572531,31.26444,69.83702,69.828834,69.83702Z"/>
  </g>
</svg>