<?xml version="1.0" encoding="UTF-8"?>
<svg id="Layer_2" data-name="Layer 2" xmlns="http://www.w3.org/2000/svg" viewBox="0 0 171.223824 336.729343">
  <defs>
    <style>
      .cls-1, .cls-2 {
        fill: #0b243d;
      }

      .cls-1, .cls-2, .cls-3, .cls-4 {
        stroke: #1c3664;
        stroke-miterlimit: 10;
      }

      .cls-1, .cls-3 {
        stroke-width: .127899px;
      }

      .cls-2 {
        stroke-width: .151761px;
      }

      .cls-3 {
        fill: #1a4572;
      }

      .cls-4 {
        fill: none;
        stroke-width: .11462px;
      }
    </style>
  </defs>
  <g id="pincers">
    <path class="cls-2" d="M113.505812,85.475015c0,15.429993-12.51001,27.929993-27.929932,27.929993-.030029,12.539978-5.47998,22.779968-12.389893,23.609985l-.910156.059998c-31.089844,0-56.300049,87.780029-56.72998,196.849976-.01001,1.430054-1.169922,2.600037-2.609863,2.600037H2.685988c-1.441523,0-2.610107-1.168585-2.610107-2.610107v-2.9599C.635934,214.965979,26.775393,120.84659,59.735207,113.745158c2.322275-.500351,4.000829-2.514572,4.000829-4.890138v-4.302071c0-1.016741-.298576-2.017225-.89139-2.843261-3.280545-4.571158-5.20857-10.174289-5.208707-16.234028-.000351-15.465368,13.13091-28.277582,28.592217-27.92316,15.118893.346573,27.277656,12.710681,27.277656,27.922515Z"/>
    <path class="cls-3" d="M171.159874,334.055409c0,1.440002-1.169922,2.609985-2.610107,2.609985h-10.23999c-1.439941,0-2.600098-1.169983-2.609863-2.599976-.430176-109.040039-25.630127-196.800049-56.709961-196.800049l-.680176-.109985c-7.030029-.640015-12.600098-10.97998-12.619873-23.679993v-.02002h-.110107c-.359863,0-.73999-.01001-1.100098-.029968-.429932-.01001-.869873-.040039-1.289795-.080017-.150146-.01001-.300049-.02002-.440186-.039978-.349854-.040039-.689941-.080017-1.02002-.130005-.476746-.065017-.953492-.153543-1.417491-.227357-.447058-.07112-.886641-.170307-1.323644-.288404-.103995-.028104-.215831-.056163-.31868-.084275-.23999-.069946-.460205-.130005-.699951-.199951-.300049-.080017-.600098-.170044-.900146-.280029-.050049-.01001-.090088-.02002-.139893-.039978-.160156-.049988-.330078-.110046-.48999-.160034-.180176-.059998-.350098-.119995-.52002-.190002-.160156-.059998-.310059-.119995-.460205-.179993-.25-.099976-.489746-.200012-.72998-.299988-.209961-.090027-.409912-.179993-.619873-.27002-.090088-.039978-.179932-.079956-.26001-.119995-.330078-.149963-.649902-.309998-.969971-.469971-.310059-.170044-.620117-.340027-.929932-.52002-.290039-.159973-.580078-.330017-.860107-.51001-.159912-.089966-.310059-.190002-.469971-.289978-.429932-.27002-.860107-.559998-1.27002-.869995-.399902-.290039-.800049-.590027-1.179932-.900024-.360107-.279968-.699951-.570007-1.030029-.869995-.01001-.01001-.030029-.02002-.040039-.039978-1.189941-1.070007-2.290039-2.230042-3.290039-3.48999-2.589844-3.27002-4.449951-7.119995-5.369873-11.320007-.410156-1.920044-.630127-3.900024-.630127-5.940002,0-6.280029,2.080078-12.070007,5.590088-16.730042.040039-.049988.070068-.099976.099854-.149963.090088-.140015.160156-.290039.209961-.450012.070068-.190002.100098-.400024.100098-.599976v-35.050049C63.809776,15.685413,72.399864,1.765369,83.419884.105396c1-.160034,2.030029.48999,2.199951,1.47998.02002.109985.030029.230042.030029.340027l-.000005,3.25-.08775.08983c-.751091.048901-1.352431.669393-1.352431,1.430128,0,.621252.391643,1.14202.933302,1.351233.08828.034098.085291.146042-.003447.178931-.539873.200088-.929856.729967-.929856,1.339893,0,.609289.389247,1.138744.928328,1.339279.089379.033248.090522.146179.001649.180757-.539936.210074-.929977.739987-.929977,1.349959,0,.609865.389983,1.139745.929857,1.339839.08876.032897.091734.144813.003433.178921-.541653.209222-.93329.730068-.93329,1.341225,0,.621186.391637,1.142012.933289,1.35117.088299.034097.085321.146034-.003433.178929-.539874.200091-.929856.730031-.929856,1.339896,0,.609985.390137,1.140015.930176,1.340027.080078.029968.080078.149963,0,.179993-.540039.199951-.930176.72998-.930176,1.349976,0,.609985.390137,1.140015.930176,1.340027.080078.029968.080078.149963,0,.179993-.540039.200012-.930176.72998-.930176,1.339966,0,.609972.390041,1.139885.929977,1.349959.088873.034578.087729.147509-.001649.180757-.539081.200535-.928328.72999-.928328,1.339279,0,.730377.540536,1.330569,1.25098,1.420165.100255.012643.179158.088833.179195.189881l.010011,27.469971c0,.73999.399902,1.390015,1.01001,1.72998.219971.130005.469971.220032.73999.240051.030029.009949.070068.019958.109863.019958.310059.02002.620117.049988.930176.080017.149902.01001.309814.029968.459961.049988.329834.030029.649902.080017.969971.130005.189941.02002.370117.049988.540039.080017.179932.039978.359863.070007.540039.109985.419922.070007.829834.159973,1.23999.26001.269775.070007.539795.140015.809814.210022.130127.029968.25.069946.380127.109985.51001.140015,1.030029.309998,1.530029.48999.189941.059998.369873.130005.549805.200012.230225.079956.460205.179993.680176.269958.22998.090027.449951.180054.669922.280029.219971.089966.439941.190002.660156.299988.219971.100037.429932.210022.649902.320007.209961.099976.429932.210022.639893.330017.410156.209961.810059.440002,1.210205.690002.279785.159973.539795.329956.809814.51001.27002.159973.540039.359985.820068.549988.02002.01001.030029.019958.050049.039978.26001.179993.52002.369995.780029.559998.27002.210022.540039.419983.799805.640015.040039.02002.080078.059998.120117.089966.209961.180054.429932.350037.629883.540039l.180176.149963c1.209961,1.070007,2.319824,2.25,3.330078,3.530029,2.589844,3.27002,4.449951,7.119995,5.369873,11.320007.409912,1.919983.630127,3.899963.630127,5.940002,0,.390015-.010254.779968-.02002,1.169983-.040039.780029-.100098,1.549988-.200195,2.309998-.029785.299988-.079834.599976-.129883.900024-.050049.369995-.120117.73999-.199951,1.109985-.75502,3.83-2.30678,7.371827-4.467991,10.453768-.008225.011729-.018292.025944-.029984.04235-.603525.846855-.932201,1.867253-.932201,2.90716v4.506696c0,2.360046,1.670166,4.369995,3.98999,4.869995,33.240234,7.160034,59.530029,102.820007,59.660156,220.170044Z"/>
    <path class="cls-1" d="M107.489952,30.955372v32.380005c0,1.730042-2.040039,2.640015-3.330078,1.48999l-.180176-.149963c-.239746-.220032-.489746-.429993-.75-.630005-.259766-.220032-.529785-.429993-.799805-.640015-.26001-.190002-.52002-.380005-.780029-.559998-.02002-.02002-.030029-.029968-.050049-.039978-.280029-.190002-.550049-.390015-.820068-.549988-.27002-.180054-.530029-.350037-.809814-.51001-.400146-.25-.800049-.480042-1.210205-.690002-.209961-.119995-.429932-.230042-.639893-.330017-.219971-.119995-.429932-.219971-.649902-.320007-.220215-.109985-.440186-.210022-.660156-.299988-.219971-.099976-.449951-.200012-.669922-.280029-.219971-.089966-.449951-.190002-.680176-.269958-.179932-.070007-.359863-.140015-.549805-.200012-.5-.179993-1.02002-.349976-1.530029-.48999-.130127-.040039-.25-.080017-.380127-.109985-.27002-.070007-.540039-.140015-.809814-.210022-.410156-.100037-.820068-.190002-1.23999-.26001-.360107-.080017-.709961-.140015-1.080078-.190002-.320068-.049988-.640137-.099976-.969971-.130005-.150146-.02002-.310059-.039978-.459961-.049988-.310666-.030088-.621332-.060115-.931997-.080135-1.046802-.067457-1.858042-.940899-1.858042-1.989873v-27.559504c0-.051384.040301-.090682.091545-.094473.74734-.055284,1.338386-.666753,1.338386-1.42604,0-.614427-.387096-1.132081-.930857-1.336517-.09232-.034709-.092495-.153003-.000317-.188087.543929-.20703.931175-.730797.931175-1.345391,0-.614427-.387096-1.132081-.930857-1.336517-.091871-.03454-.091871-.152412,0-.186952.543762-.204436.930857-.722089.930857-1.336517,0-.622225-.387111-1.141617-.93089-1.346429-.091887-.034609-.091874-.152495.000033-.187049.543762-.204436.930857-.722089.930857-1.336517s-.387096-1.132081-.930857-1.336517c-.079882-.030033-.079907-.153219.000053-.183045.543734-.202816.930804-.728241.930804-1.350434,0-.614373-.387027-1.138043-.930713-1.3405-.079971-.029779-.080021-.152938-.000144-.182969.543762-.204436.930857-.722089.930857-1.336517,0-.614594-.387246-1.138361-.931175-1.345391-.092178-.035085-.092003-.153378.000317-.188087.543762-.204436.930857-.722089.930857-1.336517,0-.614475-.387096-1.132139-.930857-1.336577-.07988-.030033-.079903-.153216.000056-.18304.543732-.202803.930802-.728201.930802-1.35044,0-.758885-.590513-1.37938-1.337374-1.427048-.051666-.003298-.092558-.042616-.092558-.094387V1.925404c0-.230042.040039-.450012.109863-.660034.290039-.839966,1.219971-1.309998,2.090088-1.179993,10.689941,1.570007,19.090088,14.650024,19.640137,30.869995Z"/>
    <circle class="cls-1" cx="85.649742" cy="85.615406" r="10.531705"/>
    <path class="cls-3" d="M96.604821,43.591514c0,5.202537-3.623519,9.562066-8.492022,10.681308-1.260134.289698-2.467939-.657225-2.467939-1.95023v-17.462215c0-1.293006,1.207805-2.239928,2.467939-1.95023,4.868503,1.119242,8.492021,5.478779,8.492021,10.681368Z"/>
    <path class="cls-1" d="M85.64486,34.861226v17.460514c0,1.293241-1.20833,2.240724-2.4685,1.950132-4.860222-1.120754-8.481695-5.47929-8.481695-10.680359,0-5.201121,3.621473-9.559665,8.481694-10.68042,1.260171-.290592,2.468501.656891,2.468501,1.950132Z"/>
    <path class="cls-4" d="M85.689816,113.455406v-.03"/>
  </g>
</svg>