<?xml version="1.0" encoding="UTF-8"?>
<svg id="Layer_2" data-name="Layer 2" xmlns="http://www.w3.org/2000/svg" viewBox="0 0 146.509636 128.668803">
  <defs>
    <style>
      .cls-1 {
        fill: none;
      }

      .cls-2 {
        fill: #f16b3a;
      }

      .cls-3 {
        fill: #144473;
        stroke: #000;
        stroke-miterlimit: 10;
        stroke-width: .5px;
      }
    </style>
  </defs>
  <g id="stopSign">
    <path class="cls-3" d="M106.546265.25H39.96337c-2.294332,0-4.414382,1.224012-5.561548,3.210961L1.110375,61.12344c-1.147166,1.98695-1.147166,4.434973,0,6.421923l33.291447,57.662478c1.147166,1.98695,3.267216,3.210961,5.561548,3.210961h66.582895c2.294332,0,4.414382-1.224012,5.561548-3.210961l33.291447-57.662478c1.147166-1.98695,1.147166-4.434973,0-6.421923L112.107814,3.460961c-1.147166-1.98695-3.267216-3.210961-5.561548-3.210961Z"/>
    <g>
      <rect class="cls-1" x=".25" y=".25" width="146.009636" height="128.168803"/>
      <path class="cls-2" d="M33.43592,78.99453c-1.173828,0-2.34668-.086914-3.520508-.259766-1.172852-.17334-2.279297-.439941-3.319336-.800293-1.040039-.359863-1.973633-.806152-2.799805-1.339844-.480469-.319824-.814453-.706055-1-1.160156-.1875-.453125-.24707-.899902-.180664-1.339844s.240234-.826172.520508-1.160156c.279297-.333008.632812-.540039,1.05957-.619629.426758-.080078.893555.039551,1.400391.359863,1.172852.693848,2.413086,1.199707,3.719727,1.52002,1.306641.319824,2.679688.47998,4.120117.47998,2.106445,0,3.639648-.353027,4.599609-1.060059.959961-.706055,1.44043-1.620117,1.44043-2.740234,0-.933105-.339844-1.666016-1.020508-2.199707-.679688-.533203-1.84668-.973145-3.5-1.320312l-4.399414-.919922c-2.53418-.533203-4.419922-1.433105-5.660156-2.699707s-1.860352-2.939941-1.860352-5.02002c0-1.306152.266602-2.493164.800781-3.560059.532227-1.066406,1.286133-1.986328,2.259766-2.760254.972656-.772949,2.132812-1.366211,3.479492-1.779785,1.34668-.413086,2.833008-.620117,4.459961-.620117,1.600586,0,3.120117.200195,4.560547.600098,1.439453.399902,2.733398.986816,3.879883,1.759766.425781.293945.712891.653809.860352,1.080078.145508.427246.179688.847168.099609,1.260254-.080078.413574-.266602.766602-.55957,1.060059-.293945.293457-.660156.466797-1.100586.52002-.439453.053711-.939453-.080078-1.5-.400391-.986328-.55957-1.986328-.959961-3-1.199707-1.013672-.240234-2.106445-.359863-3.280273-.359863-1.226562,0-2.279297.17334-3.15918.52002-.880859.34668-1.553711.833496-2.020508,1.459961s-.700195,1.366699-.700195,2.219727c0,.959961.320312,1.727051.959961,2.300293.640625.57373,1.733398,1.02002,3.280273,1.339844l4.360352.919922c2.639648.560059,4.605469,1.439941,5.899414,2.640137,1.292969,1.199707,1.94043,2.799805,1.94043,4.799805,0,1.280273-.259766,2.439941-.780273,3.47998-.519531,1.040039-1.266602,1.934082-2.240234,2.680176-.973633.746582-2.139648,1.319824-3.5,1.719727-1.359375.400391-2.893555.600098-4.599609.600098Z"/>
      <path class="cls-2" d="M57.715217,78.914452c-.826172,0-1.459961-.233398-1.899414-.699707-.44043-.466309-.660156-1.113281-.660156-1.939941v-21.600098h-7.799805c-.694336,0-1.234375-.193359-1.620117-.580078-.386719-.38623-.580078-.913086-.580078-1.580078,0-.692871.193359-1.219727.580078-1.580078.385742-.359863.925781-.540039,1.620117-.540039h20.719727c.693359,0,1.233398.180176,1.620117.540039.385742.360352.580078.887207.580078,1.580078,0,.666992-.194336,1.193848-.580078,1.580078-.386719.386719-.926758.580078-1.620117.580078h-7.799805v21.600098c0,.82666-.213867,1.473633-.640625,1.939941s-1.066406.699707-1.919922.699707Z"/>
      <path class="cls-2" d="M84.115607,78.99453c-2.720703,0-5.100586-.600098-7.140625-1.799805-2.040039-1.200195-3.620117-2.88623-4.740234-5.060059-1.119141-2.17334-1.679688-4.726074-1.679688-7.660156,0-2.212891.320312-4.206055.959961-5.97998.639648-1.772949,1.553711-3.292969,2.740234-4.560059,1.186523-1.266113,2.613281-2.239746,4.280273-2.919922,1.666016-.679688,3.525391-1.02002,5.580078-1.02002,2.746094,0,5.132812.59375,7.15918,1.780273s3.600586,2.859863,4.720703,5.02002c1.120117,2.159668,1.679688,4.706543,1.679688,7.639648,0,2.213867-.320312,4.213867-.959961,6-.639648,1.787109-1.553711,3.320312-2.740234,4.600098-1.186523,1.280273-2.613281,2.260254-4.280273,2.939941-1.666016.680176-3.526367,1.02002-5.579102,1.02002ZM84.115607,74.594628c1.732422,0,3.206055-.399902,4.419922-1.200195,1.212891-.799805,2.145508-1.959961,2.799805-3.47998.65332-1.52002.979492-3.333008.979492-5.439941,0-3.199707-.713867-5.679688-2.139648-7.439941-1.426758-1.759766-3.447266-2.640137-6.05957-2.640137-1.707031,0-3.173828.394043-4.400391,1.180176-1.226562.787109-2.166992,1.933594-2.820312,3.439941-.65332,1.506836-.979492,3.327148-.979492,5.459961,0,3.173828.719727,5.653809,2.160156,7.439941,1.439453,1.787109,3.453125,2.680176,6.040039,2.680176Z"/>
      <path class="cls-2" d="M105.434943,78.914452c-.827148,0-1.459961-.233398-1.900391-.699707s-.660156-1.113281-.660156-1.939941v-23.280273c0-.853027.226562-1.5.679688-1.939941s1.09375-.660156,1.920898-.660156h9.639648c3.092773,0,5.480469.773926,7.160156,2.320312,1.679688,1.546875,2.519531,3.706543,2.519531,6.47998s-.839844,4.939941-2.519531,6.5-4.067383,2.339844-7.160156,2.339844h-7.120117v8.240234c0,.82666-.213867,1.473633-.639648,1.939941-.426758.466309-1.067383.699707-1.919922.699707ZM107.994513,63.99453h6.320312c1.8125,0,3.185547-.40625,4.120117-1.219727.933594-.813477,1.400391-2.006348,1.400391-3.580078,0-1.573242-.466797-2.760254-1.400391-3.560059-.93457-.799805-2.307617-1.200195-4.120117-1.200195h-6.320312v9.560059Z"/>
    </g>
  </g>
</svg>