<?xml version="1.0" encoding="UTF-8"?>
<svg id="Layer_2" data-name="Layer 2" xmlns="http://www.w3.org/2000/svg" viewBox="0 0 285.895538 384.585958">
  <defs>
    <style>
      .cls-1 {
        fill: #0e3052;
      }

      .cls-1, .cls-2, .cls-3, .cls-4, .cls-5, .cls-6, .cls-7, .cls-8, .cls-9, .cls-10, .cls-11 {
        stroke: #231f20;
        stroke-miterlimit: 10;
      }

      .cls-1, .cls-5, .cls-6 {
        stroke-width: 1.742006px;
      }

      .cls-2 {
        stroke-width: 1.6164px;
      }

      .cls-2, .cls-3, .cls-4, .cls-10, .cls-11 {
        fill: #144372;
      }

      .cls-3 {
        stroke-width: 1.310718px;
      }

      .cls-4 {
        stroke-width: 1.452912px;
      }

      .cls-5, .cls-7, .cls-8 {
        fill: #f26b3b;
      }

      .cls-6 {
        fill: none;
      }

      .cls-7 {
        stroke-width: 2.08337px;
      }

      .cls-8 {
        stroke-width: 1.870103px;
      }

      .cls-9 {
        fill: #0b243d;
        stroke-width: .889077px;
      }

      .cls-10 {
        stroke-width: 2.462701px;
      }

      .cls-11 {
        stroke-width: 1.817908px;
      }
    </style>
  </defs>
  <g id="tireChange">
    <rect class="cls-5" x="25.601802" y="12.634373" width="39.177686" height="78.355372" rx="4.703436" ry="4.703436"/>
    <path class="cls-8" d="M16.212367,46.011151v11.601816c-.592222.278674-1.27163.435501-1.985912.435501H5.638381c-2.595571,0-4.70333-2.107865-4.70333-4.703436v-3.065947c0-2.595571,2.107759-4.703436,4.70333-4.703436h8.588074c.714282,0,1.393689.156827,1.985912.435501Z"/>
    <path class="cls-10" d="M25.601802,27.458856v48.689074c-2.595571,0-4.947342-.522687-6.637037-1.376252-1.707131-.836129-2.752398-2.02068-2.752398-3.327184v-39.282202c0-2.595677,4.198293-4.703436,9.389435-4.703436Z"/>
    <path class="cls-1" d="M285.024535,54.158997v43.898453c0,2.595677-2.107865,4.703436-4.703436,4.703436h-12.594772c-2.839477,0-5.034315,2.508492-4.651125,5.330532l2.090428,15.573533,12.594665,93.598026c.766487,5.626644.574892,11.305598-.505143,16.810289-.766487,3.936949-2.003349,7.78682-3.675606,11.462426l-1.41102,3.065947c-7.351318,16.130988-22.454476,27.33207-40.013921,29.701172l-43.44562,5.853113c-2.578134.348422-4.947236-1.463225-5.278221-4.041465l-2.595677-19.336218c-.505143-3.693043,1.567847-7.159617,4.947342-8.727464,1.933601-.88844,3.71048-2.055554,5.278328-3.449137,2.787166-2.456287,4.929799-5.609313,6.149224-9.145529,1.114909-3.135695,1.515536-6.584832,1.045161-10.121047-.818692-6.236409-4.198186-11.4973-8.919059-14.894232-1.846522-1.306504-2.996198-3.362058-3.274979-5.609207-.052205-.348422-.069642-.714175-.069642-1.080035,0-1.811647.592329-3.623401,1.759443-5.051858,3.693043-4.511735,5.574439-10.486801,4.738204-16.72321-.801254-6.131893-4.076233-11.305598-8.69259-14.70253-1.776773-1.323941-2.909119-3.344621-3.187793-5.539565l-.069748-.592329c-.261237-2.16007.27878-4.355014,1.620052-6.044708,3.553759-4.476967,5.382844-10.347517,4.564046-16.47941-.818692-6.25374-4.233061-11.549505-8.988701-14.929-.661971-.470269-1.358815-.905771-2.072991-1.306504-2.16007-1.201988-4.564046-2.055554-7.072538-2.456181-.505143-.087079-1.010393-.209032-1.480662-.383296h7.316338c3.693043,0,6.689348-2.996198,6.689348-6.706678v-7.177054c0-3.71048-2.996305-6.706785-6.689348-6.706785h-17.646524c-.435501-.121847-.871003-.191595-1.341272-.191595h-88.912027c-2.595571,0-4.70333-2.107759-4.70333-4.703436V5.574439c0-2.595571,2.090321-4.703436,4.70333-4.703436h149.185373c1.010393,0,2.003349.330985,2.82204.940645l64.611029,48.584558c1.184551.88844,1.881396,2.282023,1.881396,3.762791Z"/>
    <line class="cls-6" x1="175.658148" y1="126.387355" x2="175.605888" y2="126.021534"/>
    <path class="cls-7" d="M181.110664,109.664098v7.177054c0,3.71048-2.996305,6.706678-6.689348,6.706678h-18.709122c-3.71048,0-6.706678-2.996198-6.706678-6.706678v-7.177054c0-3.71048,2.996198-6.706785,6.706678-6.706785h18.709122c3.693043,0,6.689348,2.996305,6.689348,6.706785Z"/>
    <path class="cls-4" d="M229.417834,278.757532l.025006.18345c.245913,1.804077.217961,3.427261.040047,4.635011-.20852,1.211922-.628239,2.016566-1.178775,2.091609l-34.306387,4.676286c-1.100698.150036-2.409722-2.599103-2.897351-6.176465l-.025006-.18345,38.342465-5.226441Z"/>
    <path class="cls-4" d="M221.141915,351.855062l-8.884185,29.614093c-.540017,1.811754-2.491161,2.82204-4.302809,2.212381l-1.585178-.540017c-1.707238-.574892-2.665319-2.421413-2.125302-4.163419l8.553306-28.115994c1.097472-3.623295,1.445788-7.438291.99285-11.201082l-5.556895-46.73793-2.090428.278674-4.198293-3.936949,18.41301-2.508492-2.978761,4.912468-1.742005.243906,6.410567,48.497372c.52258,3.832433.209032,7.734508-.905877,11.444989Z"/>
    <path class="cls-4" d="M74.130727,149.472547c-12.40307,0-22.437039,10.051406-22.437039,22.437039,0,12.40307,10.033968,22.454476,22.437039,22.454476,12.38574,0,22.437039-10.051406,22.437039-22.454476,0-12.385633-10.051299-22.437039-22.437039-22.437039ZM74.130727,185.654035c-7.595118,0-13.744342-6.14933-13.744342-13.744449,0-7.577788,6.149224-13.727012,13.744342-13.727012,7.577788,0,13.727012,6.149224,13.727012,13.727012,0,7.595118-6.149224,13.744449-13.727012,13.744449Z"/>
    <path class="cls-9" d="M74.130727,158.182574c-7.595118,0-13.744342,6.149224-13.744342,13.727012,0,7.595118,6.149224,13.744449,13.744342,13.744449,7.577788,0,13.727012-6.14933,13.727012-13.744449,0-7.577788-6.149224-13.727012-13.727012-13.727012ZM77.301189,182.030633l-8.866748-1.602615-4.267935-7.92621,3.536216-8.291857,8.675259-2.403976,7.299007,5.295658.400627,8.988701-6.776427,5.940298Z"/>
    <path class="cls-4" d="M123.152879,135.736817c-12.40307,0-22.437039,10.051406-22.437039,22.437039,0,12.40307,10.033968,22.454476,22.437039,22.454476,12.38574,0,22.437039-10.051406,22.437039-22.454476,0-12.385633-10.051299-22.437039-22.437039-22.437039ZM123.152879,171.918304c-7.595118,0-13.744342-6.14933-13.744342-13.744449,0-7.577788,6.149224-13.727012,13.744342-13.727012,7.577788,0,13.727012,6.149224,13.727012,13.727012,0,7.595118-6.149224,13.744449-13.727012,13.744449Z"/>
    <path class="cls-9" d="M123.152879,144.446844c-7.595118,0-13.744342,6.149224-13.744342,13.727012,0,7.595118,6.149224,13.744449,13.744342,13.744449,7.577788,0,13.727012-6.14933,13.727012-13.744449,0-7.577788-6.149224-13.727012-13.727012-13.727012ZM126.323342,168.294903l-8.866748-1.602615-4.267935-7.92621,3.536216-8.291857,8.675259-2.403976,7.299007,5.295658.400627,8.988701-6.776427,5.940298Z"/>
    <path class="cls-4" d="M113.188659,185.654035c-12.40307,0-22.437039,10.051406-22.437039,22.437039,0,12.40307,10.033968,22.454476,22.437039,22.454476,12.38574,0,22.437039-10.051406,22.437039-22.454476,0-12.385633-10.051299-22.437039-22.437039-22.437039ZM113.188659,221.835522c-7.595118,0-13.744342-6.14933-13.744342-13.744449,0-7.577788,6.149224-13.727012,13.744342-13.727012,7.577788,0,13.727012,6.149224,13.727012,13.727012,0,7.595118-6.149224,13.744449-13.727012,13.744449Z"/>
    <path class="cls-9" d="M113.188659,194.364062c-7.595118,0-13.744342,6.149224-13.744342,13.727012,0,7.595118,6.149224,13.744449,13.744342,13.744449,7.577788,0,13.727012-6.14933,13.727012-13.744449,0-7.577788-6.149224-13.727012-13.727012-13.727012ZM116.359122,218.212121l-8.866748-1.602615-4.267935-7.92621,3.536216-8.291857,8.675259-2.403976,7.299007,5.295658.400627,8.988701-6.776427,5.940298Z"/>
    <rect class="cls-3" x="74.168923" y="26.544314" width="74.836593" height="50.518158" rx="3.813938" ry="3.813938"/>
    <path class="cls-2" d="M231.091142,231.119147c.346851,2.57433-1.458882,4.942414-4.033213,5.289258l-16.155811,2.176701c-2.909119.38319-5.539565-1.933707-5.330532-4.842826.104516-1.445894.052311-2.909119-.139284-4.407219-.818798-6.236409-4.198293-11.4973-8.919166-14.894232-1.846522-1.306504-2.996198-3.362058-3.274872-5.609207-.052311-.348422-.069748-.714175-.069748-1.080035,0-1.811647.592329-3.623401,1.759443-5.051858,3.693043-4.511735,5.574439-10.486801,4.73831-16.72321-.801361-6.131893-4.07634-11.305598-8.692697-14.70253-1.776773-1.323941-2.909119-3.344621-3.187793-5.539565l-.069748-.592329c-.261237-2.16007.27878-4.355014,1.620052-6.044708,3.553759-4.476967,5.382844-10.347517,4.564046-16.47941-.452832-3.362058-1.637383-6.445441-3.379389-9.093217-1.881396-2.891789-.174264-6.741553,3.222668-7.246802,5.231361-.770936,11.996791-1.726809,18.103754-2.58392,2.582657-.362475,4.964864,1.44541,5.313101,4.030025l13.93088,103.395082Z"/>
    <path class="cls-11" d="M276.025561,53.333942l-62.532001-45.135631c-.834167-.584224-1.842489-.89316-2.854904-.869508l-8.147916.162784c-1.494151.036842-2.696659.815661-3.773247,1.724252-1.05064.951242-1.919027,2.137064-2.080364,3.64599l-.895229,8.095384c-.112193,1.01794.108336,2.040281.619822,2.916658l39.392891,66.297177c.750783,1.270579,2.07795,2.113537,3.52462,2.284053l34.640216,3.7919c1.20197.133751,2.375685-.153407,3.343532-.771232.076334-.04559.152597-.091259.217227-.149775.051547-.04667.104388-.117891.157316-.189333.686189-.90325,1.088046-2.042603,1.062317-3.264837l-.711918-34.839226c-.038144-1.46945-.759406-2.837324-1.962361-3.698654Z"/>
    <path class="cls-2" d="M272.917576,232.035149c-.00122.010277-.002472.020544-.003758.0308-.193206,1.54133-1.618021,2.634413-3.171413,2.634413h-13.076655c-1.780446,0-3.223782-1.443336-3.223782-3.223782v-2.385425l-6.706785-44.072717-8.326731-54.507419-.034874-.459226v-2.18855c0-2.597636,2.1058-4.703436,4.703436-4.703436h13.483105v.034874c1.498099.034768,2.874352.74905,3.71048,1.916163l12.594665,93.597919c.609766,4.442093.609766,8.936497.052311,13.326384Z"/>
  </g>
</svg>