<?xml version="1.0" encoding="UTF-8"?>
<svg id="Layer_2" data-name="Layer 2" xmlns="http://www.w3.org/2000/svg" viewBox="0 0 164.118623 220.771959">
  <defs>
    <style>
      .cls-1, .cls-2, .cls-3, .cls-4, .cls-5, .cls-6, .cls-7, .cls-8, .cls-9, .cls-10, .cls-11 {
        stroke: #231f20;
        stroke-miterlimit: 10;
      }

      .cls-1, .cls-8, .cls-9 {
        fill: #f26b3b;
      }

      .cls-2 {
        stroke-width: .834046px;
      }

      .cls-2, .cls-3, .cls-4, .cls-6, .cls-7 {
        fill: #144372;
      }

      .cls-3 {
        stroke-width: .752419px;
      }

      .cls-4 {
        stroke-width: 1.043572px;
      }

      .cls-5 {
        fill: none;
      }

      .cls-6 {
        stroke-width: .927896px;
      }

      .cls-7 {
        stroke-width: 1.413716px;
      }

      .cls-8 {
        stroke-width: 1.073535px;
      }

      .cls-9 {
        stroke-width: 1.195961px;
      }

      .cls-10 {
        fill: #0e3052;
      }

      .cls-11 {
        fill: #0b243d;
        stroke-width: .510376px;
      }
    </style>
  </defs>
  <g id="tire_change_new" data-name="tire change new">
    <rect class="cls-1" x="14.69674" y="7.252774" width="22.48999" height="44.97998" rx="2.700012" ry="2.700012"/>
    <path class="cls-8" d="M9.306726,26.412748v6.660034c-.339966.159973-.72998.25-1.140015.25H3.236718c-1.48999,0-2.699951-1.210022-2.699951-2.700012v-1.76001c0-1.48999,1.209961-2.700012,2.699951-2.700012h4.929993c.410034,0,.800049.090027,1.140015.25Z"/>
    <path class="cls-7" d="M14.69674,15.762784v27.950012c-1.48999,0-2.840027-.300049-3.809998-.790039-.97998-.47998-1.580017-1.159973-1.580017-1.909973v-22.549988c0-1.490051,2.410034-2.700012,5.390015-2.700012Z"/>
    <path class="cls-10" d="M163.618623,31.090027v25.199951c0,1.490051-1.210022,2.700012-2.700012,2.700012h-7.230042c-1.630005,0-2.889954,1.440002-2.669983,3.059998l1.200012,8.940002,7.22998,53.730042c.440002,3.22998.330017,6.48999-.289978,9.649963-.440002,2.26001-1.150024,4.470032-2.109985,6.580017l-.809998,1.76001c-4.220032,9.26001-12.890015,15.690002-22.970032,17.049988l-24.940002,3.359985c-1.47998.200012-2.839966-.839966-3.029968-2.320007l-1.490051-11.099976c-.289978-2.119995.900024-4.109985,2.840027-5.01001,1.109985-.51001,2.130005-1.179993,3.030029-1.97998,1.599976-1.410034,2.829956-3.220032,3.529968-5.25.640015-1.800049.869995-3.780029.599976-5.809998-.469971-3.580017-2.409973-6.600037-5.119995-8.550049-1.059998-.75-1.719971-1.929993-1.880005-3.219971-.029968-.200012-.039978-.409973-.039978-.619995,0-1.039978.340027-2.080017,1.01001-2.900024,2.119995-2.589966,3.200012-6.019958,2.719971-9.599976-.459961-3.52002-2.339966-6.48999-4.98999-8.440002-1.019958-.76001-1.669983-1.919983-1.829956-3.179993l-.040039-.340027c-.149963-1.23999.160034-2.5.929993-3.469971,2.040039-2.570007,3.090027-5.940002,2.619995-9.460022-.469971-3.589966-2.429993-6.630005-5.159973-8.570007-.380005-.269958-.780029-.519958-1.190002-.75-1.23999-.690002-2.619995-1.179993-4.059998-1.409973-.289978-.049988-.580017-.119995-.849976-.220032h4.199951c2.119995,0,3.840027-1.719971,3.840027-3.849976v-4.119995c0-2.130005-1.720032-3.850037-3.840027-3.850037h-10.130005c-.25-.069946-.5-.109985-.769958-.109985h-51.040039c-1.48999,0-2.699951-1.209961-2.699951-2.700012V3.200012c0-1.48999,1.199951-2.700012,2.699951-2.700012h85.640015c.580017,0,1.150024.190002,1.619995.539978l37.090027,27.890015c.679993.51001,1.080017,1.309998,1.080017,2.160034Z"/>
    <line class="cls-5" x1="100.836738" y1="72.552789" x2="100.806738" y2="72.342789"/>
    <path class="cls-9" d="M103.96676,62.952787v4.119995c0,2.130005-1.720032,3.849976-3.840027,3.849976h-10.73999c-2.130005,0-3.849976-1.719971-3.849976-3.849976v-4.119995c0-2.130005,1.719971-3.850037,3.849976-3.850037h10.73999c2.119995,0,3.840027,1.720032,3.840027,3.850037Z"/>
    <path class="cls-2" d="M131.69754,160.021044l.014355.105309c.141166,1.035632.12512,1.967423.022989,2.660733-.119701.695705-.360641,1.157612-.676677,1.20069l-19.693616,2.684426c-.631857.086128-1.383304-1.492018-1.663227-3.545606l-.014355-.105309,22.010531-3.000244Z"/>
    <path class="cls-2" d="M126.94674,201.982755l-5.099976,17c-.309998,1.040039-1.430054,1.619995-2.470032,1.27002l-.909973-.309998c-.980042-.330017-1.530029-1.390015-1.220032-2.390015l4.910034-16.140015c.630005-2.079956.829956-4.269958.569946-6.429993l-3.189941-26.829956-1.200012.159973-2.410034-2.26001,10.570007-1.440002-1.709961,2.820007-1,.140015,3.679993,27.839966c.299988,2.200012.119995,4.440002-.52002,6.570007Z"/>
    <path class="cls-2" d="M42.554819,85.804867c-7.119995,0-12.880005,5.77002-12.880005,12.880005,0,7.119995,5.76001,12.890015,12.880005,12.890015,7.110046,0,12.880005-5.77002,12.880005-12.890015,0-7.109985-5.769958-12.880005-12.880005-12.880005ZM42.554819,106.574887c-4.359985,0-7.889954-3.530029-7.889954-7.890015,0-4.350037,3.529968-7.880005,7.889954-7.880005,4.350037,0,7.880005,3.529968,7.880005,7.880005,0,4.359985-3.529968,7.890015-7.880005,7.890015Z"/>
    <path class="cls-11" d="M42.554819,90.804867c-4.359985,0-7.889954,3.529968-7.889954,7.880005,0,4.359985,3.529968,7.890015,7.889954,7.890015,4.350037,0,7.880005-3.530029,7.880005-7.890015,0-4.350037-3.529968-7.880005-7.880005-7.880005ZM44.374826,104.49487l-5.089966-.919983-2.450012-4.550049,2.029968-4.759949,4.980042-1.380005,4.190002,3.039978.22998,5.159973-3.890015,3.410034Z"/>
    <path class="cls-2" d="M70.696035,77.919857c-7.119995,0-12.880005,5.77002-12.880005,12.880005,0,7.119995,5.76001,12.890015,12.880005,12.890015,7.110046,0,12.880005-5.77002,12.880005-12.890015,0-7.109985-5.769958-12.880005-12.880005-12.880005ZM70.696035,98.689877c-4.359985,0-7.889954-3.530029-7.889954-7.890015,0-4.350037,3.529968-7.880005,7.889954-7.880005,4.350037,0,7.880005,3.529968,7.880005,7.880005,0,4.359985-3.529968,7.890015-7.880005,7.890015Z"/>
    <path class="cls-11" d="M70.696035,82.919857c-4.359985,0-7.889954,3.529968-7.889954,7.880005,0,4.359985,3.529968,7.890015,7.889954,7.890015,4.350037,0,7.880005-3.530029,7.880005-7.890015,0-4.350037-3.529968-7.880005-7.880005-7.880005ZM72.516043,96.60986l-5.089966-.919983-2.450012-4.550049,2.029968-4.759949,4.980042-1.380005,4.190002,3.039978.22998,5.159973-3.890015,3.410034Z"/>
    <path class="cls-2" d="M64.976064,106.574887c-7.119995,0-12.880005,5.77002-12.880005,12.880005,0,7.119995,5.76001,12.890015,12.880005,12.890015,7.110046,0,12.880005-5.77002,12.880005-12.890015,0-7.109985-5.769958-12.880005-12.880005-12.880005ZM64.976064,127.344906c-4.359985,0-7.889954-3.530029-7.889954-7.890015,0-4.350037,3.529968-7.880005,7.889954-7.880005,4.350037,0,7.880005,3.529968,7.880005,7.880005,0,4.359985-3.529968,7.890015-7.880005,7.890015Z"/>
    <path class="cls-11" d="M64.976064,111.574887c-4.359985,0-7.889954,3.529968-7.889954,7.880005,0,4.359985,3.529968,7.890015,7.889954,7.890015,4.350037,0,7.880005-3.530029,7.880005-7.890015,0-4.350037-3.529968-7.880005-7.880005-7.880005ZM66.796072,125.264889l-5.089966-.919983-2.450012-4.550049,2.029968-4.759949,4.980042-1.380005,4.190002,3.039978.22998,5.159973-3.890015,3.410034Z"/>
    <rect class="cls-3" x="42.576745" y="15.23779" width="42.960022" height="29" rx="2.189395" ry="2.189395"/>
    <path class="cls-6" d="M132.658104,132.67418c.19911,1.477797-.837472,2.837198-2.31527,3.036304l-9.27426,1.249538c-1.669983.219971-3.179993-1.110046-3.059998-2.780029.059998-.830017.030029-1.669983-.079956-2.529968-.470032-3.580017-2.410034-6.600037-5.120056-8.550049-1.059998-.75-1.719971-1.929993-1.879944-3.219971-.030029-.200012-.040039-.409973-.040039-.619995,0-1.039978.340027-2.080017,1.01001-2.900024,2.119995-2.589966,3.200012-6.019958,2.720032-9.599976-.460022-3.52002-2.340027-6.48999-4.990051-8.440002-1.019958-.76001-1.669983-1.919983-1.829956-3.179993l-.040039-.340027c-.149963-1.23999.160034-2.5.929993-3.469971,2.040039-2.570007,3.090027-5.940002,2.619995-9.460022-.259949-1.929993-.939941-3.700012-1.939941-5.219971-1.080017-1.660034-.100037-3.869995,1.849976-4.160034,3.003068-.442557,6.88677-.991276,10.392479-1.483302,1.482577-.208079,2.850085.829739,3.049991,2.31344l7.997036,59.354052Z"/>
    <path class="cls-4" d="M158.452753,30.616403L122.556194,4.706249c-.478855-.335375-1.057683-.512719-1.638861-.499142l-4.67732.093446c-.857719.021149-1.54802.468231-2.166036.989809-.603121.546061-1.101619,1.226784-1.194235,2.092984l-.513907,4.647163c-.064404.584349.06219,1.171225.35581,1.674311l22.613529,38.057962c.430988.729377,1.19285,1.213278,2.023312,1.311163l19.885251,2.176744c.689992.07678,1.363764-.088064,1.919358-.442727.04382-.026171.087598-.052387.1247-.085979.029591-.026791.059924-.067676.090307-.108687.393908-.518512.624594-1.172559.609824-1.874183l-.408677-19.999493c-.021897-.843539-.435938-1.628769-1.126495-2.123216Z"/>
    <path class="cls-6" d="M156.668611,133.200012c-.0007.0059-.001419.011793-.002157.017681-.11091.884802-.928827,1.512287-1.820553,1.512287h-7.506667c-1.022067,0-1.850615-.828549-1.850615-1.850615v-1.369355l-3.850037-25.299988-4.779968-31.290039-.02002-.263619v-1.256339c0-1.491176,1.208837-2.700012,2.700012-2.700012h7.73999v.02002c.859985.019958,1.650024.429993,2.130005,1.099976l7.22998,53.72998c.350037,2.549988.350037,5.130005.030029,7.650024Z"/>
  </g>
</svg>