<?xml version="1.0" encoding="UTF-8"?>
<svg id="Layer_2" data-name="Layer 2" xmlns="http://www.w3.org/2000/svg" viewBox="0 0 186.859396 159.376899">
  <defs>
    <style>
      .cls-1 {
        stroke-width: 1.564136px;
      }

      .cls-1, .cls-2 {
        fill: #144372;
      }

      .cls-1, .cls-2, .cls-3 {
        stroke: #000;
        stroke-miterlimit: 10;
      }

      .cls-2, .cls-3 {
        stroke-width: 1.339302px;
      }

      .cls-3 {
        fill: #f26b3b;
      }
    </style>
  </defs>
  <g id="pachołek">
    <path class="cls-3" d="M186.189745,146.11778v7.178637c0,3.000023-2.410645,5.410831-5.410668,5.410831H6.107294c-3.000023,0-5.437643-2.437621-5.437643-5.437643v-7.151825c0-3.000023,2.437621-5.43748,5.437643-5.43748h28.366318c.294771,0,.562566-.026812.830524-.053624,1.901704-.321419,3.535613-1.633909,4.205263-3.482152l4.607283-12.589468,5.89296-16.07162,5.892797-16.07162,5.89296-16.07162,5.866148-16.07162,17.67888-48.21486,2.812501-7.687579c.883985-2.464433,3.080296-3.696486,5.27677-3.696486s4.392949,1.232053,5.276934,3.696486l2.812501,7.687579,11.78592,32.14324,5.892797,16.07162,5.866148,16.07162,17.67888,48.21486,4.607119,12.589468c.669651,1.848243,2.30356,3.160732,4.205427,3.482152.267958.026812.535753.053624.83036.053624h28.366481c3.000023,0,5.43748,2.437457,5.43748,5.43748Z"/>
    <path class="cls-2" d="M101.519132,12.053715h-16.178705l2.812501-7.687579c.883985-2.464433,3.080296-3.696486,5.27677-3.696486s4.392949,1.232053,5.276934,3.696486l2.812501,7.687579Z"/>
    <polygon class="cls-2" points="113.305052 44.196955 73.554507 44.196955 79.447467 28.125335 107.412092 28.125335 113.305052 44.196955"/>
    <polygon class="cls-2" points="125.063997 76.340195 61.795399 76.340195 67.661547 60.268575 119.197849 60.268575 125.063997 76.340195"/>
    <polygon class="cls-2" points="136.849917 108.483436 50.009642 108.483436 55.902439 92.411815 130.956957 92.411815 136.849917 108.483436"/>
    <path class="cls-1" d="M151.555423,140.626676H35.304136c1.901704-.321419,3.535613-1.633909,4.205263-3.482152l4.607283-12.589468h98.626195l4.607119,12.589468c.669651,1.848243,2.30356,3.160732,4.205427,3.482152Z"/>
  </g>
</svg>