<?xml version="1.0" encoding="UTF-8"?>
<svg id="Layer_2" data-name="Layer 2" xmlns="http://www.w3.org/2000/svg" viewBox="0 0 179.610163 157.186524">
  <defs>
    <style>
      .cls-1 {
        fill: #144372;
      }

      .cls-1, .cls-2 {
        stroke: #000;
        stroke-miterlimit: 10;
        stroke-width: 1.339302px;
      }

      .cls-2 {
        fill: #f26b3b;
      }
    </style>
  </defs>
  <g id="triangle">
    <path class="cls-1" d="M85.187249,3.348268L1.395365,148.481077c-2.061975,3.571471.515513,8.035796,4.639485,8.035796h167.540467c4.12344,0,6.700994-4.463287,4.640084-8.034758L94.466818,3.349307c-2.061453-3.572413-7.217317-3.57299-9.27957-.001038ZM95.568463,57.5452l40.230734,69.732971c2.548218,4.416892-.639517,9.93618-5.738767,9.93618H49.552675c-5.100716,0-8.288268-5.522144-5.737118-9.939037l40.277021-69.732971c2.551091-4.41679,8.926993-4.415203,11.475884.002857Z"/>
    <path class="cls-2" d="M85.187405,36.017473l-56.833071,98.383703c-2.063123,3.571471.514294,8.036914,4.63884,8.036914h113.624799c4.123796,0,6.701306-4.463981,4.639684-8.035452l-56.791728-98.383703c-2.061523-3.571299-7.215875-3.572111-9.278524-.001462ZM89.827933,56.814003l41.80319,72.458549H47.976647l41.851286-72.458549Z"/>
  </g>
</svg>