<?xml version="1.0" encoding="UTF-8"?>
<svg id="Layer_2" data-name="Layer 2" xmlns="http://www.w3.org/2000/svg" viewBox="0 0 140.344507 140.33637">
  <defs>
    <style>
      .cls-1 {
        fill: #45c6ef;
      }

      .cls-1, .cls-2, .cls-3, .cls-4, .cls-5, .cls-6 {
        stroke: #231f20;
        stroke-miterlimit: 10;
      }

      .cls-1, .cls-6 {
        stroke-width: .570699px;
      }

      .cls-2 {
        stroke-width: .68763px;
      }

      .cls-3 {
        stroke-width: .670515px;
      }

      .cls-4 {
        stroke-width: .812909px;
      }

      .cls-5 {
        fill: #064f89;
        stroke-width: .4883px;
      }

      .cls-6 {
        fill: #054f88;
      }
    </style>
  </defs>
  <g id="wheel">
    <g id="wheel-2" data-name="wheel">
      <path class="cls-2" d="M82.252091,119.710941c-3.725399.923516-7.624089,1.417526-11.630806,1.453029-27.884849.247083-51.082793-22.420285-51.45444-50.303751-.37979-28.494421,22.598453-51.706102,50.98916-51.706102,3.79627,0,7.494995.414591,11.047402,1.203089,22.867128,5.040044,39.97076,25.42781,39.97076,49.806936,0,23.997083-16.583359,44.132799-38.922076,49.5468ZM80.918908,21.617253c-3.462999-.772273-7.072316-1.170591-10.771041-1.170591-29.150229,0-52.44679,25.090735-49.468588,54.87058,2.541224,25.410385,24.458458,44.854732,49.994269,44.594247,3.8796-.039575,7.652748-.517309,11.269633-1.411774,21.777808-5.283907,37.946576-24.915674,37.946576-48.311162,0-23.777582-16.672767-43.653211-38.970849-48.571299Z"/>
      <path class="cls-5" d="M72.766636,20.552468c-29.439623-1.500428-53.621852,22.681468-52.121977,52.120977,1.283793,25.198258,21.766677,45.6665,46.965851,46.932187,29.424304,1.477905,53.581243-22.685224,52.093468-52.103693-1.27416-25.194559-21.743285-45.665424-46.937342-46.949472ZM72.635901,117.207974c-28.002442,1.420826-51.009277-21.586009-49.588451-49.588451,1.21638-23.973112,20.697689-43.448097,44.670812-44.66427,28.003223-1.420623,51.002532,21.578686,49.581909,49.581909-1.216173,23.973123-20.691158,43.454432-44.66427,44.670812Z"/>
      <path class="cls-4" d="M97.707138,86.682439l9.396153,28.92208c.996773,3.068144-2.515146,5.619158-5.12472,3.722532l-24.640438-17.908558c-.695126-.505214-1.560124-.734209-2.409496-.603792-1.550755.23811-3.138272.363035-4.750738.363035-1.612589,0-3.200166-.124938-4.751011-.363072-.849242-.130402-1.714115.098517-2.409192.603575l-24.649518,17.910905c-2.609633,1.896219-6.12113-.654791-5.124416-3.722753l9.396762-28.923952c.273514-.841898.230636-1.764955-.167231-2.555717-1.387231-2.757123-2.379426-5.753551-2.896232-8.908999-.142071-.867436-.593662-1.653612-1.304733-2.170339l-24.683409-17.937144c-2.6094-1.89622-1.268079-6.023713,1.957541-6.023713h30.547993c.855416,0,1.661238-.359695,2.269561-.961093,2.221027-2.195739,4.774269-4.059806,7.575569-5.50809.76839-.397261,1.366434-1.059383,1.633807-1.882031l9.436979-29.035447c.997062-3.067733,5.337171-3.067464,6.333852.000393l9.430209,29.026861c.267269.822674.865275,1.484825,1.633649,1.882099,2.8013,1.448362,5.354542,3.313054,7.575569,5.513794.608345.602788,1.414892.963514,2.271302.963514h30.546252c3.225619,0,4.56694,4.127493,1.957541,6.023714l-24.683409,17.937144c-.711071.516727-1.162663,1.302903-1.304733,2.170339-.516806,3.155448-1.509001,6.151875-2.896232,8.908999-.397867.790761-.440745,1.713819-.167231,2.555717Z"/>
      <g>
        <polygon class="cls-1" points="70.04143 88.535222 73.353015 90.158978 73.602594 93.838773 70.540587 95.894812 67.229002 94.271056 66.979423 90.591261 70.04143 88.535222"/>
        <polygon class="cls-1" points="55.731904 81.516456 56.52714 85.117953 53.80577 87.607396 50.289164 86.495342 49.493927 82.893845 52.215297 80.404402 55.731904 81.516456"/>
        <polygon class="cls-1" points="52.298323 65.953447 49.97838 68.820684 46.335309 68.245174 45.01218 64.802426 47.332122 61.935189 50.975194 62.510699 52.298323 65.953447"/>
        <polygon class="cls-1" points="62.324626 53.565013 58.636469 53.538902 56.815003 50.331809 58.681694 47.150827 62.369851 47.176938 64.191317 50.384031 62.324626 53.565013"/>
        <polygon class="cls-1" points="78.261384 53.680185 75.98227 50.780388 77.354011 47.356719 81.004866 46.832847 83.28398 49.732644 81.912239 53.156313 78.261384 53.680185"/>
        <polygon class="cls-1" points="88.108558 66.211691 88.954706 62.621814 92.486705 61.559662 95.172556 64.087386 94.326407 67.677263 90.794409 68.739415 88.108558 66.211691"/>
        <polygon class="cls-1" points="84.449351 81.723189 87.783594 80.146482 90.816184 82.245669 90.51453 85.921562 87.180286 87.498268 84.147696 85.399082 84.449351 81.723189"/>
      </g>
      <polygon class="cls-6" points="73.054092 76.276822 66.324715 75.717481 63.44443 69.609999 67.293522 64.061858 74.022899 64.621199 76.903184 70.728681 73.054092 76.276822"/>
      <path class="cls-3" d="M70.172228.335258h-.008087C31.599747.335258.335258,31.599747.335258,70.164141c0,38.572531,31.264489,69.836971,69.828883,69.836971h.008087c38.580668-.008087,69.83702-31.26444,69.83702-69.836971C140.009249,31.599747,108.752897.343395,70.172228.335258ZM81.943181,118.499715c-3.616885.894465-7.390033,1.372199-11.269633,1.411774-25.535811.260485-47.453046-19.183862-49.994269-44.594247-2.978201-29.779845,20.31836-54.87058,49.468588-54.87058,3.698725,0,7.308042.398317,10.771041,1.170591,22.298082,4.918088,38.970849,24.793718,38.970849,48.571299,0,23.395489-16.168767,43.027255-37.946576,48.311162Z"/>
    </g>
  </g>
</svg>