<?xml version="1.0" encoding="UTF-8"?>
<svg id="Layer_2" data-name="Layer 2" xmlns="http://www.w3.org/2000/svg" viewBox="0 0 270.931911 123.63829">
  <defs>
    <style>
      .cls-1 {
        fill: #0f3b66;
      }

      .cls-2 {
        fill: #144372;
      }
    </style>
  </defs>
  <g id="wiperHands">
    <path class="cls-2" d="M270.314447,16.615474c-1.570195,133.386927,21.130911,102.784528-108.880127,106.300049-10.008205-8.140089-28.252413-24.046344-32.470115-38.349872-3.810446-13.423658,9.818961-19.417841,19.540184-14.310162,0,0,2.640137-7.02002-8.419922-6.469971-.610107.009949-1.170166-.01001-1.680176-.070007-3.23999-.290039-4.439941-1.660034-3.73999-2.780029,3.29381-1.938206,14.349618-.297287,17.390062.789714,4.619947,1.330281,10.210035,3.940328,11.000074,1.800313.091862-5.093407-18.740282-6.985282-20.280505-9.459281.259498-4.212868,23.395647,3.209492,23.760542-1.080447.554728-5.142498-17.17201-4.346278-21.080135-4.820257-4.727841-.289118-2.516332-2.460212,1.440247-3.189884,3.308919-1.489219,16.266822-.717646,16.410162-4.009494.407248-3.590411-10.434486-.566733-14.270287-.711464-5.000044.590834-9.880171,1.320815-10.220015.71083-1.540039-2.049988,12.310059-6,11.399902-7.570007-3.422157-2.158442-7.60876.950201-11.350089,2.509393-37.937164,15.914447-30.101965,61.208974.240226,87.010627h-46.780029c-12.127645-10.167867-28.390607-23.981987-32.720502-39.339679-2.949209-13.717626,11.388573-17.913057,19.780317-13.330365,0,0,2.640137-7.019958-8.419922-6.469971-4.48999.070007-6.22998-1.549988-5.419922-2.850037.879883-1.509949,13.219971-.829956,17.389893.790039,12.892104,5.47034,15.387703.679775,2.1703-3.960923-4.490369-.999099-11.460095-2.389114-11.470349-3.829117-.994257-3.688394,24.01605,3.04247,23.780253-.949319,1.378748-5.991156-24.431482-3.556332-23.760203-5.810443-.069855-1.870243,6.830048-2.800236,12.840058-3.650212,5.030029-.280029,7.790039-.890015,7.689941-2.559998-.139893-2.650024-2.139893-1.580017-7.75-1.280029-6.089844.200012-16.23999,2.170044-16.73999,1.280029-1.540039-2.049988,12.310059-6,11.400146-7.570007-5.863177-2.713166-16.88757,5.686142-22.200176,9.078791-28.432446,21.418207-11.545329,61.420091,11.100078,80.451238C-24.015002,124.44343,5.66989,128.655465.802648,16.614407.751119,7.758669,8.056891.18442,17.204373.215541c-.000034-.00003,236.709927-.00003,236.709927-.00003,9.050049,0,16.400146,7.339966,16.400146,16.399963Z"/>
    <path class="cls-1" d="M40.054437.21551C30.636924,21.139876,10.043172,66.899846.804437,87.435481c.401003-2.818153-1.165679-77.105539,1.289713-77.210998C6.765305-3.869884,29.035296.975292,40.054437.21551Z"/>
    <path class="cls-1" d="M68.114251,121.125483c.470215.460022.960205.919983,1.450195,1.380005l-.189941.410034H26.874505l18.069824-39.890015c3.152179,14.841871,12.424478,27.670182,23.169922,38.099976Z"/>
    <path class="cls-1" d="M124.954339.21551c-11.817273,26.090403-37.302033,82.354124-48.919922,108-7.156666-7.50756-15.891029-17.390783-16.780189-27.059906-.640088-12.780325,12.984361-14.740692,20.130042-10.910126,0,0,2.640137-7.019958-8.419922-6.469971-4.48999.070007-6.22998-1.549988-5.419922-2.850037.879883-1.509949,13.219971-.829956,17.389893.790039,4.620117,1.329956,10.210205,3.940002,11,1.799988-.036939-5.307652-19.24327-6.915583-20.300548-9.589303.060558-1.790702,6.260753-1.170707,13.380626-.220695,12.75714,2.60936,14.864992-3.269281,1.830167-4.790393-6.370206-1.049634-15.260098-.059644-15.190274-1.749585-.915492-3.536011,20.377016-2.465926,20.530594-6.209108-.140458-2.650938-2.140458-1.580931-7.750565-1.280943-6.089844.200012-16.23999,2.170044-16.73999,1.280029-1.540039-2.049988,12.310059-6,11.400146-7.570007-4.764219-2.542968-11.265403,3.003885-15.860107,4.859985L82.464349.21551h42.48999Z"/>
    <path class="cls-1" d="M139.104486,122.915522h-27.52002l9.77002-21.550049c4.049805,6.920044,9.819824,14.160034,17.75,21.550049Z"/>
    <path class="cls-1" d="M209.67431.21551l-53.579834,118.269958c-8.340088-7.190002-23.860107-21.859985-27.130127-33.919983l7.01001-15.47998c3.394513-1.469432,10.461868.064097,12.530029,1.169983.91334-1.977877.503254-7.357414-10.100098-6.539978l1.640137-3.619995c7.072858-1.30184,21.375868,6.309544,23.01002,3.431152.098841-5.090114-18.745365-6.989531-20.28004-9.461181.423505-4.19587,23.347448,3.20413,23.760152-1.079681.554148-5.141968-17.17174-4.346703-21.08022-4.820282l1.440186-3.190002c3.286275-1.480948,16.28325-.723404,16.410174-4.009358.390315-3.584331-10.422195-.571147-14.270281-.710674L167.17431.21551h42.5Z"/>
  </g>
</svg>