<?xml version="1.0" encoding="UTF-8"?>
<svg id="Layer_2" data-name="Layer 2" xmlns="http://www.w3.org/2000/svg" viewBox="0 0 269.51001 122.710022">
  <defs>
    <style>
      .cls-1 {
        fill: #144372;
      }
    </style>
  </defs>
  <g id="wiper_hands_no_inside" data-name="wiper hands no inside">
    <path class="cls-1" d="M269.51001,16.400024v89.899963c0,9.059998-7.350037,16.410034-16.400024,16.410034h-80.669983c-4.480042-3.570007-38.670044-31.400024-33.369995-47.590027,4.579956-14.01001,20.399963-6.789978,20.399963-6.789978,0,0,2.73999-7.300049-8.75-6.720032-4.669983.070007-6.47998-1.619995-5.630005-2.969971.910034-1.559998,13.730042-.860046,18.070007.820007,4.799988,1.379944,10.609985,4.099976,11.429993,1.869995.440002-1.300049-4.690002-4.990051-9.179993-5.980042-4.659973-1.039978-11.909973-2.48999-11.919983-3.98999.070007-1.849976,6.51001-1.219971,13.909973-.22998,6.580017.619995,10.75,1.440002,10.809998-.76001.52002-2.549988-2.48999-3.169983-8.899963-4.219971-6.630005-1.080017-15.869995-.060059-15.799988-1.810059-.070007-1.949951,7.109985-2.909973,13.349976-3.799988,5.22998-.289978,8.099976-.919983,8-2.659973-.150024-2.75-2.22998-1.640015-8.059998-1.330017-6.330017.210022-16.880005,2.25-17.400024,1.330017-1.609985-2.130005,12.790039-6.22998,11.850037-7.859985-1.5-1.920044-6.780029-.040039-11.799988,2.599976-4.740051,2.5-5.970032,2.840027-11.280029,6.830017-5.599976,4.209961-10.159973,10.26001-12.280029,15.130005-6.289978,14.47998-6.199951,40.329956,23.430054,68.130005h-63.910034c-4.47998-3.570007-38.669983-31.400024-33.380005-47.590027,4.580017-14.01001,20.410034-6.789978,20.410034-6.789978,0,0,2.73999-7.300049-8.75-6.720032-4.679993.070007-6.480042-1.619995-5.640015-2.969971.909973-1.559998,13.73999-.860046,18.070007.820007,4.799988,1.379944,10.619995,4.099976,11.440002,1.869995.440002-1.300049-4.700012-4.990051-9.179993-5.980042-4.670044-1.039978-11.910034-2.48999-11.920044-3.98999.059998-1.849976,6.5-1.219971,13.900024-.22998,6.580017.619995,10.76001,1.440002,10.820007-.76001.52002-2.549988-2.48999-3.169983-8.910034-4.219971-6.619995-1.080017-15.859985-.060059-15.789978-1.810059-.070007-1.949951,7.099976-2.909973,13.349976-3.799988,5.230042-.289978,8.090027-.919983,7.990051-2.659973-.140015-2.75-2.230042-1.640015-8.050049-1.330017-6.339966.210022-16.889954,2.25-17.409973,1.330017-1.599976-2.130005,12.799988-6.22998,11.859985-7.859985-1.5-1.920044-6.789978-.040039-11.799988,2.599976-4.73999,2.5-5.97998,2.840027-11.280029,6.830017-5.599976,4.209961-10.159973,10.26001-12.279968,15.130005-6.289978,14.47998-6.200012,40.329956,23.419983,68.130005H16.399963c-9.059998,0-16.399963-7.350037-16.399963-16.410034V16.400024C0,7.339966,7.339966,0,16.399963,0h236.710022c9.049988,0,16.400024,7.339966,16.400024,16.400024Z"/>
  </g>
</svg>