<svg viewBox="0 0 146.007507 128.169983" xmlns="http://www.w3.org/2000/svg"><path d="m145.144989 67.289978-33.289978 57.660034c-1.150024 1.98999-3.27002 3.219971-5.559998 3.219971h-66.580017c-2.299988 0-4.419983-1.22998-5.570007-3.219971l-33.289978-57.660034c-1.140015-1.98999-1.140015-4.429993 0-6.419983l33.289978-57.660034c1.150024-1.98999 3.27002-3.209961 5.570007-3.209961h66.580017c2.289978 0 4.409973 1.219971 5.559998 3.209961l33.289978 57.660034c1.150024 1.98999 1.150024 4.429993 0 6.419983z" fill="#144372"/><path d="m0 .473751h146.007507v127.222481h-146.007507z" fill="none"/><g fill="#fff"><path d="m51.104378 90.948345c-6.22998 0-10.986328-2.323242-14.271484-6.971191-3.285156-4.646973-4.927246-11.229492-4.927246-19.746582 0-5.693848.741211-10.499512 2.226562-14.41748 1.483887-3.916992 3.649902-6.885742 6.496582-8.905762 2.847168-2.019043 6.338867-3.029785 10.475586-3.029785 6.27832 0 11.046875 2.251465 14.308105 6.752441 3.259766 4.501953 4.891113 11.035645 4.891113 19.600586 0 5.693848-.742676 10.524414-2.226562 14.490723-1.485352 3.966797-3.638672 6.996582-6.460449 9.088379-2.823242 2.092773-6.327148 3.138672-10.512207 3.138672zm0-9.197754c2.821777 0 4.915039-1.398438 6.27832-4.197266 1.361816-2.79834 2.043945-7.23877 2.043945-13.322754 0-6.083008-.682129-10.462891-2.043945-13.140137-1.363281-2.675781-3.456543-4.014648-6.27832-4.014648-2.822754 0-4.916016 1.338867-6.277832 4.014648-1.363281 2.677246-2.043945 7.057129-2.043945 13.140137 0 6.083984.680664 10.524414 2.043945 13.322754 1.361816 2.798828 3.455078 4.197266 6.277832 4.197266z"/><path d="m84.464729 90.145611c-1.558105 0-2.75-.413086-3.577148-1.241211-.828125-.827148-1.240723-1.970703-1.240723-3.430664 0-1.507812.412598-2.651855 1.240723-3.431152.827148-.777832 2.019043-1.167969 3.577148-1.167969h7.373047v-32.922852h5.329102l-10.658203 6.49707c-1.120117.681641-2.15332.94873-3.102539.802734-.94873-.145996-1.76416-.559082-2.445312-1.240723-.682129-.681152-1.131348-1.496582-1.350586-2.445801-.21875-.94873-.134766-1.897949.255371-2.847168.38916-.94873 1.119141-1.763184 2.189941-2.445312l10.147461-6.131836c1.021973-.631836 2.055176-1.143066 3.102051-1.533203 1.046387-.388672 2.080566-.583984 3.102539-.583984 1.459961 0 2.615723.377441 3.467773 1.131348.850586.755371 1.277344 1.910645 1.277344 3.467773v38.251953h6.643066c1.507812 0 2.675781.390137 3.503906 1.167969.827148.779297 1.241211 1.92334 1.241211 3.431152 0 1.508789-.414062 2.664062-1.241211 3.467773-.828125.802734-1.996094 1.204102-3.503906 1.204102h-25.331055z"/></g></svg>