<svg viewBox="0 0 146.007507 128.169983" xmlns="http://www.w3.org/2000/svg"><path d="m145.144989 67.289978-33.289978 57.660034c-1.150024 1.98999-3.27002 3.219971-5.559998 3.219971h-66.580017c-2.299988 0-4.419983-1.22998-5.570007-3.219971l-33.289978-57.660034c-1.140015-1.98999-1.140015-4.429993 0-6.419983l33.289978-57.660034c1.150024-1.98999 3.27002-3.209961 5.570007-3.209961h66.580017c2.289978 0 4.409973 1.219971 5.559998 3.209961l33.289978 57.660034c1.150024 1.98999 1.150024 4.429993 0 6.419983z" fill="#144372"/><path d="m0 .473751h146.007507v127.222481h-146.007507z" fill="none"/><g fill="#fff"><path d="m51.104042 90.948345c-6.22998 0-10.986328-2.323242-14.271484-6.971191-3.285156-4.646973-4.927246-11.229492-4.927246-19.746582 0-5.693848.741211-10.499512 2.226562-14.41748 1.483887-3.916992 3.649902-6.885742 6.496582-8.905762 2.847168-2.019043 6.338867-3.029785 10.475586-3.029785 6.27832 0 11.046875 2.251465 14.308105 6.752441 3.259766 4.501953 4.891113 11.035645 4.891113 19.600586 0 5.693848-.742676 10.524414-2.226562 14.490723-1.485352 3.966797-3.638672 6.996582-6.460449 9.088379-2.823242 2.092773-6.327148 3.138672-10.512207 3.138672zm0-9.197754c2.821777 0 4.915039-1.398438 6.27832-4.197266 1.361816-2.79834 2.043945-7.23877 2.043945-13.322754 0-6.083008-.682129-10.462891-2.043945-13.140137-1.363281-2.675781-3.456543-4.014648-6.27832-4.014648-2.822754 0-4.916016 1.338867-6.277832 4.014648-1.363281 2.677246-2.043945 7.057129-2.043945 13.140137 0 6.083984.680664 10.524414 2.043945 13.322754 1.361816 2.798828 3.455078 4.197266 6.277832 4.197266z"/><path d="m83.077675 90.145611c-1.80127 0-3.12793-.425781-3.978516-1.277344-.852051-.850586-1.277832-2.104492-1.277832-3.759766 0-1.069824.26709-2.067871.803223-2.992676.534668-.924316 1.264648-1.873047 2.189941-2.847168l13.724121-14.454102c2.043945-2.189941 3.515137-4.135742 4.416504-5.839844.899902-1.703125 1.350098-3.40625 1.350098-5.109863 0-2.141113-.693359-3.770996-2.080078-4.891113-1.387207-1.119141-3.394531-1.679199-6.022461-1.679199-1.412109 0-2.859863.20752-4.34375.620605-1.484863.414062-3.029297 1.083496-4.635254 2.007324-1.071289.583984-2.056641.791504-2.956543.620605-.901367-.169922-1.667969-.583984-2.299805-1.240723-.632812-.657227-1.046875-1.447754-1.240723-2.372559-.195312-.924316-.098145-1.849121.291992-2.774414.388672-.923828 1.118652-1.702637 2.189941-2.335938 2.141113-1.313965 4.477051-2.299316 7.007812-2.956543 2.529785-.656738 5.037109-.985352 7.519043-.985352 3.84375 0 7.081055.572754 9.708984 1.715332 2.62793 1.144043 4.623047 2.810547 5.98584 5.000977 1.362305 2.189941 2.044434 4.866699 2.044434 8.029785 0 2.043945-.317383 4.040039-.949219 5.98584-.632812 1.947266-1.618652 3.905762-2.956543 5.876465-1.338867 1.971191-3.102539 4.07666-5.29248 6.314453l-12.774902 12.994141v-2.919922h19.782715c1.557129 0 2.737793.390137 3.540527 1.167969.803223.779297 1.20459 1.92334 1.20459 3.431152 0 1.508789-.401367 2.664062-1.20459 3.467773-.802734.802734-1.983398 1.204102-3.540527 1.204102h-26.206543z"/></g></svg>