<svg viewBox="0 0 146.007507 128.169983" xmlns="http://www.w3.org/2000/svg"><path d="m145.144989 67.289978-33.289978 57.660034c-1.150024 1.98999-3.27002 3.219971-5.559998 3.219971h-66.580017c-2.299988 0-4.419983-1.22998-5.570007-3.219971l-33.289978-57.660034c-1.140015-1.98999-1.140015-4.429993 0-6.419983l33.289978-57.660034c1.150024-1.98999 3.27002-3.209961 5.570007-3.209961h66.580017c2.289978 0 4.409973 1.219971 5.559998 3.209961l33.289978 57.660034c1.150024 1.98999 1.150024 4.429993 0 6.419983z" fill="#144372"/><path d="m0 .473751h146.007507v127.222481h-146.007507z" fill="none"/><g fill="#fff"><path d="m51.103968 90.948238c-6.22998 0-10.986328-2.323242-14.271484-6.970703s-4.927246-11.229492-4.927246-19.74707c0-5.693359.741211-10.499023 2.226562-14.416992 1.483887-3.916992 3.649902-6.885742 6.496582-8.90625 2.847168-2.018555 6.338867-3.029297 10.475586-3.029297 6.27832 0 11.046875 2.250977 14.308105 6.751953 3.259766 4.501953 4.891113 11.036133 4.891113 19.600586 0 5.694336-.742676 10.524414-2.226562 14.491211-1.485352 3.966797-3.638672 6.996094-6.460449 9.087891-2.823242 2.092773-6.327148 3.138672-10.512207 3.138672zm0-9.197266c2.821777 0 4.915039-1.398438 6.27832-4.197266 1.361816-2.798828 2.043945-7.239258 2.043945-13.323242 0-6.083008-.682129-10.462891-2.043945-13.139648-1.363281-2.675781-3.456543-4.014648-6.27832-4.014648-2.822754 0-4.916016 1.338867-6.277832 4.014648-1.363281 2.676758-2.043945 7.056641-2.043945 13.139648 0 6.083984.680664 10.524414 2.043945 13.323242 1.361816 2.798828 3.455078 4.197266 6.277832 4.197266z"/><path d="m93.662562 90.948238c-2.580078 0-5.195801-.304688-7.847656-.912109-2.65332-.608398-4.952637-1.47168-6.898438-2.591797-1.266113-.680664-2.129395-1.496094-2.591797-2.445312-.462891-.949219-.632812-1.884766-.510742-2.810547.121094-.923828.498535-1.739258 1.131348-2.445312.631836-.705078 1.447754-1.155273 2.445801-1.350586.996582-.193359 2.104492 0 3.321289.583984 1.897949.924805 3.697754 1.582031 5.401855 1.970703 1.703125.390625 3.40625.584961 5.110352.584961 1.945801 0 3.57666-.255859 4.890625-.766602 1.313965-.511719 2.311035-1.25293 2.993164-2.226562.681152-.973633 1.021973-2.19043 1.021973-3.650391 0-2.043945-.706055-3.577148-2.117188-4.598633-1.411621-1.022461-3.47998-1.533203-6.20459-1.533203h-4.307129c-1.605957 0-2.835449-.401367-3.686523-1.204102-.852051-.803711-1.277344-1.910156-1.277344-3.322266 0-1.459961.425293-2.59082 1.277344-3.394531.851074-.802734 2.080566-1.204102 3.686523-1.204102h3.211914c1.653809 0 3.053711-.255859 4.197754-.766602 1.142578-.510742 2.043945-1.228516 2.700684-2.15332.657227-.923828.98584-2.068359.98584-3.431641 0-1.945312-.669922-3.430664-2.007812-4.452148-1.338867-1.022461-3.273438-1.533203-5.803223-1.533203-1.558105 0-3.091309.182617-4.599121.546875-1.509277.365234-3.13916 1.010742-4.891113 1.93457-1.070801.536133-2.068848.706055-2.993164.511719-.924805-.194336-1.691406-.631836-2.299316-1.314453-.608887-.680664-.998047-1.47168-1.167969-2.37207-.170898-.900391-.048828-1.8125.364746-2.738281.413086-.923828 1.179688-1.678711 2.299805-2.262695 2.091797-1.21582 4.367188-2.140625 6.825195-2.773438 2.457031-.631836 4.95166-.949219 7.48291-.949219 3.697754 0 6.861816.55957 9.489746 1.678711 2.62793 1.120117 4.646973 2.713867 6.059082 4.78125 1.411133 2.069336 2.117188 4.5625 2.117188 7.482422 0 1.996094-.390137 3.821289-1.167969 5.475586-.779297 1.655273-1.861816 3.054688-3.248535 4.197266-1.387207 1.144531-3.078613 1.959961-5.07373 2.445312v-.948242c3.455078.583984 6.155762 2.019531 8.103027 4.306641 1.945801 2.288086 2.919922 5.15918 2.919922 8.614258 0 3.06543-.778809 5.730469-2.335938 7.993164-1.558105 2.262695-3.784668 4.00293-6.679688 5.21875-2.895996 1.216797-6.339355 1.825195-10.329102 1.825195z"/></g></svg>