<svg viewBox="0 0 146.007507 128.169983" xmlns="http://www.w3.org/2000/svg"><path d="m145.144989 67.289978-33.289978 57.660034c-1.150024 1.98999-3.27002 3.219971-5.559998 3.219971h-66.580017c-2.299988 0-4.419983-1.22998-5.570007-3.219971l-33.289978-57.660034c-1.140015-1.98999-1.140015-4.429993 0-6.419983l33.289978-57.660034c1.150024-1.98999 3.27002-3.209961 5.570007-3.209961h66.580017c2.289978 0 4.409973 1.219971 5.559998 3.209961l33.289978 57.660034c1.150024 1.98999 1.150024 4.429993 0 6.419983z" fill="#144372"/><path d="m0 .473751h146.007507v127.222481h-146.007507z" fill="none"/><g fill="#fff"><path d="m51.104406 90.948238c-6.22998 0-10.986328-2.323242-14.271484-6.970703s-4.927246-11.229492-4.927246-19.74707c0-5.693359.741211-10.499023 2.226562-14.416992 1.483887-3.916992 3.649902-6.885742 6.496582-8.90625 2.847168-2.018555 6.338867-3.029297 10.475586-3.029297 6.27832 0 11.046875 2.250977 14.308105 6.751953 3.259766 4.501953 4.891113 11.036133 4.891113 19.600586 0 5.694336-.742676 10.524414-2.226562 14.491211-1.485352 3.966797-3.638672 6.996094-6.460449 9.087891-2.823242 2.092773-6.327148 3.138672-10.512207 3.138672zm0-9.197266c2.821777 0 4.915039-1.398438 6.27832-4.197266 1.361816-2.798828 2.043945-7.239258 2.043945-13.323242 0-6.083008-.682129-10.462891-2.043945-13.139648-1.363281-2.675781-3.456543-4.014648-6.27832-4.014648-2.822754 0-4.916016 1.338867-6.277832 4.014648-1.363281 2.676758-2.043945 7.056641-2.043945 13.139648 0 6.083984.680664 10.524414 2.043945 13.323242 1.361816 2.798828 3.455078 4.197266 6.277832 4.197266z"/><path d="m102.933995 90.80273c-1.751953 0-3.12793-.487305-4.124512-1.459961-.998047-.973633-1.496582-2.383789-1.496582-4.234375v-4.161133h-16.352051c-1.80127 0-3.237305-.401367-4.307129-1.204102-1.070801-.802734-1.605957-2.03125-1.605957-3.686523 0-.972656.219238-1.970703.657227-2.993164.437988-1.021484 1.21582-2.287109 2.335938-3.795898l18.906738-27.520508c.827148-1.21582 1.751953-2.141602 2.773926-2.774414 1.022461-.631836 2.19043-.949219 3.504395-.949219 1.556641 0 2.810547.474609 3.759277 1.423828.949219.949219 1.42334 2.37207 1.42334 4.270508v28.324219h2.701172c1.605957 0 2.821777.376953 3.649902 1.130859.827148.755859 1.241211 1.862305 1.241211 3.322266 0 1.412109-.401367 2.506836-1.20459 3.28418-.803223.779297-2.032715 1.167969-3.686523 1.167969h-2.701172v4.161133c0 1.850586-.474121 3.260742-1.42334 4.234375-.94873.972656-2.299316 1.459961-4.05127 1.459961zm-5.621093-18.760742v-20.075195h2.116699l-15.548828 22.848633v-2.773438z"/></g></svg>