<svg viewBox="0 0 146.007507 128.169983" xmlns="http://www.w3.org/2000/svg"><path d="m145.144989 67.289978-33.289978 57.660034c-1.150024 1.98999-3.27002 3.219971-5.559998 3.219971h-66.580017c-2.299988 0-4.419983-1.22998-5.570007-3.219971l-33.289978-57.660034c-1.140015-1.98999-1.140015-4.429993 0-6.419983l33.289978-57.660034c1.150024-1.98999 3.27002-3.209961 5.570007-3.209961h66.580017c2.289978 0 4.409973 1.219971 5.559998 3.209961l33.289978 57.660034c1.150024 1.98999 1.150024 4.429993 0 6.419983z" fill="#144372"/><path d="m0 .473751h146.007507v127.222481h-146.007507z" fill="none"/><g fill="#fff"><path d="m51.104299 90.948238c-6.22998 0-10.986328-2.323242-14.271484-6.970703s-4.927246-11.229492-4.927246-19.74707c0-5.693359.741211-10.499023 2.226562-14.416992 1.483887-3.916992 3.649902-6.885742 6.496582-8.90625 2.847168-2.018555 6.338867-3.029297 10.475586-3.029297 6.27832 0 11.046875 2.250977 14.308105 6.751953 3.259766 4.501953 4.891113 11.036133 4.891113 19.600586 0 5.694336-.742676 10.524414-2.226562 14.491211-1.485352 3.966797-3.638672 6.996094-6.460449 9.087891-2.823242 2.092773-6.327148 3.138672-10.512207 3.138672zm0-9.197266c2.821777 0 4.915039-1.398438 6.27832-4.197266 1.361816-2.798828 2.043945-7.239258 2.043945-13.323242 0-6.083008-.682129-10.462891-2.043945-13.139648-1.363281-2.675781-3.456543-4.014648-6.27832-4.014648-2.822754 0-4.916016 1.338867-6.277832 4.014648-1.363281 2.676758-2.043945 7.056641-2.043945 13.139648 0 6.083984.680664 10.524414 2.043945 13.323242 1.361816 2.798828 3.455078 4.197266 6.277832 4.197266z"/><path d="m94.976858 90.948238c-2.481934 0-5.037109-.316406-7.665039-.949219-2.62793-.631836-5.037109-1.580078-7.227051-2.84668-1.120117-.631836-1.886719-1.410156-2.299316-2.335938-.414062-.923828-.536133-1.873047-.365234-2.84668.169922-.972656.559082-1.8125 1.167969-2.518555.60791-.705078 1.387207-1.155273 2.335938-1.350586.949219-.193359 2.007812.025391 3.175781.657227 1.702637.875977 3.442383 1.557617 5.219238 2.043945 1.775879.487305 3.588379.730469 5.438477.730469 1.849121 0 3.431152-.316406 4.745117-.949219 1.313965-.631836 2.311035-1.507812 2.993164-2.62793.680664-1.119141 1.021973-2.433594 1.021973-3.942383 0-2.335938-.742676-4.208984-2.226562-5.621094-1.485352-1.411133-3.492676-2.117188-6.022461-2.117188-1.266113 0-2.543945.208008-3.83252.621094-1.290039.414062-2.616699 1.130859-3.978516 2.15332-.487305.389648-1.120117.754883-1.897949 1.094727-.779297.34082-1.605957.510742-2.481934.510742-1.509277 0-2.628418-.351562-3.358398-1.057617-.72998-.705078-1.094727-1.740234-1.094727-3.102539v-22.922852c0-1.605469.425293-2.821289 1.277344-3.649414.851074-.827148 2.055664-1.241211 3.61377-1.241211h23.432617c1.605957 0 2.822266.401367 3.650391 1.204102.82666.803711 1.240723 1.959961 1.240723 3.467773 0 1.459961-.414062 2.591797-1.240723 3.394531-.828125.802734-2.044434 1.205078-3.650391 1.205078h-17.446777v13.942383h-2.773926c1.21582-1.507812 2.821777-2.675781 4.817871-3.503906 1.995117-.827148 4.185059-1.241211 6.569824-1.241211 3.260254 0 6.106934.693359 8.541016 2.081055 2.433105 1.386719 4.331055 3.321289 5.694336 5.803711 1.361816 2.481445 2.043945 5.353516 2.043945 8.613281 0 3.407227-.779297 6.413086-2.335938 9.015625-1.558105 2.604492-3.796387 4.635742-6.716309 6.095703s-6.375977 2.189453-10.365723 2.189453z"/></g></svg>